<svg xmlns="http://www.w3.org/2000/svg" viewBox="0 0 500 500"><g id="freepik--Floor--inject-248"><path id="freepik--floor--inject-248" d="M82.33,246.08c-92.6,53.46-92.59,140.14,0,193.6s242.73,53.46,335.33,0,92.59-140.14,0-193.6S174.93,192.62,82.33,246.08Z" style="fill:#fafafa"></path></g><g id="freepik--Window--inject-248"><g id="freepik--window--inject-248"><g id="freepik--window--inject-248"><g id="freepik--Frame--inject-248"><polygon points="373.61 47.84 370.85 49.38 370.85 170.35 373.61 168.81 373.61 47.84" style="fill:#e0e0e0"></polygon><polygon points="373.61 168.81 373.61 50.98 461.11 101.54 461.09 219.36 373.61 168.81" style="fill:#fff"></polygon><path d="M466.23,231.36V98.59L365.74,40.53V173.3Zm-95.38-61v-121l90.26,52.16v121Z" style="fill:#f0f0f0"></path><polygon points="370.85 170.35 373.61 168.81 461.09 219.36 461.11 222.5 370.85 170.35" style="fill:#e0e0e0"></polygon><polygon points="421.23 78.48 418.48 76.89 418.48 197.85 421.23 196.31 421.23 78.48" style="fill:#e0e0e0"></polygon><polygon points="466.23 231.36 468.97 229.77 468.97 96.99 466.23 98.59 466.23 231.36" style="fill:#e0e0e0"></polygon><polygon points="468.97 96.99 466.23 98.59 365.74 40.53 368.48 38.93 468.97 96.99" style="fill:#fafafa"></polygon><polygon points="461.11 156.68 461.11 159.86 370.84 107.7 373.58 106.1 461.11 156.68" style="fill:#e0e0e0"></polygon></g><polygon points="461.1 165.76 461.11 159.86 370.84 107.7 370.85 113.61 461.1 165.76" style="fill:#f0f0f0"></polygon><polygon points="418.48 203.75 413.37 200.81 413.37 68.03 418.48 70.98 418.48 203.75" style="fill:#f0f0f0"></polygon><polygon points="418.48 135.21 421.23 133.62 421.23 78.48 418.48 76.89 418.48 135.21" style="fill:#e0e0e0"></polygon></g></g></g><g id="freepik--Shelves--inject-248"><g id="freepik--shelves--inject-248"><g id="freepik--Shelf--inject-248"><polygon points="145.33 157.74 112.34 138.69 25.45 188.8 25.45 192.42 58.45 211.47 145.33 161.36 145.33 157.74" style="fill:#ebebeb"></polygon><polygon points="58.45 207.85 145.33 157.74 112.34 138.69 25.45 188.8 58.45 207.85" style="fill:#fafafa"></polygon><polygon points="58.45 207.85 58.45 211.47 25.45 192.42 25.45 188.8 58.45 207.85" style="fill:#e6e6e6"></polygon><polygon points="122.26 107.29 141.62 118.47 141.62 155.3 122.26 144.12 122.26 107.29" style="fill:#ebebeb"></polygon><path d="M141,119.08l-18.74-10.75a7.76,7.76,0,0,1-4.28,2.34l18.57,10.71A18.76,18.76,0,0,0,141,119.08Z" style="fill:#fff"></path><path d="M134.75,121.32a4,4,0,0,0,3.6,0l3.16-1.82a1.09,1.09,0,0,0,0-2.06l-18.46-10.6-.79.45,18.16,10.49c.6.34.6.89,0,1.24l-2.93,1.66a2.41,2.41,0,0,1-2.16,0l-18.15-10.47-.89.51Z" style="fill:#fafafa"></path><path d="M116.29,110.72v36.82l18.46,10.6a4,4,0,0,0,3.6,0l3.16-1.81a1.27,1.27,0,0,0,.74-1V118.47a1.25,1.25,0,0,1-.74,1l-3.16,1.82a4,4,0,0,1-3.6,0Z" style="fill:#e0e0e0"></path><path d="M136.55,121.74a3.71,3.71,0,0,0,1.8-.42l3.16-1.82a1.25,1.25,0,0,0,.74-1V155.3a1.27,1.27,0,0,1-.74,1l-3.16,1.81a3.71,3.71,0,0,1-1.8.43Z" style="fill:#f0f0f0"></path><polygon points="114.15 112.87 133.5 124.05 127.49 161.99 108.13 150.81 114.15 112.87" style="fill:#ebebeb"></polygon><path d="M132.74,124.58,114,113.82a10.22,10.22,0,0,1-5,1.94l18.58,10.7A24.22,24.22,0,0,0,132.74,124.58Z" style="fill:#fff"></path><path d="M125.64,126.32a5,5,0,0,0,3.91.17l3.68-1.5c1.16-.48,1.3-1.32.3-1.89l-18.47-10.6-.91.37,18.15,10.48c.6.35.52.85-.18,1.14l-3.42,1.38a3,3,0,0,1-2.34-.11l-18.15-10.47-1,.43Z" style="fill:#fafafa"></path><path d="M107.17,115.72l-6,37.94,18.47,10.6a5.07,5.07,0,0,0,3.91.17l3.68-1.5c.58-.24.9-.57,1-.91l6-37.94c-.06.34-.38.67-1,.91l-3.68,1.51a5.08,5.08,0,0,1-3.91-.18Z" style="fill:#e0e0e0"></path><path d="M127.53,126.8a5.08,5.08,0,0,0,2-.3l3.68-1.51c.58-.24.9-.57,1-.91l-6,37.94c-.06.34-.38.67-1,.91l-3.68,1.5a4.77,4.77,0,0,1-2,.3Z" style="fill:#f0f0f0"></path><g id="freepik--Pot--inject-248"><path id="freepik--Shadow--inject-248" d="M107.08,161.37c4.56,2.63,4.56,6.89,0,9.52s-11.94,2.63-16.49,0-4.56-6.89,0-9.52S102.53,158.74,107.08,161.37Z" style="opacity:0.05"></path><path d="M91.42,168c-4-4.05-6.3-14.15-2.43-17.36h19.69c3.87,3.21,1.54,13.31-2.43,17.36l-.1.11-.14.13c-.11.11-.23.21-.36.32l-.09.07-.3.23a5.69,5.69,0,0,1-.52.33,13.07,13.07,0,0,1-11.81,0h0a5.69,5.69,0,0,1-.52-.33l-.28-.21a.52.52,0,0,1-.11-.1c-.13-.1-.24-.2-.35-.3l-.16-.16Z" style="fill:#f5f5f5"></path><path d="M107,149.1c4.49,2.59,4.49,6.79,0,9.39s-11.78,2.59-16.27,0-4.49-6.8,0-9.39S102.48,146.5,107,149.1Z" style="fill:#fff"></path><path d="M103.78,150.94c2.74,1.57,2.74,4.13,0,5.71a10.91,10.91,0,0,1-9.89,0c-2.73-1.58-2.73-4.14,0-5.71A10.91,10.91,0,0,1,103.78,150.94Z" style="fill:#ebebeb"></path><path d="M93.89,153.65a10.91,10.91,0,0,1,9.89,0,4.47,4.47,0,0,1,1.64,1.5,4.65,4.65,0,0,1-1.64,1.5,10.91,10.91,0,0,1-9.89,0,4.65,4.65,0,0,1-1.64-1.5A4.47,4.47,0,0,1,93.89,153.65Z" style="fill:#e0e0e0"></path><path d="M103.18,155.15a22.46,22.46,0,0,0,3.58-4.76c1.65-2.92,2-6.84,1.1-7.32s-4.33,3.42-4.33,3.42a21.46,21.46,0,0,0,.37-5c-.15-2.6-.78-5-1.53-5.44s-2.41,2.8-3.13,5.18-1.14,4.34-1.14,4.34a37.25,37.25,0,0,0-1.28-5.48c-.87-2.47-1.66-3-2.27-2.78s-1,1.39-1.19,4.68a33.16,33.16,0,0,0,.15,4.71s-1.23-1.34-2.59-2.65-2.13-1.64-2.56-1.36-.55,2.51,1.77,6.69a23.32,23.32,0,0,0,4.37,5.76S97.7,157.21,103.18,155.15Z" style="fill:#ebebeb"></path></g><polygon points="68.12 135.22 87.48 146.41 87.48 183.23 68.12 172.05 68.12 135.22" style="fill:#e0e0e0"></polygon><path d="M86.86,147,68.12,136.27a7.88,7.88,0,0,1-4.28,2.34l18.57,10.7A18.86,18.86,0,0,0,86.86,147Z" style="fill:#fff"></path><path d="M80.61,149.25a4,4,0,0,0,3.6,0l3.16-1.81a1.09,1.09,0,0,0,0-2.07L68.91,134.78l-.79.45,18.16,10.48c.6.35.6.9,0,1.24l-2.93,1.66a2.35,2.35,0,0,1-2.16,0L63,138.15l-.89.5Z" style="fill:#fafafa"></path><path d="M62.15,138.65v36.83l18.46,10.59a4,4,0,0,0,3.6,0l3.16-1.81a1.25,1.25,0,0,0,.74-1V146.41a1.27,1.27,0,0,1-.74,1l-3.16,1.81a4,4,0,0,1-3.6,0Z" style="fill:#e0e0e0"></path><path d="M82.41,149.68a3.61,3.61,0,0,0,1.8-.43l3.16-1.81a1.27,1.27,0,0,0,.74-1v36.82a1.25,1.25,0,0,1-.74,1l-3.16,1.81a3.61,3.61,0,0,1-1.8.43Z" style="fill:#f0f0f0"></path><polygon points="60.21 139.77 79.56 150.95 79.56 187.78 60.21 176.6 60.21 139.77" style="fill:#ebebeb"></polygon><path d="M78.94,151.56,60.21,140.81a7.83,7.83,0,0,1-4.29,2.34L74.5,153.86A18.63,18.63,0,0,0,78.94,151.56Z" style="fill:#fff"></path><path d="M72.7,153.8a4,4,0,0,0,3.6,0L79.45,152a1.08,1.08,0,0,0,0-2.06L61,139.32l-.78.45,18.16,10.49c.59.34.59.89,0,1.24l-2.94,1.66a2.41,2.41,0,0,1-2.16,0L55.12,142.69l-.89.51Z" style="fill:#fafafa"></path><path d="M54.24,143.2V180l18.46,10.6a4,4,0,0,0,3.6,0l3.15-1.81a1.26,1.26,0,0,0,.75-1V151a1.24,1.24,0,0,1-.75,1L76.3,153.8a4,4,0,0,1-3.6,0Z" style="fill:#e0e0e0"></path><path d="M74.5,154.22a3.77,3.77,0,0,0,1.8-.42L79.45,152a1.24,1.24,0,0,0,.75-1v36.83a1.26,1.26,0,0,1-.75,1l-3.15,1.81a3.77,3.77,0,0,1-1.8.43Z" style="fill:#f0f0f0"></path><polygon points="52.39 147.58 71.75 158.76 65.73 196.7 46.38 185.52 52.39 147.58" style="fill:#ebebeb"></polygon><path d="M71,159.29,52.24,148.54a10.35,10.35,0,0,1-5,1.93l18.58,10.71A24.88,24.88,0,0,0,71,159.29Z" style="fill:#fff"></path><path d="M63.89,161a5,5,0,0,0,3.9.18l3.68-1.51c1.17-.47,1.3-1.32.31-1.89L53.3,147.21l-.91.37,18.16,10.49c.6.34.51.85-.18,1.13L67,160.58a3,3,0,0,1-2.35-.1L46.45,150l-1,.42Z" style="fill:#fafafa"></path><path d="M45.42,150.43l-6,37.94L57.88,199a5,5,0,0,0,3.9.18l3.68-1.51c.58-.24.91-.56,1-.91l6-37.94c-.05.35-.38.67-1,.91l-3.69,1.51a5,5,0,0,1-3.9-.18Z" style="fill:#e0e0e0"></path><path d="M65.78,161.51a4.72,4.72,0,0,0,2-.3l3.69-1.51c.57-.24.9-.56,1-.91l-6,37.94c0,.35-.38.67-1,.91l-3.68,1.51a5.08,5.08,0,0,1-2,.3Z" style="fill:#f0f0f0"></path></g><g id="freepik--shelf--inject-248"><polygon points="145.33 86.27 112.34 67.22 25.45 117.33 25.45 120.95 58.45 140 145.33 89.89 145.33 86.27" style="fill:#ebebeb"></polygon><polygon points="58.45 136.38 145.33 86.27 112.34 67.22 25.45 117.33 58.45 136.38" style="fill:#fafafa"></polygon><polygon points="58.45 136.38 58.45 140 25.45 120.95 25.45 117.33 58.45 136.38" style="fill:#e6e6e6"></polygon><polygon points="117.41 32.32 138.8 44.68 138.8 85.38 117.41 73.03 117.41 32.32" style="fill:#ebebeb"></polygon><path d="M138.11,45.36l-20.7-11.89a8.65,8.65,0,0,1-4.74,2.59L133.2,47.89A20.69,20.69,0,0,0,138.11,45.36Z" style="fill:#fff"></path><path d="M131.21,47.82a4.43,4.43,0,0,0,4,0l3.49-2a1.2,1.2,0,0,0,0-2.28L118.27,31.83l-.86.49,20.07,11.59a.72.72,0,0,1,0,1.37l-3.24,1.84a2.65,2.65,0,0,1-2.39,0L111.79,35.55l-1,.56Z" style="fill:#fafafa"></path><path d="M110.81,36.11v40.7l20.4,11.71a4.43,4.43,0,0,0,4,0l3.49-2a1.37,1.37,0,0,0,.82-1.14V44.68a1.37,1.37,0,0,1-.82,1.14l-3.49,2a4.43,4.43,0,0,1-4,0Z" style="fill:#e0e0e0"></path><path d="M133.2,48.3a4.15,4.15,0,0,0,2-.47l3.49-2a1.37,1.37,0,0,0,.82-1.14v40.7a1.37,1.37,0,0,1-.82,1.14l-3.49,2a4,4,0,0,1-2,.48Z" style="fill:#f0f0f0"></path><polygon points="109.1 39.39 130.49 51.75 123.85 93.68 102.45 81.33 109.1 39.39" style="fill:#ebebeb"></polygon><path d="M129.65,52.34,108.93,40.45a11.43,11.43,0,0,1-5.51,2.14L124,54.42A27.46,27.46,0,0,0,129.65,52.34Z" style="fill:#fff"></path><path d="M121.81,54.26a5.53,5.53,0,0,0,4.31.19l4.07-1.66c1.29-.52,1.43-1.46.34-2.09L110.11,39l-1,.41L129.17,51c.66.38.57.94-.2,1.26l-3.78,1.52a3.36,3.36,0,0,1-2.59-.11L102.53,42.08l-1.14.46Z" style="fill:#fafafa"></path><path d="M101.39,42.54,94.75,84.48l20.41,11.71a5.56,5.56,0,0,0,4.32.19l4.07-1.66c.64-.26,1-.62,1.06-1l6.64-41.94c-.06.38-.42.75-1.06,1l-4.07,1.67a5.58,5.58,0,0,1-4.31-.2Z" style="fill:#e0e0e0"></path><path d="M123.89,54.79a5.37,5.37,0,0,0,2.23-.33l4.07-1.67c.64-.26,1-.63,1.06-1l-6.64,41.94c-.06.38-.42.74-1.06,1l-4.07,1.66a5.26,5.26,0,0,1-2.23.34Z" style="fill:#f0f0f0"></path><g id="freepik--Picture--inject-248"><g id="freepik--frame--inject-248"><polygon points="73.55 115.56 75.06 116.3 103.13 100.09 101.62 99.36 73.55 115.56" style="fill:#fafafa"></polygon><polygon points="101.62 99.36 74.92 114.77 71.03 74.83 97.73 59.42 101.62 99.36" style="fill:#fff"></polygon><path d="M101.41,54.31,68.17,73.5l4.59,47.11L106,101.42Zm1.72,45.78-28.07,16.2L71,74.83,99.1,58.62Z" style="fill:#f0f0f0"></path><polygon points="103.13 100.09 101.62 99.36 97.73 59.42 99.1 58.62 103.13 100.09" style="fill:#e0e0e0"></polygon><polygon points="101.41 54.31 99.87 53.6 66.64 72.79 68.17 73.5 101.41 54.31" style="fill:#fafafa"></polygon><polygon points="66.64 72.79 68.17 73.5 72.76 120.61 71.22 119.9 66.64 72.79" style="fill:#e0e0e0"></polygon></g><g id="freepik--Land--inject-248"><polygon points="100.44 98.6 75.83 112.81 75.17 106.08 79.75 86.32 84.11 93.06 83.21 98.74 90.49 77.77 99.79 91.87 100.44 98.6" style="fill:#f0f0f0"></polygon><path d="M79.37,78a3.5,3.5,0,0,0-1.63,3c.11,1.1,1,1.53,2,.94a3.49,3.49,0,0,0,1.63-3C81.28,77.83,80.38,77.41,79.37,78Z" style="fill:#f0f0f0"></path></g></g><g id="freepik--pot--inject-248"><path id="freepik--shadow--inject-248" d="M59.72,112.79c4.55,2.63,4.55,6.89,0,9.52s-11.94,2.63-16.49,0-4.56-6.89,0-9.52S55.16,110.16,59.72,112.79Z" style="opacity:0.05"></path><path d="M44.06,119.42c-4-4-6.3-14.15-2.43-17.36H61.31c3.87,3.21,1.54,13.31-2.42,17.36l-.11.11-.13.14-.36.31-.1.08a3.3,3.3,0,0,1-.3.22,4.89,4.89,0,0,1-.51.33,13,13,0,0,1-11.82,0h0a4.89,4.89,0,0,1-.51-.33l-.28-.21-.12-.09a3.39,3.39,0,0,1-.34-.31l-.16-.15Z" style="fill:#f5f5f5"></path><path d="M59.6,100.52c4.5,2.59,4.5,6.8,0,9.39s-11.77,2.6-16.26,0-4.49-6.8,0-9.39S55.11,97.93,59.6,100.52Z" style="fill:#fff"></path><path d="M56.42,102.36c2.73,1.58,2.73,4.14,0,5.71a10.93,10.93,0,0,1-9.9,0c-2.73-1.57-2.73-4.13,0-5.71A10.93,10.93,0,0,1,56.42,102.36Z" style="fill:#ebebeb"></path><path d="M46.52,105.07a10.93,10.93,0,0,1,9.9,0,4.65,4.65,0,0,1,1.64,1.5,4.47,4.47,0,0,1-1.64,1.5,10.93,10.93,0,0,1-9.9,0,4.43,4.43,0,0,1-1.63-1.5A4.61,4.61,0,0,1,46.52,105.07Z" style="fill:#e0e0e0"></path><path d="M55.82,106.57a22.52,22.52,0,0,0,3.58-4.76c1.65-2.92,2-6.83,1.1-7.32s-4.33,3.43-4.33,3.43a21.15,21.15,0,0,0,.36-5c-.14-2.61-.78-5-1.52-5.45s-2.42,2.81-3.13,5.19S50.74,97,50.74,97a36.47,36.47,0,0,0-1.29-5.47c-.86-2.47-1.65-3-2.26-2.79s-1,1.4-1.19,4.69a32.39,32.39,0,0,0,.14,4.71s-1.22-1.35-2.58-2.66S41.42,93.85,41,94.12s-.54,2.51,1.77,6.7a23.53,23.53,0,0,0,4.38,5.75S50.34,108.64,55.82,106.57Z" style="fill:#ebebeb"></path></g></g></g></g><g id="freepik--Shadows--inject-248"><ellipse id="freepik--shadow--inject-248" cx="375.05" cy="395.77" rx="68.71" ry="39.67" style="fill:#e0e0e0"></ellipse><ellipse id="freepik--shadow--inject-248" cx="130.6" cy="382.06" rx="77.15" ry="44.54" style="fill:#e0e0e0"></ellipse><ellipse id="freepik--shadow--inject-248" cx="348.8" cy="331.07" rx="90.03" ry="51.98" style="fill:#e0e0e0"></ellipse><ellipse id="freepik--shadow--inject-248" cx="154.95" cy="331.07" rx="90.03" ry="51.98" style="fill:#e0e0e0"></ellipse><path id="freepik--shadow--inject-248" d="M206.82,382.93c-15.86,9.16-15.86,24,0,33.16s41.57,9.16,57.43,0,15.86-24,0-33.16S222.68,373.78,206.82,382.93Z" style="fill:#e0e0e0"></path><path id="freepik--shadow--inject-248" d="M245.36,417c-18.37,10.61-18.37,27.81,0,38.42s48.17,10.61,66.54,0,18.37-27.81,0-38.42S263.73,406.35,245.36,417Z" style="fill:#e0e0e0"></path></g><g id="freepik--Yarns--inject-248"><g id="freepik--Yarn--inject-248"><path d="M268.4,370.65c3.18,18.44-8.81,35.91-26.8,39s-35.16-9.32-38.35-27.76c-2.68-15.52,5.73-28.44,19.18-34a39.48,39.48,0,0,1,12.42-2.83C251.12,344.11,265.47,353.7,268.4,370.65Z" style="fill:#455a64"></path><path d="M265.6,379.73a35.34,35.34,0,0,0,3.26-1.48c0-.73.05-1.46,0-2.2l-.4.26A18.36,18.36,0,0,1,255,378.46c-1-.21-1.91-.44-2.86-.7a30.84,30.84,0,0,0,9.31-3.45A23.27,23.27,0,0,0,268,368.9c-.24-1.07-.53-2.1-.86-3.11a21.29,21.29,0,0,1-4.75,4.52,25.68,25.68,0,0,1-8.8,4.14c-1.61.41-3.27.48-4.9.73a9.12,9.12,0,0,1-5-.48,33.18,33.18,0,0,1-3.58-2c7.06-.42,14.93-6.65,19.47-10.87a32,32,0,0,0,3.6-4c-.48-.68-1-1.34-1.5-2a25.71,25.71,0,0,1-4.65,5.07c-5.21,4.51-12.38,9.37-19.46,10-1-.73-2-1.49-2.9-2.3,5.31-2,9.84-5.94,13.54-10.22a26.09,26.09,0,0,0,5.1-8.51c.08-.24.18-.49.28-.76-.57-.33-1.15-.64-1.75-.93a33.05,33.05,0,0,1-5.43,8.92,31.74,31.74,0,0,1-2.36-11.52c-.79-.15-1.58-.28-2.38-.38,0,.33,0,.66,0,1-.11,4.68,1.18,8.71,3,12.93a41.43,41.43,0,0,1-5.5,4.42c-1.19-.87-2-3.16-2.69-4.36a40.59,40.59,0,0,1-2.84-5.48,40.84,40.84,0,0,1-1.74-8.43c-.46.06-.92.12-1.38.2s-.7.14-1.05.21a35.2,35.2,0,0,0,3.17,11.66c1,2.1,2.47,5.75,4.35,7.79a6.87,6.87,0,0,1-1.54.87,6,6,0,0,1-1.84.53c-1.5.1-2.33-1.25-3.22-2.25a38.18,38.18,0,0,1-2.93-3.66,36.08,36.08,0,0,1-5.14-10.1,16.42,16.42,0,0,1-.54-2.45c-.93.41-1.83.85-2.71,1.32a16.24,16.24,0,0,0,.54,2.83,41.3,41.3,0,0,0,6.18,11.86A46.26,46.26,0,0,0,242,377.85a60.17,60.17,0,0,0,26.11,6,35.14,35.14,0,0,0,.63-4.13C267.7,379.75,266.65,379.76,265.6,379.73Z" style="fill:#37474f"></path><path d="M268,384.36a61.19,61.19,0,0,1-29.38-4.06c-11.14-4.49-22.25-14.05-26.62-25.68-.57.54-1.12,1.1-1.64,1.68,1.39,4.87,5,9.55,8.16,12.88,4.91,5.1,10.14,9.91,16.74,12.8,7.18,3.12,14.38,5.24,22.28,5.38a92.92,92.92,0,0,0,9.54-.2,43.46,43.46,0,0,1-12.22,2.25,67.36,67.36,0,0,1-16-2.09,46.41,46.41,0,0,1-22.06-11.41,50.18,50.18,0,0,1-6.87-8.23c-1.16-1.66-2.65-3.47-3.81-5.37-.45.84-.85,1.71-1.22,2.6.33.63.69,1.24,1,1.82.81,1.33,1.73,2.55,2.62,3.81a7.16,7.16,0,0,1,1.63,3.87,16.7,16.7,0,0,1-.57,3.38c-.17,1.06-.38,2.11-.56,3.18a42.43,42.43,0,0,0-.54,6.66A25.81,25.81,0,0,0,211,398.48a33.48,33.48,0,0,0,5.08,4.81c-2.2-5.51-5.21-10.34-4.88-16.71.19-3.66,1.23-7,2.1-10.53l.21.23a52.92,52.92,0,0,0,3.84,3.65c1.07.92,2.28,2,2.12,3.51a18.27,18.27,0,0,1-.89,3.07A24.16,24.16,0,0,0,218,390c-.25,2-.34,4.06-.49,6.09a32.49,32.49,0,0,0,.6,8.63,32.12,32.12,0,0,0,3.56,2,31,31,0,0,1-1.33-10.64,56,56,0,0,1,2.16-12.32,21.1,21.1,0,0,0,2.84,1.68c.69.39,2.48.91,2.76,1.72a.91.91,0,0,1,0,.49,3.46,3.46,0,0,1-.52,1,29.84,29.84,0,0,0-4.66,13.9,39.35,39.35,0,0,0-.23,4.65c1,.44,2,.84,3,1.19a34.71,34.71,0,0,1,0-4.08c4.57,2,11,1.72,15.4.37a33.24,33.24,0,0,0,9.44-4.41,28.52,28.52,0,0,0,8.11-8,32,32,0,0,0,7.08-1.4A34.36,34.36,0,0,0,268,384.36Zm-39.59,9.12c.26-.58.54-1.15.83-1.71a31.75,31.75,0,0,1,2-3.33,2.12,2.12,0,0,0,.11-.21c1.17.44,2.37.83,3.61,1.17,2.51.69,5.13,1.3,7.79,1.77-.22,0-1,.73-1.18.86-.41.29-.84.59-1.28.86a16.87,16.87,0,0,1-2.62,1.4,13.69,13.69,0,0,1-5.52,1.25,10.84,10.84,0,0,1-2.77-.51C228.65,394.82,228.07,394.29,228.43,393.48Zm21.86,3.71a29.5,29.5,0,0,1-8.23,4.2c-4.54,1.52-11.28,2.22-16,0a30,30,0,0,1,.91-4.05c2.31,1.1,5.81,1,7.89.6,3.75-.7,8.86-2.82,11-6.26a61.88,61.88,0,0,0,10.17.55A36.06,36.06,0,0,1,250.29,397.19Z" style="fill:#37474f"></path></g><g id="freepik--yarn--inject-248"><path d="M261.53,431.31c-.23-1.28-2.86-1.65-2.88-.15-.06,4.24.47,9.9-5,10.66-4.37.6-9-.65-13.08-2.19-8.5-3.21-16.33-8.24-25.42-9.74-3.72-.62-7.86-.47-11.16,1.56s-4.32,5.62-3.12,9.22c1.33,4,4.89,7.57,3.41,12.05s-6.21,6.79-10.62,6.8c-6,0-11.78-3.06-16.87-5.89s-9.88-6.92-14.36-10.8c-.8-.69-2.78.19-1.31,1.84,3.69,4.12,8.25,7,13,9.9s9.69,5.47,15,6.66c4.68,1,9.66.75,13.62-2.15,3.44-2.52,5.46-6.65,4.37-10.88-1-3.85-5.41-8.36-3.39-12.48,1.84-3.79,7.25-3.9,10.81-3.31,9.38,1.56,17.38,7.4,26.3,10.39,4.83,1.62,11.11,3.14,16,1.1S262.36,435.94,261.53,431.31Z" style="fill:#92E3A9"></path><path d="M315.9,404.3c3.65,21.1-10.09,41.09-30.67,44.65S245,438.29,241.35,417.19c-3.07-17.76,6.55-32.56,22-38.92A44.2,44.2,0,0,1,277.51,375C296.13,373.92,312.54,384.91,315.9,404.3Z" style="fill:#92E3A9"></path><g style="opacity:0.2"><path d="M312.7,414.68a39.91,39.91,0,0,0,3.73-1.69c0-.83.06-1.67,0-2.51-.15.09-.3.2-.46.29a20.94,20.94,0,0,1-15.42,2.46c-1.09-.23-2.18-.5-3.27-.8A35.68,35.68,0,0,0,308,408.49a26.66,26.66,0,0,0,7.52-6.2,36.31,36.31,0,0,0-1-3.55,24.54,24.54,0,0,1-5.43,5.17A29.47,29.47,0,0,1,299,408.65c-1.84.46-3.75.54-5.61.83a10.38,10.38,0,0,1-5.71-.55,35.81,35.81,0,0,1-4.09-2.24c8.07-.48,17.09-7.61,22.27-12.44a36.66,36.66,0,0,0,4.13-4.54c-.55-.78-1.12-1.54-1.72-2.26a29.89,29.89,0,0,1-5.32,5.81c-6,5.16-14.17,10.72-22.27,11.46-1.13-.83-2.26-1.7-3.32-2.64,6.07-2.26,11.26-6.79,15.49-11.69a30,30,0,0,0,5.84-9.73l.32-.88c-.65-.37-1.32-.73-2-1.06a37.73,37.73,0,0,1-6.21,10.21c-1.61-4.45-2.76-8.43-2.71-13.18-.9-.18-1.8-.33-2.72-.45,0,.38,0,.76-.05,1.14-.13,5.36,1.36,10,3.42,14.8a47.56,47.56,0,0,1-6.29,5.06c-1.36-1-2.32-3.62-3.08-5a46.5,46.5,0,0,1-3.25-6.27c-1.17-3-1.49-6.4-2-9.65-.53.07-1.05.13-1.58.22s-.8.17-1.2.25A40.32,40.32,0,0,0,275,389.2c1.15,2.41,2.82,6.58,5,8.91a8.35,8.35,0,0,1-1.76,1,6.59,6.59,0,0,1-2.11.59c-1.72.12-2.67-1.42-3.69-2.56a46.22,46.22,0,0,1-3.35-4.19,41.45,41.45,0,0,1-5.89-11.57,21.28,21.28,0,0,1-.61-2.79c-1.06.46-2.1,1-3.1,1.5a17.8,17.8,0,0,0,.61,3.24,47.38,47.38,0,0,0,7.08,13.57,52.93,52.93,0,0,0,18.57,15.63,68.8,68.8,0,0,0,29.88,6.88,39,39,0,0,0,.72-4.74C315.1,414.71,313.9,414.72,312.7,414.68Z"></path><path d="M315.46,420a69.94,69.94,0,0,1-33.62-4.64c-12.74-5.14-25.46-16.08-30.46-29.39-.65.62-1.28,1.26-1.88,1.92,1.59,5.58,5.68,10.94,9.34,14.74,5.63,5.84,11.6,11.35,19.16,14.65,8.21,3.58,16.45,6,25.49,6.17a108.59,108.59,0,0,0,10.92-.24,49.6,49.6,0,0,1-14,2.58,77.37,77.37,0,0,1-18.29-2.39,53.14,53.14,0,0,1-25.24-13.07A57.69,57.69,0,0,1,249,400.9c-1.32-1.9-3-4-4.36-6.15-.51,1-1,2-1.39,3,.38.72.78,1.41,1.19,2.09.92,1.51,2,2.92,3,4.35a8.23,8.23,0,0,1,1.86,4.43,19.22,19.22,0,0,1-.65,3.86c-.19,1.22-.44,2.43-.64,3.64a47.59,47.59,0,0,0-.62,7.63,29.79,29.79,0,0,0,2.82,12.42,39.27,39.27,0,0,0,5.82,5.5c-2.51-6.31-6-11.83-5.58-19.12.22-4.19,1.41-8.06,2.4-12a3,3,0,0,0,.24.26q2.1,2.2,4.39,4.18c1.23,1.05,2.61,2.24,2.43,4a22.24,22.24,0,0,1-1,3.5,28.79,28.79,0,0,0-.72,4c-.29,2.32-.38,4.65-.56,7a37,37,0,0,0,.69,9.88,38.92,38.92,0,0,0,4.07,2.33,35.44,35.44,0,0,1-1.52-12.18,63.85,63.85,0,0,1,2.48-14.1,22.54,22.54,0,0,0,3.24,1.93c.79.44,2.84,1,3.16,2a1,1,0,0,1,0,.56,3.77,3.77,0,0,1-.6,1.16,34.28,34.28,0,0,0-5.33,15.89,46.64,46.64,0,0,0-.26,5.33,35.65,35.65,0,0,0,3.47,1.36,38.12,38.12,0,0,1,0-4.66c5.22,2.34,12.64,2,17.62.41a38.19,38.19,0,0,0,10.8-5,32.69,32.69,0,0,0,9.28-9.17,35.57,35.57,0,0,0,8.1-1.6A38.5,38.5,0,0,0,315.46,420Zm-45.3,10.44c.3-.65.61-1.31.95-2a36.31,36.31,0,0,1,2.27-3.8,1.92,1.92,0,0,0,.12-.25c1.35.51,2.72.95,4.13,1.35,2.88.79,5.87,1.48,8.91,2-.25,0-1.13.83-1.34,1-.48.34-1,.68-1.46,1a21.58,21.58,0,0,1-3,1.6,15.76,15.76,0,0,1-6.32,1.44,12.59,12.59,0,0,1-3.17-.59C270.41,432,269.75,431.35,270.16,430.42Zm25,4.25a33.61,33.61,0,0,1-9.41,4.8c-5.2,1.75-12.92,2.55-18.27,0a35.79,35.79,0,0,1,1-4.65c2.65,1.27,6.65,1.14,9,.69,4.29-.8,10.15-3.22,12.55-7.16a70.76,70.76,0,0,0,11.63.63A40.86,40.86,0,0,1,295.17,434.67Z"></path></g></g></g><g id="freepik--cat-2--inject-248"><g id="freepik--Cat--inject-248"><g id="freepik--Tail--inject-248"><path d="M115.44,330.23c-11.7-3.16-25.13-9.59-30.9-14.88S75.29,302.07,77,294.54c.14-.63.47-1.38,1.12-1.43a1.68,1.68,0,0,1,1.09.54l3.27,2.86a43.92,43.92,0,0,1-1.63-29.07,5.75,5.75,0,0,0,1,1.83,3,3,0,0,0,3,1.17,4.38,4.38,0,0,0,1.86-1.22L90,266.14A30,30,0,0,0,91.13,275a4.42,4.42,0,0,0,1.41,2.47c1.17.83,2.83.41,4.07-.33,3-1.76,4.76-4.93,7.29-7.27a1.72,1.72,0,0,1,.74-.45c.54-.09,1,.35,1.41.7a6.34,6.34,0,0,0,6.4.74c.42-.19.83-.41,1.23-.64A85.17,85.17,0,0,0,106,281.88C98.33,297.05,104.39,318.65,115.44,330.23Z" style="fill:#455a64"></path><path d="M105,326c.6.49,1.27,1,2,1.52,2.74,1,5.57,2,8.42,2.75a49.13,49.13,0,0,1-11.71-22.72c-2-8.78-1.57-18,2.31-25.63a.31.31,0,0,1,0-.1c.36-.71.75-1.39,1.14-2.08l.3-.52c.41-.68.83-1.36,1.27-2l.24-.36c.43-.65.86-1.3,1.31-1.94a1.27,1.27,0,0,0,.13-.19c.5-.71,1-1.41,1.51-2.11l.44-.6.4-.56.84-1.15c-.4.23-.8.45-1.22.64a6.34,6.34,0,0,1-6.4-.74c-.41-.35-.87-.79-1.41-.7a1.72,1.72,0,0,0-.74.45c-2,1.84-3.55,4.2-5.56,6-.06.35-.14.7-.2,1.05C95,295.56,95.27,317.93,105,326Z" style="fill:#37474f"></path><path d="M123.3,242.87a31.34,31.34,0,0,0-9.14-19.94,5.07,5.07,0,0,0-2.48-1.57,13.91,13.91,0,0,1,.74,11.49,36.93,36.93,0,0,0-5.84-10.3,18.17,18.17,0,0,0-9.88-6.23c-5.42-1.11-12.1-.93-15.22,4.4,4.39-1.09,9.23.49,13,7.84,2.72,5.24.77,12.25-2,17.48s-7.3,10.53-9.71,15.92a42.42,42.42,0,0,0-2,5.46,5.75,5.75,0,0,0,1,1.85,3,3,0,0,0,3,1.17,4.58,4.58,0,0,0,1.85-1.21L90,266.14A29.61,29.61,0,0,0,91.13,275a4.36,4.36,0,0,0,1.41,2.46c1.18.84,2.83.41,4.07-.32,3-1.76,4.76-4.93,7.29-7.26a1.55,1.55,0,0,1,.74-.45c.53-.09,1,.34,1.41.68a6.32,6.32,0,0,0,6.4.75,13,13,0,0,0,1.23-.64c1.66-2.28,3.3-4.57,4.77-7A36,36,0,0,0,123.3,242.87Z" style="fill:#ebebeb"></path><path d="M123.3,242.87v0c-.06-.81-.16-1.62-.28-2.43,0-.26-.09-.52-.14-.78-.1-.58-.22-1.16-.36-1.73-.06-.26-.11-.52-.18-.78-.18-.67-.39-1.34-.61-2-14.16,13.7-21,28.09-23.39,40.73,2-1.78,3.56-4.13,5.56-6a1.55,1.55,0,0,1,.74-.45c.53-.09,1,.34,1.41.68a6.32,6.32,0,0,0,6.4.75,13,13,0,0,0,1.23-.64h0q1.06-1.46,2.1-2.94l.57-.81c.72-1.06,1.43-2.13,2.1-3.22a31,31,0,0,0,2.33-4.69A36.57,36.57,0,0,0,123.3,242.87Z" style="fill:#e0e0e0"></path></g><path d="M207.75,285.47c17,7.61,21.21,2.17,30.14-8.54s23-33.93,26.53-35,15.72-2.24,13.77-8.92c-1.74-6-9.95-8.42-19.13-5.62S240.13,242,240.13,242Z" style="fill:#37474f"></path><path d="M272.07,230.22c-.12-.1-.2-.52.06-.49,2.55.32,4.61,2.4,5.76,4.58a8.71,8.71,0,0,1,.42.94,4.46,4.46,0,0,1-1.48,2.41,11.81,11.81,0,0,0-.37-1.69C275.72,233.56,273.93,231.82,272.07,230.22Z" style="fill:#263238"></path><path d="M270.64,236.47a11.84,11.84,0,0,0-1.3-2.3,6.74,6.74,0,0,0-2.76-2.17c-.26-.11-.25-.74.09-.67a8.77,8.77,0,0,1,4.7,2.62,10.4,10.4,0,0,1,2.38,5.54c-.71.29-1.45.55-2.21.78A12.85,12.85,0,0,0,270.64,236.47Z" style="fill:#263238"></path><path d="M151.48,334.73c9.39,4.43,26,3,32.54-9.24s4.4-55.68-12.72-61.3S136.28,316.62,151.48,334.73Z" style="fill:#fafafa"></path><path d="M146.75,324.16l6.9-25.72a26.16,26.16,0,0,0-4.62-7.05c.38-1.35.79-2.68,1.23-4a32.26,32.26,0,0,1,8.49,10c7.75,14.38,2.93,33.28,2.93,33.28s5.66,4.6,16.14-6.1c4.53-4.63,7.57-11,9.56-16.72-.22,7.44-1.4,13.93-3.36,17.6-6.53,12.22-23.15,13.67-32.54,9.24A24.37,24.37,0,0,1,146.75,324.16Z" style="fill:#ebebeb"></path><path d="M225.94,191.11c12.22,16,18.55,45.71,10.78,65.58s-31.49,28.29-37.8,35.77-6,29.88-1.36,44.28c0,0,12.67,3.17,8.92,9.5s-10.65,6.05-15.83,4.61S164.73,335,165.59,280a40.17,40.17,0,0,0-11.94,18.43,44.25,44.25,0,0,1,4,19.1c-.31,9.21-6.14,17.19-6.14,17.19a51.11,51.11,0,0,1,11.52.86c4.9,1.15,6.05,5.47,4.9,8.35s-6.63,5.76-12.1,4.61S121,335.3,111.17,327.24s-10.08-30.52-6.91-49.24,16.12-41.47,48.09-60.18L173,184Z" style="fill:#455a64"></path><path d="M225.94,191.11c2.15.28,5.51,5.63,6.61,7.32a32.85,32.85,0,0,1,4,8.81,63.18,63.18,0,0,1,2.64,13.3,25.07,25.07,0,0,1-2.52,13.59,45.82,45.82,0,0,0-2.38-6.18,21.2,21.2,0,0,1-5.76,20.5c.4-3.45-.55-5.9-2.45-7.65.67,2.07-.45,6-1,8.08a25.35,25.35,0,0,1-3.24,6.63,34.55,34.55,0,0,0-12.38-12.23c-5-3.12-10.33-6.35-13.08-11.57a23.71,23.71,0,0,0,2.72,6.13c-6.05-2.2-17.47-9.05-24.41-24.18S171,184.38,173,184C173,184,225.93,191.1,225.94,191.11Z" style="fill:#f5f5f5"></path><path d="M190.17,203.14c8.3,5.39,20.41,10.1,31.72,6.48,6-1.92,10.22-6.56,11.64-9.56-.21-.37-.43-.74-.66-1.1s-.34-.57-.52-.84l-.16-.24a33.54,33.54,0,0,0-4.87-5.56c-.45-.41-.9-.82-1.37-1.21l-7.54-1-.27,0c-4.55-.6-10.36-.48-14.85-2L203,188c-14.29-1.9-30-4-30-4-2,.34-5.22,14.49,1.73,29.62s18.36,22,24.41,24.18a23.71,23.71,0,0,1-2.72-6.13c2.75,5.22,8.08,8.45,13.08,11.57a34.55,34.55,0,0,1,12.38,12.23l.08-.12a22.77,22.77,0,0,0-3.18-6.83,57,57,0,0,0-9-9.77c-4.64-4.14-9.29-7.4-12.57-12.85A35.73,35.73,0,0,1,193.6,218c-.59-1.91-2.23-6.34-1.47-8.28a28.51,28.51,0,0,0-1.7,13.78,25.71,25.71,0,0,1-9.6-12.84,44.66,44.66,0,0,1-2.25-16A96.08,96.08,0,0,0,190.17,203.14Z" style="fill:#e0e0e0"></path><path d="M176.89,182.84s-3.11,2.18-2,6.89c0,.47,11.73,20.85,41.76,18.12,19-1.73,18.53-15.17,18.53-15.17l-3.58-6.11Z" style="fill:#92E3A9"></path><path d="M134.86,280s12.64,2.36,20.92,12.88a36,36,0,0,0-2.13,5.52C149.32,288.13,134.86,280,134.86,280Z" style="fill:#37474f"></path><path d="M161.35,284.34h0c.68-17.43,7.8-26,7.8-26s-3.22,6.87-3.56,21.71A35.84,35.84,0,0,0,161.35,284.34Z" style="fill:#37474f"></path><path d="M196.47,332.93s.67,2.5,1.09,3.81A12.08,12.08,0,0,0,187,339.4S184.78,333.83,196.47,332.93Z" style="fill:#37474f"></path><path d="M144.08,339.4a15.44,15.44,0,0,0,7.4-4.67,61.09,61.09,0,0,1,6.84.16C153.29,341,144.08,339.4,144.08,339.4Z" style="fill:#37474f"></path><path d="M194,343.09a.56.56,0,0,1,.29,0,6.72,6.72,0,0,1,2.66.53,6.1,6.1,0,0,1,2.86,3.12,7.37,7.37,0,0,1,.48,3.94c0,.2-.06.39-.1.59a12.55,12.55,0,0,1-2,.39,4.6,4.6,0,0,0,.13-.5,6.25,6.25,0,0,0-.3-3.26,9.41,9.41,0,0,0-4-4.42s-.07-.05-.09-.09a.19.19,0,0,1,0-.18A.27.27,0,0,1,194,343.09Z" style="fill:#263238"></path><path d="M204.21,349a9.94,9.94,0,0,0-.18-2.37,9.48,9.48,0,0,0-2.92-5.16c-.14-.12-.29-.26-.26-.46.12-.56,2.48,1,2.72,1.17a7.09,7.09,0,0,1,2.05,3.26A8.45,8.45,0,0,1,206,347,11,11,0,0,1,204.21,349Z" style="fill:#263238"></path><path d="M156.83,342.16a.52.52,0,0,1,.26-.12,6.91,6.91,0,0,1,2.71-.23,6.09,6.09,0,0,1,3.61,2.21,7.29,7.29,0,0,1,1.43,3,12,12,0,0,1-1.8.86,6.37,6.37,0,0,0-1.06-2.29,9.48,9.48,0,0,0-5-3.14.23.23,0,0,1-.12-.06.15.15,0,0,1,0-.17A.21.21,0,0,1,156.83,342.16Z" style="fill:#263238"></path><path d="M167.17,345.13a9.14,9.14,0,0,0-.8-2.13,9.51,9.51,0,0,0-4.23-4.14c-.17-.08-.35-.18-.38-.38,0-.56,2.65.24,2.94.38a7.09,7.09,0,0,1,2.87,2.56,7.93,7.93,0,0,1,.67,1.21,6.14,6.14,0,0,1-.34,1.31A4.61,4.61,0,0,1,167.17,345.13Z" style="fill:#263238"></path><path d="M177.88,163.79c-4.07-7.14-2.95-23.83,3.08-27.21,5.69-3.2,18.8,13.59,18.8,13.59S189,162.06,177.88,163.79Z" style="fill:#37474f"></path><path d="M184.76,159.5c7.59-4.41,15-9.33,15-9.33s-12.51-16-17.18-13.29C179.63,138.14,176.63,147.5,184.76,159.5Z" style="fill:#ffa8a7"></path><path d="M195.45,150.43a7.36,7.36,0,0,1-3.09-2.83,7.77,7.77,0,0,1-1.44-4.66c-2.82,1.93-4,6.58-4,6.58a4.53,4.53,0,0,1-3.84-4.77c-2.09,2.26-2,7.94,1.57,10.9a10,10,0,0,0,5.69-1C193.56,153.22,195.23,151.56,195.45,150.43Z" style="fill:#f28f8f"></path><path d="M186.84,156.72c-2.69-1.88-4.38-5.86-3.25-8.6,0,0,1.87,2.35,4,2.43,0,0,1.06-7.76,5.36-8.94,0,0-.93,5.1,2.88,7.89C197.06,156.72,186.84,156.72,186.84,156.72Z" style="fill:#455a64"></path><path d="M210.15,146.7c3.76-6.28,14.62-12.45,21.18-7.87,3.7,2.58-3.49,20.93-3.49,20.93S215.53,154.79,210.15,146.7Z" style="fill:#37474f"></path><path d="M215.4,151.82c6.06,4.15,12.44,7.94,12.44,7.94s7.19-18.35,3.49-20.93C228.81,137.64,221.25,140.23,215.4,151.82Z" style="fill:#ffa8a7"></path><path d="M227.08,155.7a7.85,7.85,0,0,1,1.55-2.11c.4-1.16.85-2.52,1.27-4a13.86,13.86,0,0,0-5.92-1.41c-.13-2,1.69-4,1.69-4-2.44-.7-6.48,1.68-7.33,5.8A12.48,12.48,0,0,0,221,154.2c1.34.72,2.56,1.32,3.56,1.79A5.76,5.76,0,0,0,227.08,155.7Z" style="fill:#f28f8f"></path><path d="M219.39,151.4c.81-2.85,3.53-5.47,6-5.31,0,0-1.39,2.29-.92,4.17,0,0,6.38-1.39,8.38,1.93a7.33,7.33,0,0,0-5.51,4.78C221.92,160.12,219.39,151.4,219.39,151.4Z" style="fill:#455a64"></path><path d="M207.61,146.23c9.3,0,13.91,4,19.32,8.83a50.18,50.18,0,0,1,6.85,7.49c2.19,2.9,3.78,5.61,7.44,6.9a4.46,4.46,0,0,1,2,1.06,2.56,2.56,0,0,1,.36,2.4,7.62,7.62,0,0,1-1.28,2.18,3.15,3.15,0,0,1,2,2.53,2,2,0,0,1-2,2.18c1.75.83,2.16,3.11,2.11,5a.75.75,0,0,1-.16.53.72.72,0,0,1-.46.12,19.58,19.58,0,0,0-3.25,0c-2,.43-2.38,3-3.45,4.56a37.26,37.26,0,0,1-4.81,5.68c-3.57,3.44-8,6.26-13,7-14.7,2.22-31.53-2.66-41.93-13.38-.69.81-1.7,1.71-2.67,1.29a2.27,2.27,0,0,1-.91-.88,13.36,13.36,0,0,1-2.27-6.57,7,7,0,0,0-1.92.89,1.64,1.64,0,0,1-2-.15,1.81,1.81,0,0,1-.28-1.21,11.15,11.15,0,0,1,3.15-7.44,6,6,0,0,1-3-1,2.09,2.09,0,0,1-.53-2.82c.73-.87,2.08-.65,3.22-.67,4.36-.07,5.26-4,7.4-6.89a49.09,49.09,0,0,1,8-8.39C191.77,150.38,198.32,146.23,207.61,146.23Z" style="fill:#455a64"></path><path d="M208.88,180.94c7.92-4.55,3.78-24.22,3.78-24.22,4.13,8.59,5.67,18.8,13.85,22.16,7.12,2.92,10.92,5.31,9.19,13.11-3.69,5.4-9.43,10.5-16.21,11.36A55.89,55.89,0,0,1,196.94,201C195.26,192,198.86,186.71,208.88,180.94Z" style="fill:#fafafa"></path><path d="M199.56,172.69a3.5,3.5,0,1,0,4-2.93A3.5,3.5,0,0,0,199.56,172.69Z" style="fill:#fff"></path><path d="M199,172.41a3.5,3.5,0,1,0,4-2.93A3.49,3.49,0,0,0,199,172.41Z" style="fill:#263238"></path><path d="M200.55,169.86a13,13,0,0,1-2.15.9,2,2,0,0,1-2.09-.66,2.86,2.86,0,0,0,1.46,1.94,2.89,2.89,0,0,0,2.44.07c.51-.22.95-.6,1.48-.8a3.82,3.82,0,0,1,1.47-.18c.29,0,.69-.06.71-.35,0-.5-.7-1.07-1.13-1.19A3.45,3.45,0,0,0,200.55,169.86Z" style="fill:#263238"></path><path d="M202.41,172a1,1,0,1,1-1-1A1,1,0,0,1,202.41,172Z" style="fill:#fafafa"></path><path d="M227.37,167.61a13,13,0,0,0,2.3.38,2,2,0,0,0,1.89-1.13,2.9,2.9,0,0,1-1,2.23,2.83,2.83,0,0,1-2.35.63c-.56-.1-1.07-.36-1.63-.43a3.75,3.75,0,0,0-1.48.16c-.28.07-.67.1-.77-.17-.16-.48.43-1.21.83-1.43A3.44,3.44,0,0,1,227.37,167.61Z" style="fill:#263238"></path><path d="M223.87,170.57a3.23,3.23,0,1,0,3.68-2.7A3.23,3.23,0,0,0,223.87,170.57Z" style="fill:#fff"></path><path d="M223.32,170.31a3.22,3.22,0,1,0,3.67-2.7A3.22,3.22,0,0,0,223.32,170.31Z" style="fill:#263238"></path><path d="M226.5,169.92a1,1,0,1,1-1-1A1,1,0,0,1,226.5,169.92Z" style="fill:#fafafa"></path><path d="M196.47,186l.05,0a.57.57,0,0,0,.16-.77c-1.66-2.78-4.77-6-10.12-5.33a.56.56,0,0,0,.14,1.11c4.8-.57,7.59,2.3,9.09,4.81A.52.52,0,0,0,196.47,186Z" style="fill:#263238"></path><path d="M195,187.29a.42.42,0,0,0,.15-.11.58.58,0,0,0,0-.79,9.34,9.34,0,0,0-7.35-2.24.57.57,0,0,0,.21,1.11,8.2,8.2,0,0,1,6.41,1.93A.51.51,0,0,0,195,187.29Z" style="fill:#263238"></path><path d="M195.19,189.6a.57.57,0,0,0,.22-.26.59.59,0,0,0-.28-.74,10.72,10.72,0,0,0-9.91.8.58.58,0,0,0-.18.77.52.52,0,0,0,.72.21h0a9.7,9.7,0,0,1,8.94-.76A.51.51,0,0,0,195.19,189.6Z" style="fill:#263238"></path><path d="M237.36,181.33l-.05,0a.57.57,0,0,1-.1-.78c1.85-2.66,5.17-5.62,10.46-4.62a.54.54,0,0,1,.41.65.55.55,0,0,1-.62.46c-4.75-.91-7.74,1.76-9.4,4.16A.53.53,0,0,1,237.36,181.33Z" style="fill:#263238"></path><path d="M238.76,182.76a.49.49,0,0,1-.13-.12.59.59,0,0,1,.07-.79,9.33,9.33,0,0,1,7.48-1.72.55.55,0,0,1,.37.68.54.54,0,0,1-.65.41,8.26,8.26,0,0,0-6.53,1.48A.5.5,0,0,1,238.76,182.76Z" style="fill:#263238"></path><path d="M238.39,185.05a.51.51,0,0,1-.2-.27.58.58,0,0,1,.32-.72,10.75,10.75,0,0,1,9.84,1.49.57.57,0,0,1,.12.78.53.53,0,0,1-.73.16h0a9.67,9.67,0,0,0-8.86-1.38A.51.51,0,0,1,238.39,185.05Z" style="fill:#263238"></path><path d="M212.4,192.36a8.87,8.87,0,0,1-2.18-.28.65.65,0,0,1-.46-.79.64.64,0,0,1,.78-.46,6,6,0,0,0,5.24-.85,7,7,0,0,0,2.62-5.3.65.65,0,0,1,.63-.62h0a.65.65,0,0,1,.64.6,5.89,5.89,0,0,0,2.52,4.16,4,4,0,0,0,3.85.12.64.64,0,0,1,.5,1.18,5.25,5.25,0,0,1-5-.2,6.74,6.74,0,0,1-2.35-2.6,7.93,7.93,0,0,1-2.64,3.68A6.76,6.76,0,0,1,212.4,192.36Z" style="fill:#263238"></path><path d="M219.17,186.25c.92-.07,3.12-2.22,3.2-3.72s-7.29-.49-7.3.68C215.06,184.88,218.25,186.31,219.17,186.25Z" style="fill:#f28f8f"></path></g></g><g id="freepik--cat-1--inject-248"><g id="freepik--cat--inject-248"><path d="M309.2,269.37c5.83,58.13-13.29,72.86-18.72,74.55s-12.71,2.21-16.86-4.36,9.12-10.32,9.12-10.32c4.4-15.34-.64-38.94-6-47.77-7.8-12.78-11.67-34.08-5.84-50.64S308.34,240.27,309.2,269.37Z" style="fill:#af6152"></path><path d="M283.73,324.86h0a41.82,41.82,0,0,1-1,4.38,12.78,12.78,0,0,1,11.2,2.47S296.1,325.44,283.73,324.86Z" style="fill:#874c4c"></path><path d="M286.74,335.83a.67.67,0,0,0-.31-.05,7.39,7.39,0,0,0-2.79.64,6.52,6.52,0,0,0-2.92,3.39,7.84,7.84,0,0,0-.39,4.18c0,.21.08.41.13.62a14.28,14.28,0,0,0,2.16.34,4.48,4.48,0,0,1-.16-.52,6.63,6.63,0,0,1,.21-3.45,10.09,10.09,0,0,1,4.07-4.8.22.22,0,0,0,.1-.09.19.19,0,0,0,0-.19A.18.18,0,0,0,286.74,335.83Z" style="fill:#874c4c"></path><path d="M276.11,342.42a10.07,10.07,0,0,1,3-8.05.6.6,0,0,0,.26-.5c-.15-.58-2.59,1.1-2.84,1.33a7.56,7.56,0,0,0-2.06,3.5,8.7,8.7,0,0,0-.3,1.68A12.08,12.08,0,0,0,276.11,342.42Z" style="fill:#874c4c"></path><path d="M392.79,287.39c12.1,3.59,26.58,1.11,36.16-10.52,12-14.57,4.06-34.09-3-47.51-4.5-8.59-10.45-24.09.15-31.41,7.3-5,17.87-1.48,21.66,3.09a4.65,4.65,0,0,0,7.17-5.93c-6.25-7.54-22.25-13-34.12-4.82a22.79,22.79,0,0,0-9.93,18c-.46,7.34,1.84,15.89,6.83,25.42,12.09,23.12,8.08,32.35,4,37.28-9.1,11-24.38,10.64-33.9,3.88a4.65,4.65,0,1,0-5.38,7.59A35.22,35.22,0,0,0,392.79,287.39Z" style="fill:#af6152"></path><path d="M361.35,339.44c-9.91,4.68-27.48,3.14-34.37-9.76s-4.64-58.81,13.44-64.75S377.4,320.31,361.35,339.44Z" style="fill:#ffbda7"></path><path d="M366.34,328.28l-7.29-27.16a28.13,28.13,0,0,1,4.88-7.46c-.4-1.42-.83-2.83-1.29-4.2a34.15,34.15,0,0,0-9,10.58c-8.18,15.19-3.09,35.15-3.09,35.15s-6,4.86-17.05-6.44c-4.78-4.89-8-11.61-10.1-17.66.24,7.85,1.48,14.71,3.55,18.59,6.89,12.9,24.46,14.44,34.37,9.76A25.64,25.64,0,0,0,366.34,328.28Z" style="fill:#f0997a"></path><path d="M282.7,187.75c6.92,15.07-18.69,34.9-12.13,64.31,4.91,22,30,35.37,36.66,43.28s10.32,31,5.45,46.22c0,0-13.38,3.35-9.42,10S314.51,358,320,356.47s27.38-16.73,26.46-74.82a42.3,42.3,0,0,1,12.61,19.47,46.86,46.86,0,0,0-4.19,20.16c.34,9.73,6.49,18.16,6.49,18.16a53.72,53.72,0,0,0-12.17.91c-5.17,1.21-6.39,5.78-5.17,8.82s7,6.08,12.77,4.86,33.53-6.63,47.14-22.5,13.35-37.26,9.12-54.31C408.21,257.76,395.22,236,360.43,216c-15-8.64-22.44-21.81-23-35Z" style="fill:#c8856a"></path><path d="M349.82,224.51c0,.26,0,.52-.05.78-.27,2.74-1.15,5.84-.8,8.46.77,5.8,5.54-.2,6.93-2.34,2.55-3.92,3.37-8.44,3.34-13,0-1.06,0-2.12-.08-3.18a49.93,49.93,0,0,1-11.93-10,39.87,39.87,0,0,1,2.27,9.19A58.23,58.23,0,0,1,349.82,224.51Z" style="fill:#af6152"></path><path d="M368.19,225a50.19,50.19,0,0,1,1.07,16.66,3.17,3.17,0,0,0,.34,2.34c1.29,1.63,4.56-2.86,5.16-3.86a21.62,21.62,0,0,0,2.67-9.2,28.46,28.46,0,0,0,.08-3.79q-5-3.78-10.89-7.49A49.5,49.5,0,0,1,368.19,225Z" style="fill:#af6152"></path><path d="M384.34,232.67a62,62,0,0,1,2,15.87c0,2.05-1.29,8.72,2.79,5.7,3.51-2.6,5.26-7,5.47-11.49A110.37,110.37,0,0,0,384.34,232.67Z" style="fill:#af6152"></path><path d="M281.16,204.62a62.56,62.56,0,0,0,15.5,5c20.12,3.12,38.52-6.82,43.24-16.61a38.52,38.52,0,0,1-2.51-12h0l-54.68,6.76a8.46,8.46,0,0,1,.43,1.09C284.8,193.59,283.51,198.8,281.16,204.62Z" style="fill:#af6152"></path><path d="M283.31,191.46l-.91,7.88s4.42,5,18.67,5.63,29.18-3.87,38.11-15.76L337,180.33Z" style="fill:#92E3A9"></path><path d="M283.31,191.46l-.91,7.88s4.42,5,18.67,5.63,29.18-3.87,38.11-15.76L337,180.33Z" style="opacity:0.30000000000000004"></path><path d="M305.93,209.61a6.3,6.3,0,1,1-6.3-6.29A6.3,6.3,0,0,1,305.93,209.61Z" style="fill:#f5f5f5"></path><path d="M378.9,281.68s-13.35,2.49-22.09,13.6a37.29,37.29,0,0,1,2.24,5.84C363.63,290.22,378.9,281.68,378.9,281.68Z" style="fill:#af6152"></path><path d="M338.59,333.91a150.59,150.59,0,0,0,10.6-54.27c-.71-18.41-6.5-20.92-6.5-20.92s3.4,7.25,3.75,22.93C346.44,281.65,346.29,300.53,338.59,333.91Z" style="fill:#af6152"></path><path d="M313.81,337.22h0a40.48,40.48,0,0,1-1.13,4.34,12.76,12.76,0,0,1,11.12,2.81S326.15,338.17,313.81,337.22Z" style="fill:#af6152"></path><path d="M369.16,344.37a16.23,16.23,0,0,1-7.81-4.93,63.71,63.71,0,0,0-7.22.17C359.44,346.11,369.16,344.37,369.16,344.37Z" style="fill:#af6152"></path><path d="M316.48,348.27a.45.45,0,0,0-.3,0,7.11,7.11,0,0,0-2.81.55,6.49,6.49,0,0,0-3,3.3,7.82,7.82,0,0,0-.51,4.17c0,.2.06.41.1.61a14.33,14.33,0,0,0,2.15.42c0-.18-.1-.35-.14-.53a6.76,6.76,0,0,1,.31-3.45,10.12,10.12,0,0,1,4.22-4.67.22.22,0,0,0,.1-.09.19.19,0,0,0,0-.18A.18.18,0,0,0,316.48,348.27Z" style="fill:#af6152"></path><path d="M305.66,354.53a10.1,10.1,0,0,1,3.28-7.95.58.58,0,0,0,.27-.49c-.13-.59-2.62,1-2.88,1.24a7.54,7.54,0,0,0-2.16,3.44,8.57,8.57,0,0,0-.36,1.67A11.84,11.84,0,0,0,305.66,354.53Z" style="fill:#af6152"></path><path d="M355.7,347.29a.56.56,0,0,0-.28-.13,7.44,7.44,0,0,0-2.85-.25,6.47,6.47,0,0,0-3.82,2.34,7.79,7.79,0,0,0-1.51,3.21,11.91,11.91,0,0,0,1.9.91,6.67,6.67,0,0,1,1.12-2.42,10.05,10.05,0,0,1,5.34-3.32.2.2,0,0,0,.12-.06.17.17,0,0,0,0-.18A.21.21,0,0,0,355.7,347.29Z" style="fill:#af6152"></path><path d="M344.77,350.42a10.45,10.45,0,0,1,.85-2.24,10,10,0,0,1,4.47-4.38c.17-.08.37-.19.4-.4,0-.6-2.8.26-3.11.4a7.58,7.58,0,0,0-3,2.7,9.37,9.37,0,0,0-.7,1.28,6.3,6.3,0,0,0,.36,1.39A5,5,0,0,0,344.77,350.42Z" style="fill:#af6152"></path><path d="M306.51,267.91s-1.66,20,3.55,32h0a21,21,0,0,0-2.83-4.62,43.25,43.25,0,0,0-5.14-4.8A67.7,67.7,0,0,1,306.51,267.91Z" style="fill:#af6152"></path><path d="M288.89,144.54c-2.31-5.56-8.65-12.37-14.7-10.23-3.41,1.21-.29,16.92-.29,16.92S277.94,145.35,288.89,144.54Z" style="fill:#af6152"></path><path d="M274.19,134.31c2-.35,6.7,2.71,9,11.22-6.69,1.92-9.31,5.7-9.31,5.7S270.78,135.52,274.19,134.31Z" style="fill:#ffa8a7"></path><path d="M281.87,146c-5.7,2-8,5.27-8,5.27a82.29,82.29,0,0,1-1.15-8.22,12.69,12.69,0,0,1,5.12.13,5.33,5.33,0,0,0-.44-3.48C279.4,139.64,281.92,142.7,281.87,146Z" style="fill:#f28f8f"></path><path d="M280.74,146.38c0-2.38-1.56-4.79-3.48-5.18a5.21,5.21,0,0,1-.18,3.41s-5.35-2-7.6.12a9,9,0,0,1,4.42,6.5A18.86,18.86,0,0,1,280.74,146.38Z" style="fill:#af6152"></path><path d="M301.85,133.54c-1.26-.83-2.81-1.7-4.2-1.11a.78.78,0,0,0-.41.32c-.17.32.05.69.16,1a2.27,2.27,0,0,1-.94,2.36c-1.77,1.34-4.45,1.92-6.49,2.78a42.77,42.77,0,0,0-6.75,3.59,39.75,39.75,0,0,0-7.84,6.74c-2.31,2.6-3.87,5.56-5.81,8.38a29,29,0,0,0-5,14.19,1.62,1.62,0,0,0,.17,1.07,1.12,1.12,0,0,0,1.28.28,3.33,3.33,0,0,0,1.1-.84c-.36,2.48-.71,5.12.27,7.43a1.36,1.36,0,0,0,.42.6c.65.48,1.49-.29,1.93-1,5,9.07,13.18,16.54,23.6,18.65a50.2,50.2,0,0,0,12.53.93,47.8,47.8,0,0,0,22-6.66,26.36,26.36,0,0,0,7.84-6.49,20.41,20.41,0,0,0,3.1-5.13,17.16,17.16,0,0,0,1-5.4c.9,1.18,3,.69,3.75-.58a6.09,6.09,0,0,0,.39-4.34,32.9,32.9,0,0,0-3.41-9.75,51.07,51.07,0,0,0-13.09-15.56,48,48,0,0,0-8.72-5.58,42.16,42.16,0,0,0-4.81-2c-1.12-.4-3.05-.85-3.15-2.31-.06-.88.51-1.94-.12-2.55a1.76,1.76,0,0,0-1.3-.32c-1.24,0-2.67.14-3.42,1.13a3,3,0,0,1-.11-1.52,1.35,1.35,0,0,0-.58-1.33,1.27,1.27,0,0,0-.84,0A3.49,3.49,0,0,0,301.85,133.54Z" style="fill:#c8856a"></path><path d="M293.38,148.2a21.42,21.42,0,0,1,.9-10.87c-1.43.6-3,1-4.31,1.59-.5.21-1,.44-1.5.67a14.11,14.11,0,0,0,.79,6.93,7.73,7.73,0,0,0,1,1.55c1,1.29,2.51,2.61,3.13,1.06A1.73,1.73,0,0,0,293.38,148.2Z" style="fill:#af6152"></path><path d="M308.84,132.3a3.73,3.73,0,0,0-2.94,1.11,3,3,0,0,1-.11-1.52,1.35,1.35,0,0,0-.58-1.33,1.27,1.27,0,0,0-.84,0,3.49,3.49,0,0,0-2.52,3,12.5,12.5,0,0,0-1.47-.85,27.24,27.24,0,0,0-2,5.06,39.81,39.81,0,0,0-1.45,10,14.87,14.87,0,0,0,1.15,6.33c.1.21.24.44.46.47s.47-.21.61-.44a13.07,13.07,0,0,0,1.24-2.9c2.07-6.27,3.55-13,7.8-18.06A10.61,10.61,0,0,0,308.84,132.3Z" style="fill:#af6152"></path><path d="M307.19,149.14c.47.24,1-.17,1.38-.54.81-.81,1.46-1.85,2.23-2.72s1.73-1.9,2.65-2.8a53.21,53.21,0,0,1,4.56-3.92,42.44,42.44,0,0,0-4.12-1.7,9.94,9.94,0,0,1-2.32-1,21,21,0,0,0-3.12,4.63,15.85,15.85,0,0,0-1.74,6.82C306.71,148.39,306.78,148.93,307.19,149.14Z" style="fill:#af6152"></path><path d="M322.7,170.43l-.05,0a.64.64,0,0,1-.18-.85c1.83-3.07,5.25-6.57,11.14-5.87a.59.59,0,0,1,.5.68.61.61,0,0,1-.65.55c-5.28-.63-8.36,2.52-10,5.28A.57.57,0,0,1,322.7,170.43Z" style="fill:#263238"></path><path d="M324.35,171.89a.61.61,0,0,1-.16-.12.65.65,0,0,1,0-.87,10.21,10.21,0,0,1,8.09-2.46.62.62,0,0,1-.23,1.21,9.08,9.08,0,0,0-7.06,2.13A.55.55,0,0,1,324.35,171.89Z" style="fill:#263238"></path><path d="M324.11,174.43a.61.61,0,0,1-.24-.28.65.65,0,0,1,.3-.82,11.84,11.84,0,0,1,10.92.89.63.63,0,0,1,.19.84.58.58,0,0,1-.79.24h0a10.63,10.63,0,0,0-9.84-.84A.55.55,0,0,1,324.11,174.43Z" style="fill:#263238"></path><path d="M274,170.47l.05,0a.63.63,0,0,0,.17-.85c-1.86-3-5.31-6.52-11.19-5.76a.59.59,0,0,0-.49.68.59.59,0,0,0,.65.54c5.28-.67,8.38,2.45,10.06,5.2A.56.56,0,0,0,274,170.47Z" style="fill:#263238"></path><path d="M272.36,172a.61.61,0,0,0,.15-.13.64.64,0,0,0,0-.87,10.25,10.25,0,0,0-8.11-2.39.61.61,0,0,0-.44.73.6.6,0,0,0,.69.49,9,9,0,0,1,7.07,2.06A.58.58,0,0,0,272.36,172Z" style="fill:#263238"></path><path d="M272.61,174.49a.56.56,0,0,0,.24-.28.64.64,0,0,0-.31-.82,11.85,11.85,0,0,0-10.91,1,.64.64,0,0,0-.18.85.57.57,0,0,0,.79.22h0a10.63,10.63,0,0,1,9.83-.92A.55.55,0,0,0,272.61,174.49Z" style="fill:#263238"></path><path d="M308.73,162a3.8,3.8,0,1,0,4.58-2.81A3.8,3.8,0,0,0,308.73,162Z" style="fill:#fff"></path><path d="M309.1,162.44a3.8,3.8,0,1,0,4.59-2.81A3.8,3.8,0,0,0,309.1,162.44Z" style="fill:#263238"></path><path d="M314.3,162.41a1.14,1.14,0,1,1-1-1.23A1.15,1.15,0,0,1,314.3,162.41Z" style="fill:#fafafa"></path><path d="M282.5,161a3.51,3.51,0,1,0,4.23-2.59A3.51,3.51,0,0,0,282.5,161Z" style="fill:#fff"></path><path d="M283,161.31a3.51,3.51,0,1,0,4.23-2.59A3.51,3.51,0,0,0,283,161.31Z" style="fill:#263238"></path><path d="M287.62,161.54a1,1,0,1,1-1-1.13A1,1,0,0,1,287.62,161.54Z" style="fill:#fafafa"></path><path d="M305.87,181.47a8.23,8.23,0,0,1-4.43-1.26,9.8,9.8,0,0,1-3.59-4.21,8,8,0,0,1-2.59,3.39,6.42,6.42,0,0,1-6.09.77.78.78,0,0,1-.5-1,.78.78,0,0,1,1-.5,4.91,4.91,0,0,0,4.67-.54,7.23,7.23,0,0,0,2.65-5.32.78.78,0,0,1,1.56-.11,8.58,8.58,0,0,0,3.73,6.18,7.33,7.33,0,0,0,6.47.51.78.78,0,0,1,1,.48.78.78,0,0,1-.48,1A10.38,10.38,0,0,1,305.87,181.47Z" style="fill:#263238"></path><path d="M297.77,174.69c-1.12,0-4-2.39-4.28-4.2s8.83-1.34,9,.09C302.64,172.6,298.89,174.67,297.77,174.69Z" style="fill:#37474f"></path><path d="M320.13,142.86c3.67-5.88,12.15-12.42,18.61-8.85,3.64,2-2.85,19.26-2.85,19.26S332,146.67,320.13,142.86Z" style="fill:#af6152"></path><path d="M338.74,134c-2.24-.78-8.49,2-12.73,11.24a30.19,30.19,0,0,1,9.88,8S342.38,136,338.74,134Z" style="fill:#ffa8a7"></path><path d="M327.47,146c6,3.83,8.42,7.24,8.42,7.24s1.68-4.46,2.85-9.11a14.69,14.69,0,0,0-5.84-.82c-.32-1.84,1.16-3.87,1.16-3.87C331.82,139.08,328,142.32,327.47,146Z" style="fill:#f28f8f"></path><path d="M328.26,146.66c.47-2.7,3.44-5.32,5.7-5.41,0,0-1.06,2.23-.44,3.9,0,0,6.45-1.27,8.6,1.58a11.74,11.74,0,0,0-6.17,6.93A56,56,0,0,0,328.26,146.66Z" style="fill:#af6152"></path></g></g><g id="freepik--kitten-2--inject-248"><g id="freepik--cat--inject-248"><path d="M348,367.29c3.66,35.09-8.34,44-11.74,45s-8,1.33-10.58-2.63,5.72-6.23,5.72-6.23c2.76-9.26-.4-23.51-3.78-28.84-4.9-7.71-7.32-20.57-3.66-30.56S347.47,349.73,348,367.29Z" style="fill:#37474f"></path><path d="M332,400.79h0a24.21,24.21,0,0,1-.62,2.64,8.22,8.22,0,0,1,7,1.49S339.79,401.13,332,400.79Z" style="fill:#263238"></path><path d="M333.92,407.4a.41.41,0,0,0-.19,0,4.6,4.6,0,0,0-1.76.39,3.92,3.92,0,0,0-1.83,2,4.62,4.62,0,0,0-.24,2.52c0,.13.05.25.08.37a7.74,7.74,0,0,0,1.35.21,2.8,2.8,0,0,1-.09-.31,3.82,3.82,0,0,1,.13-2.09,6.11,6.11,0,0,1,2.55-2.89.2.2,0,0,0,.07-.06s0-.07,0-.11Z" style="fill:#263238"></path><path d="M327.25,411.38a5.89,5.89,0,0,1,.07-1.51,6,6,0,0,1,1.83-3.34.37.37,0,0,0,.17-.31c-.1-.35-1.63.67-1.79.8a4.62,4.62,0,0,0-1.29,2.12,5,5,0,0,0-.19,1A7,7,0,0,0,327.25,411.38Z" style="fill:#263238"></path><path d="M411.61,386.46c7-2.66,12.44-7.58,17-13.37,1-1.22,1.9-2.46,2.76-3.76,9.3-14,7.64-33.4-4.22-45.33a56.6,56.6,0,0,0-17-11.26c-4.6-2.08-9.05-3.16-12.89-6.52a10.14,10.14,0,0,1-3.06-10.17A22,22,0,0,0,384,310.76a22.84,22.84,0,0,0,6.27,19.69c6.16,6.51,14.47,10.62,20.22,17.36,5.26,6.18,7.4,14.83,4.57,22.57a21.3,21.3,0,0,1-14.15,12.88,4,4,0,0,0-2.05,1c-.9,1-.32,2.77.82,3.51a6.19,6.19,0,0,0,4,.6A30.46,30.46,0,0,0,411.61,386.46Z" style="fill:#37474f"></path><path d="M384,310.76a22.84,22.84,0,0,0,6.27,19.69c.88.93,1.81,1.81,2.76,2.65a18,18,0,0,1-2.51-6.18c.28,1.39,7.81,5.82,8.12,4.63a1.17,1.17,0,0,0-.14-.73c-1.15-2.62-2.76-4.82-3.38-7.64,4,1.53,7.62,4.25,11.83,5.25.27.07.63.09.76-.16a.63.63,0,0,0,0-.43,8.42,8.42,0,0,0-1.18-2.36,55.85,55.85,0,0,0-5.69-7.32,52.37,52.37,0,0,1,8.07,3.57c1.16.64,2.46,1.33,3.72.94a9.48,9.48,0,0,0-3.49-6.15A75.89,75.89,0,0,1,426,322.9a58.51,58.51,0,0,0-15.85-10.16c-4.6-2.08-9.05-3.16-12.89-6.52a10.14,10.14,0,0,1-3.06-10.17A22,22,0,0,0,384,310.76Z" style="fill:#f5f5f5"></path><path d="M382.35,400.59c-6.22,2.82-17.24,1.9-21.56-5.9s-4.54-26.5,6.81-30.08S392.42,389,382.35,400.59Z" style="fill:#455a64"></path><path d="M385.48,393.85l-4.57-16.4A16.93,16.93,0,0,1,384,373c-.25-.85-.52-1.7-.81-2.53a20.64,20.64,0,0,0-5.62,6.39c-5.14,9.16-2,21.21-2,21.21s-3.75,2.94-10.69-3.89a28.75,28.75,0,0,1-6.34-10.65c.15,4.74.93,8.87,2.23,11.21,4.32,7.8,15.34,8.72,21.56,5.9A15.26,15.26,0,0,0,385.48,393.85Z" style="fill:#37474f"></path><path d="M331.39,318c4.34,9.09-11.73,21.07-7.61,38.82,3.08,13.28,18.81,21.35,23,26.12s6.47,18.73,3.42,27.91c0,0-8.4,2-5.92,6.06s7.06,3.85,10.5,2.93,17.17-10.09,16.6-45.16c0,0,7.33-4.59,9.53,2.75a27.5,27.5,0,0,0-2.63,12.18c.21,5.87,4.07,11,4.07,11a34.73,34.73,0,0,0-7.63.55c-3.25.73-4,3.48-3.25,5.32s4.39,3.67,8,2.94,21-4,29.57-13.59,11.93-25.6,6.73-34.95C409,348.61,402.91,344.5,380.15,334c-9.8-4.54-14.08-12.09-14.46-20Z" style="fill:#455a64"></path><path d="M323.66,346.28a7.29,7.29,0,0,1,2.13-1.62,11.57,11.57,0,0,0-.19,8.37A22.65,22.65,0,0,0,327,356a9.93,9.93,0,0,1,.72-2.72c-.36,1.26.32,3.6.69,4.57a35.07,35.07,0,0,0,9.14,12.69,8.15,8.15,0,0,1,1-8.92c.15,1.06.29,2.12.44,3.17,2.29-1.06,3.44-3.2,4.73-5.16.77-1.18,2.47-5.54,1-6.76a4.9,4.9,0,0,1,1.8,3.33c.05.56.22,1.33.79,1.28a1,1,0,0,0,.54-.3c5.93-5.31,8.63-15.68,2.16-26-1.43-2.28-19.09-2.79-19.93-2.17-3.07,2.27-3.52,3.17-4.51,4.92a17.84,17.84,0,0,0-2.4,8.86A13.57,13.57,0,0,0,323.66,346.28Z" style="fill:#fafafa"></path><path d="M331.39,318l34.3-4.08a22.64,22.64,0,0,0,2.42,9.1c-2.76,3.22-8.53,5.71-11.57,6.62a46.63,46.63,0,0,1-19.89,1.65,18.67,18.67,0,0,1-2.1-.45,19.52,19.52,0,0,1-4.47-1.88C331.89,324.87,332.94,321.26,331.39,318Z" style="fill:#92E3A9"></path><path d="M393.36,365.72a24.17,24.17,0,0,0-14.23,8.68,8,8,0,0,1,1.78,3.05C383.78,370.88,393.36,365.72,393.36,365.72Z" style="fill:#37474f"></path><path d="M366.45,406.25a103.58,103.58,0,0,0,6.65-32.76c-.45-11.12-4.08-12.63-4.08-12.63s2.14,4.38,2.36,13.84C371.38,374.7,371.28,386.1,366.45,406.25Z" style="fill:#37474f"></path><path d="M350.9,408.24h0a23.54,23.54,0,0,1-.7,2.63,8.18,8.18,0,0,1,7,1.69S358.65,408.82,350.9,408.24Z" style="fill:#37474f"></path><path d="M387.25,403.57a10.34,10.34,0,0,1-4.9-3,42.08,42.08,0,0,0-4.53.1C381.15,404.61,387.25,403.57,387.25,403.57Z" style="fill:#37474f"></path><path d="M352.58,414.91a.4.4,0,0,0-.19,0,4.75,4.75,0,0,0-1.76.34,3.92,3.92,0,0,0-1.9,2,4.54,4.54,0,0,0-.32,2.52c0,.12,0,.24.07.37a8.78,8.78,0,0,0,1.34.25c0-.11-.06-.21-.08-.32a3.89,3.89,0,0,1,.19-2.08,6.18,6.18,0,0,1,2.65-2.82s.05,0,.06-.06a.09.09,0,0,0,0-.11Z" style="fill:#263238"></path><path d="M345.79,418.7a5.94,5.94,0,0,1,2.06-4.8c.08-.08.19-.17.17-.3-.08-.35-1.65.62-1.81.75a4.63,4.63,0,0,0-1.36,2.07,5.06,5.06,0,0,0-.22,1A7.49,7.49,0,0,0,345.79,418.7Z" style="fill:#263238"></path><path d="M378.81,405.33a.3.3,0,0,0-.18-.08,4.7,4.7,0,0,0-1.79-.15,4,4,0,0,0-2.39,1.41,4.58,4.58,0,0,0-.95,1.94,7.67,7.67,0,0,0,1.19.55,4.11,4.11,0,0,1,.7-1.46,6.33,6.33,0,0,1,3.35-2,.11.11,0,0,0,.08,0,.09.09,0,0,0,0-.11A.11.11,0,0,0,378.81,405.33Z" style="fill:#263238"></path><path d="M372,407.22a6.09,6.09,0,0,1,.53-1.36,6.2,6.2,0,0,1,2.81-2.64c.11-.05.23-.11.25-.24,0-.36-1.76.15-2,.24a4.7,4.7,0,0,0-1.9,1.63,4.6,4.6,0,0,0-.44.77,3.24,3.24,0,0,0,.22.84A3.2,3.2,0,0,0,372,407.22Z" style="fill:#263238"></path><path d="M346.33,366.41s-1,12.1,2.22,19.34h0a12.73,12.73,0,0,0-1.77-2.8,27.13,27.13,0,0,0-3.23-2.89A39.51,39.51,0,0,1,346.33,366.41Z" style="fill:#37474f"></path><path d="M369.52,295.18c3-5.82,1.58-19.1-3.34-21.6-4.64-2.37-14.56,11.45-14.56,11.45S360.6,294.16,369.52,295.18Z" style="fill:#37474f"></path><path d="M363.89,292c-6.2-3.28-12.27-7-12.27-7s9.46-13.14,13.28-11.16C367.3,274.78,370,282.15,363.89,292Z" style="fill:#ffa8a7"></path><path d="M355.07,285.09a6,6,0,0,0,2.38-2.35,6.21,6.21,0,0,0,1-3.76c2.31,1.44,3.4,5.11,3.4,5.11a3.6,3.6,0,0,0,2.91-3.92c1.74,1.73,1.86,6.26-.91,8.74a7.92,7.92,0,0,1-4.56-.58C356.67,287.26,355.28,286,355.07,285.09Z" style="fill:#f28f8f"></path><path d="M362.14,289.83c2.09-1.58,3.31-4.81,2.31-7,0,0-1.41,1.93-3.14,2.07,0,0-1.1-6.16-4.56-7,0,0,.91,4-2,6.39C354,290.16,362.14,289.83,362.14,289.83Z" style="fill:#455a64"></path><path d="M343.23,282.59c-3.21-4.89-12.07-9.46-17.16-5.6-2.86,2.18,3.47,16.59,3.47,16.59S339.19,289.22,343.23,282.59Z" style="fill:#37474f"></path><path d="M339.2,286.84c-4.7,3.51-9.66,6.74-9.66,6.74s-6.33-14.41-3.47-16.59C328.05,276,334.16,277.79,339.2,286.84Z" style="fill:#ffa8a7"></path><path d="M330,290.32a6.39,6.39,0,0,0-1.3-1.64c-.36-.91-.76-2-1.15-3.1a11.05,11.05,0,0,1,4.68-1.32,5.27,5.27,0,0,0-1.48-3.17c1.93-.64,5.22,1.13,6,4.39a9.92,9.92,0,0,1-2,3.45c-1.05.61-2,1.13-2.79,1.54A4.85,4.85,0,0,1,330,290.32Z" style="fill:#f28f8f"></path><path d="M336,286.64c-.73-2.25-3-4.25-4.93-4a5.24,5.24,0,0,1,.87,3.29s-5.14-.9-6.62,1.81a5.83,5.83,0,0,1,4.54,3.64C334.26,293.67,336,286.64,336,286.64Z" style="fill:#455a64"></path><path d="M345.23,282.14a17.67,17.67,0,0,0-6.49,1.83,31,31,0,0,0-6.3,3.51,44.76,44.76,0,0,0-8.79,8.1,38.9,38.9,0,0,0-6.31,10.17,6,6,0,0,0-.5,1.93,2.47,2.47,0,0,0,.62,1.85,1.53,1.53,0,0,0,1.83.28,3.07,3.07,0,0,0-.71,1.86,2.05,2.05,0,0,0,.86,1.75,1.53,1.53,0,0,0,1.87-.14,9.27,9.27,0,0,0,.44,2.22,9,9,0,0,0,1.17,2.29c.45.61.92,1.21,1.41,1.79a28.91,28.91,0,0,0,3.33,3.31,15.36,15.36,0,0,0,7.19,3.65c.62.15,3.27.81,3.91.88a35.9,35.9,0,0,0,16.81-2.06,45.85,45.85,0,0,0,7.79-3.61,18.62,18.62,0,0,0,3.41-2.51A6.9,6.9,0,0,0,369,316.3c.25.49.95.45,1.43.2a3.23,3.23,0,0,0,1.24-1.79,7.24,7.24,0,0,0,.39-3,1.89,1.89,0,0,0,2.49-.75,4.72,4.72,0,0,0,.51-2.81,20.47,20.47,0,0,0-3.72-10.78C365.5,289.05,355.67,282.17,345.23,282.14Z" style="fill:#455a64"></path><path d="M345.34,309.86c-6.46-3.37-3.79-19.2-3.79-19.2-3,7-3.93,15.18-10.34,18.12-5.58,2.57-7.71,5.37-7.63,9.88,1.37,3.18,5.72,7.6,14.9,8.92,4.67.67,9.59.39,16.43-2C357.52,317.14,353.51,314.14,345.34,309.86Z" style="fill:#fafafa"></path><path d="M328.43,302.76a2.66,2.66,0,1,0,2.25-3A2.64,2.64,0,0,0,328.43,302.76Z" style="fill:#fff"></path><path d="M328.15,302.62a2.66,2.66,0,1,0,2.25-3A2.65,2.65,0,0,0,328.15,302.62Z" style="fill:#263238"></path><path d="M330.67,302.31a.94.94,0,0,0,1,.93,1,1,0,0,0-.05-1.9A.94.94,0,0,0,330.67,302.31Z" style="fill:#fff"></path><path d="M329.55,301.09a.33.33,0,1,0,.31-.33A.31.31,0,0,0,329.55,301.09Z" style="fill:#fff"></path><path d="M355.4,313.46l0,0a.46.46,0,0,1-.15-.61,8,8,0,0,1,7.89-4.57.43.43,0,0,1,.39.48.44.44,0,0,1-.46.41,7.18,7.18,0,0,0-7.09,4.12A.4.4,0,0,1,355.4,313.46Z" style="fill:#263238"></path><path d="M356.64,314.48a.27.27,0,0,1-.12-.09.46.46,0,0,1,0-.63,7.45,7.45,0,0,1,5.79-2,.44.44,0,0,1,.34.51.42.42,0,0,1-.48.38,6.61,6.61,0,0,0-5.05,1.75A.4.4,0,0,1,356.64,314.48Z" style="fill:#263238"></path><path d="M356.54,316.32a.37.37,0,0,1-.18-.19.45.45,0,0,1,.19-.6,8.57,8.57,0,0,1,7.94.32.47.47,0,0,1,.16.61.42.42,0,0,1-.57.19h0a7.75,7.75,0,0,0-7.16-.32A.37.37,0,0,1,356.54,316.32Z" style="fill:#263238"></path><path d="M323.61,310.07h0a.47.47,0,0,0,.22-.59,8,8,0,0,0-7.3-5.47.43.43,0,0,0-.44.43.44.44,0,0,0,.4.46,7.17,7.17,0,0,1,6.56,4.93A.41.41,0,0,0,323.61,310.07Z" style="fill:#263238"></path><path d="M322.26,310.94a.47.47,0,0,0,.12-.07.47.47,0,0,0,.09-.63,7.44,7.44,0,0,0-5.51-2.69.45.45,0,0,0-.41.47.44.44,0,0,0,.44.43,6.6,6.6,0,0,1,4.81,2.33A.42.42,0,0,0,322.26,310.94Z" style="fill:#263238"></path><path d="M322.14,312.78a.41.41,0,0,0,.2-.17.47.47,0,0,0-.12-.62,8.56,8.56,0,0,0-7.92-.61.45.45,0,0,0-.23.58.41.41,0,0,0,.54.25h0a7.75,7.75,0,0,1,7.15.52A.37.37,0,0,0,322.14,312.78Z" style="fill:#263238"></path><path d="M332.38,317.77a.51.51,0,0,1,.63-.34,3.21,3.21,0,0,0,3-.45,4.77,4.77,0,0,0,1.62-3.15c0-.14,0-.29,0-.43a.54.54,0,0,1,.52-.49.52.52,0,0,1,.51.49,3.89,3.89,0,0,1,0,.48,4.3,4.3,0,0,0,2.68,4.19,4.25,4.25,0,0,0,4.65-.8.52.52,0,0,1,.73,0,.51.51,0,0,1,.05.72,4.58,4.58,0,0,1-3,1.45A5.92,5.92,0,0,1,341,319a5,5,0,0,1-2.93-2.94,5.16,5.16,0,0,1-1.38,1.71,4.19,4.19,0,0,1-4,.62A.51.51,0,0,1,332.38,317.77Z" style="fill:#263238"></path><path d="M338.2,315.06c-.89,0-3.17-2-3.34-3.42s7.07-.92,7.15.23C342.12,313.48,339.1,315.07,338.2,315.06Z" style="fill:#f28f8f"></path><path d="M349,304.94a3.29,3.29,0,1,0,2.78-3.7A3.27,3.27,0,0,0,349,304.94Z" style="fill:#fff"></path><path d="M348.61,304.77a3.29,3.29,0,1,0,2.78-3.7A3.28,3.28,0,0,0,348.61,304.77Z" style="fill:#263238"></path><path d="M351.72,304.39a1.17,1.17,0,0,0,2.34-.06,1.18,1.18,0,0,0-1.2-1.14A1.16,1.16,0,0,0,351.72,304.39Z" style="fill:#fff"></path><path d="M350.33,302.88a.4.4,0,0,0,.42.39.4.4,0,0,0,.39-.41.41.41,0,0,0-.81,0Z" style="fill:#fff"></path></g></g><g id="freepik--kitten-1--inject-248"><g id="freepik--cat--inject-248"><path d="M67.71,355.29c-8.36-3-15.56-10.39-16.18-21-.78-13.26,11.84-21.06,21.39-25.77,6.12-3,15.94-9.36,13-17.91-2.05-5.9-9.54-8.26-13.59-7.24a3.27,3.27,0,1,1-1.61-6.34c6.68-1.69,18,1.84,21.38,11.42a16,16,0,0,1-1.81,14.33c-2.78,4.36-7.64,8.26-14.42,11.61-16.47,8.11-18,15-17.76,19.51.59,10,9.44,16.16,17.65,16.27a3.28,3.28,0,0,1-.08,6.55A24.78,24.78,0,0,1,67.71,355.29Z" style="fill:#af6152"></path><path d="M153.22,377.72a17.34,17.34,0,0,1-2.24-9.67,49.56,49.56,0,0,1,1.7-11.29c1.27-4.66,3.33-9.28,6.91-12.53a8.62,8.62,0,0,1,4.84-2.47,8,8,0,0,1,3.66.65,16.6,16.6,0,0,1,8.71,9.06A29.59,29.59,0,0,1,179,365a68.17,68.17,0,0,1-2.62,14.12,5.84,5.84,0,0,0-.1,2.46c.6,3.27,4.9,4.26,7.22,5.92,3.11,2.23,4.79,4.28,5.55,8.66a10.94,10.94,0,0,1-.67,4.63,4.7,4.7,0,0,1-4.43,2.6,5,5,0,0,1-3.08-1.43,29.21,29.21,0,0,1-2.23-2.83c-2.3-2.78-6.05-3.73-9.21-5.18a33.24,33.24,0,0,1-9.31-6,21.27,21.27,0,0,1-2.82-3.51A68.82,68.82,0,0,1,153.22,377.72Z" style="fill:#af6152"></path><path d="M186.86,397.27c-.13-.08-.19.16-.15.24a7.34,7.34,0,0,1,.9,4.07c0,.13-.06.26-.08.39a4,4,0,0,0,.83-1.2,6.36,6.36,0,0,0,.25-.74A4.23,4.23,0,0,0,186.86,397.27Z" style="fill:#874c4c"></path><path d="M185.58,403.14a5.65,5.65,0,0,0,0-3,5.08,5.08,0,0,0-1.81-2.51c-.17-.11-.32.21-.22.33a3.92,3.92,0,0,1,.92,1.8,7,7,0,0,1,.12,1.52,7.25,7.25,0,0,1-.41,2.06A4.75,4.75,0,0,0,185.58,403.14Z" style="fill:#874c4c"></path><path d="M152.22,375.91c-.72-1.2-1.39-2.44-2-3.7-.3-.64-.58-1.28-.84-1.94a9.85,9.85,0,0,1-.62-2h.43a13.55,13.55,0,0,0-.17,1.9,7.63,7.63,0,0,0,.19,1.86l.32,1.26-.75-1.05a12.19,12.19,0,0,1-1.53-2.87,14.88,14.88,0,0,1-.78-3.14,21.72,21.72,0,0,1-.17-3.22,19.85,19.85,0,0,1,.36-3.18,22.54,22.54,0,0,0-.11,3.18,22.23,22.23,0,0,0,.29,3.16,18.42,18.42,0,0,0,.82,3,12.82,12.82,0,0,0,1.51,2.74l-.43.2a7.45,7.45,0,0,1-.17-2,12.89,12.89,0,0,1,.2-2l.22-1.28.2,1.28a11.62,11.62,0,0,0,.54,2q.34,1,.75,1.95C151,373.37,151.61,374.65,152.22,375.91Z" style="fill:#263238"></path><path d="M176.58,354a37.71,37.71,0,0,1,1,12.83c-.8,9.17-5,18.31-12.64,23.51-13.43,9.12-33.05,8.57-45.49-2.06a28.45,28.45,0,0,1-2.5-2.41,16.17,16.17,0,0,0-6.82-4.92,60.55,60.55,0,0,0-6.28-1.38,37.55,37.55,0,0,1-10.79-4.09C87,372,78.54,377.66,73.32,372.25c-3.72-3.85-6.2-10.95-6.61-15.78a44.6,44.6,0,0,1,11-33.29c8-8.92,21.9-12.31,33.33-11.12,8.21.85,16.49,4.88,23.14,9.78,4.61,3.4,9.27,6.74,13.69,10.4,4.12,3.41,8.42,7,13.37,9.14,1.78.74,3.52,1.57,5.26,2.39,2.2,1.05,6,2,7.64,3.78,1.19,1.29,1.69,3.83,2.18,5.48C176.4,353.36,176.49,353.69,176.58,354Z" style="fill:#c8856a"></path><path d="M128.42,336.42a4.46,4.46,0,0,0,.86,3,2.57,2.57,0,0,0,3.06.52,6.17,6.17,0,0,0,.67,2.85,2.8,2.8,0,0,0,2.4,1.48,2.71,2.71,0,0,0,2-1.18,5.44,5.44,0,0,0,.87-2.24,1.09,1.09,0,0,0,0-.44,1.1,1.1,0,0,0-.4-.43c-1.22-1-1.55-2.65-1.73-4.19a58.75,58.75,0,0,1,0-13.32s-1.33.53-1.48.62a6.46,6.46,0,0,0-1.18.9,14.67,14.67,0,0,0-2,2.4,18.07,18.07,0,0,0-2.66,6.16A17.12,17.12,0,0,0,128.42,336.42Z" style="fill:#af6152"></path><path d="M136.25,338.77c0,.42-3.31,5.48.86,10.33s14.17,10.22,25,10c11.67-.25,14.87-4.19,15.72-6.21s-2.57-10.8-2.57-10.8Z" style="fill:#92E3A9"></path><path d="M136.25,338.77c0,.42-3.31,5.48.86,10.33s14.17,10.22,25,10c11.67-.25,14.87-4.19,15.72-6.21s-2.57-10.8-2.57-10.8Z" style="opacity:0.30000000000000004"></path><path d="M167.47,362.44a5,5,0,1,1-5-5A5,5,0,0,1,167.47,362.44Z" style="fill:#f5f5f5"></path><path d="M121.29,329.31c.25-.22.48-.46.7-.69a20.34,20.34,0,0,1,5.69-4.74,25.93,25.93,0,0,1,6.37-2.12c-1.63-1.19-3.36-2.34-5.15-3.39-5.24,1.46-10.51,5.37-10.28,11.15a.74.74,0,0,0,.13.49.66.66,0,0,0,.39.17A2.62,2.62,0,0,0,121.29,329.31Z" style="fill:#af6152"></path><path d="M108.25,311.87a46.21,46.21,0,0,0-7,.28,18.14,18.14,0,0,0-3.07,5,7.65,7.65,0,0,0-.71,3.25,1.22,1.22,0,0,0,.29.86.79.79,0,0,0,1,.05,2.53,2.53,0,0,0,.73-.76,30.63,30.63,0,0,1,8.2-8.28Z" style="fill:#af6152"></path><path d="M115.74,312.88c-5.49,2.44-10.29,7.57-10.18,14.22,0,.58.14,1.28.66,1.46a.92.92,0,0,0,.91-.29,3.28,3.28,0,0,0,.55-.88,19.55,19.55,0,0,1,7.44-8.17,26.32,26.32,0,0,1,8.75-3.47A45.22,45.22,0,0,0,115.74,312.88Z" style="fill:#af6152"></path><path d="M114.61,353.58a20.08,20.08,0,0,0-1.85-5.65,22.09,22.09,0,0,0-3.23-4.84,22.83,22.83,0,0,0-9.81-6.6,25,25,0,0,0-6.1-1.13,23.33,23.33,0,0,0-12.32,2.22,21.51,21.51,0,0,0-10.07,10.64,31.92,31.92,0,0,0-2.31,12c-.17,7.09,1.35,14.69,6,19.45,5.91,6.13,13.63,10.81,21.39,14.53s13.38,3.67,15.42-.36c2.28-6.35-8.46-12-8.46-12a7.51,7.51,0,0,0,2.34-2.19,22.25,22.25,0,0,0,4.83-7.8c2.2-4.34,1.8-9.89.72-14.74a4.74,4.74,0,0,1,1.82,4,14.2,14.2,0,0,0-3.09-11A9.29,9.29,0,0,1,114.61,353.58Z" style="fill:#c8856a"></path><path d="M108,392.7a5.23,5.23,0,0,0-2.59-2.1c-.2-.07-.24.35-.1.44a4.33,4.33,0,0,1,1.48,1.66,8.19,8.19,0,0,1,.62,1.63,9.52,9.52,0,0,1,.28,2.44,6.77,6.77,0,0,0,1.34-.42A7.4,7.4,0,0,0,108,392.7Z" style="fill:#af6152"></path><path d="M111.7,393.87a2.17,2.17,0,0,0,.07-.24,4.42,4.42,0,0,0-.14-.52c-.54-1.55-1.61-3.09-3.1-3.49-.15,0-.13.24-.07.32a8.84,8.84,0,0,1,2.21,4.17,9.46,9.46,0,0,1,.11,1.07A5.21,5.21,0,0,0,111.7,393.87Z" style="fill:#af6152"></path><path d="M114.81,353.53a20.36,20.36,0,0,0-2-5.91,22.12,22.12,0,0,0-3.46-5,22.86,22.86,0,0,0-9.61-6.17,23.08,23.08,0,0,1,9.43,6.38,22,22,0,0,1,3.35,4.94,19.82,19.82,0,0,1,1.74,5,9.3,9.3,0,0,0-4.32-3l-.79-.25.57.67a13.7,13.7,0,0,1,3.13,8.73,4.67,4.67,0,0,0-1.57-2.09l-.52-.37.15.68a32.91,32.91,0,0,1,.88,7.4,16.16,16.16,0,0,1-1.55,7.14v0h0a22.4,22.4,0,0,1-4.74,7.75h0a15.54,15.54,0,0,1-1.08,1.21,7.13,7.13,0,0,1-.58.53,3.3,3.3,0,0,1-.62.43l-.31.16.3.16a27.77,27.77,0,0,1,3.2,2,21.56,21.56,0,0,1,2.91,2.51,10.94,10.94,0,0,1,2.24,3.26,5.69,5.69,0,0,1,.18,4,5.74,5.74,0,0,0-.1-4.08,11.11,11.11,0,0,0-2.2-3.36,20.29,20.29,0,0,0-2.89-2.61,26.76,26.76,0,0,0-3-1.94l.42-.3c.22-.18.42-.36.62-.55a16.06,16.06,0,0,0,1.11-1.22h0a21.91,21.91,0,0,0,4.91-7.85v0a16.79,16.79,0,0,0,1.63-7.38,31.58,31.58,0,0,0-.7-6.73,4.57,4.57,0,0,1,1.17,3.22l.49.06v0h0a14.53,14.53,0,0,0-2.61-10.49,9.1,9.1,0,0,1,3.87,3.09l.53.72Z" style="fill:#af6152"></path><path d="M158.22,410.16c-.76-4.37-2.44-6.42-5.55-8.66-2.42-1.73-5.1-2.87-7.29-5-1.59-1.51-1.15-3.91-1.1-6,.06-2.4.13-4.94-1.09-7.1a8.45,8.45,0,0,1,3.05,5,18.2,18.2,0,0,0-1.19-13.84c1.81,1.56,3.48,3.65,3.36,6,1.11-6,.29-13.44-2.71-18.72a12.92,12.92,0,0,0-12.43-7l-14.06,30.47a48.6,48.6,0,0,0,3.19,6.32,70.93,70.93,0,0,0,4.07,6.74,21.56,21.56,0,0,0,2.81,3.5,33.07,33.07,0,0,0,9.32,6c3.16,1.46,6.91,2.4,9.2,5.18A32.4,32.4,0,0,0,150,416a5.05,5.05,0,0,0,3.09,1.43,4.73,4.73,0,0,0,4.43-2.61A10.94,10.94,0,0,0,158.22,410.16Z" style="fill:#c8856a"></path><path d="M156.05,411.29c-.13-.08-.19.16-.15.24a7.44,7.44,0,0,1,.89,4.07c0,.13,0,.26-.08.39a3.67,3.67,0,0,0,.84-1.2,6.16,6.16,0,0,0,.25-.73A4.25,4.25,0,0,0,156.05,411.29Z" style="fill:#af6152"></path><path d="M154.76,417.16a5.61,5.61,0,0,0,0-3,5,5,0,0,0-1.81-2.51c-.16-.12-.32.2-.21.33a3.81,3.81,0,0,1,.91,1.8,6.37,6.37,0,0,1,.12,1.51,7.52,7.52,0,0,1-.4,2.06A4.69,4.69,0,0,0,154.76,417.16Z" style="fill:#af6152"></path><path d="M146.76,363.75a28.23,28.23,0,0,1,2.13,8.33,31.06,31.06,0,0,1-.28,8.61l-.4-.05a5.61,5.61,0,0,0-1-3.25,12.28,12.28,0,0,0-2.34-2.6l.36-.28a18.31,18.31,0,0,1,1.18,14l-.26.78-.14-.8a8.23,8.23,0,0,0-3-4.93l.27-.24a8.77,8.77,0,0,1,1,3.44,26.48,26.48,0,0,1,.07,3.56,34.83,34.83,0,0,0-.07,3.53,4.89,4.89,0,0,0,.42,1.65,4.06,4.06,0,0,0,1.1,1.31,49.07,49.07,0,0,0,5.81,4,24.34,24.34,0,0,1,2.86,2.09,8.32,8.32,0,0,1,2.18,2.78,8.39,8.39,0,0,0-2.23-2.72,24.12,24.12,0,0,0-2.89-2,44.66,44.66,0,0,1-5.91-3.94,4.43,4.43,0,0,1-1.16-1.38,5,5,0,0,1-.47-1.76,32.24,32.24,0,0,1,0-3.55,25.78,25.78,0,0,0-.1-3.52,8.57,8.57,0,0,0-1-3.3l-.46-.81.73.58a8.59,8.59,0,0,1,3.14,5.14l-.4,0a18.21,18.21,0,0,0-1.19-13.68l-.55-1.07.9.79a12.47,12.47,0,0,1,2.4,2.72,5.94,5.94,0,0,1,1,3.5l-.4-.05a31,31,0,0,0,.34-8.49A32.77,32.77,0,0,0,146.76,363.75Z" style="fill:#af6152"></path><path d="M118.57,384.3c.26.65.55,1.29.85,1.93.6,1.27,1.27,2.5,2,3.7-.6-1.26-1.17-2.54-1.72-3.82-.27-.64-.53-1.29-.75-1.94a12.19,12.19,0,0,1-.55-2l-.2-1.29-.22,1.28a14.47,14.47,0,0,0-.2,2c0,.29,0,.58,0,.87a11.09,11.09,0,0,1-.92-1.82,17.48,17.48,0,0,1-.82-3,20.74,20.74,0,0,1-.3-3.15,22.63,22.63,0,0,1,.12-3.19,17.8,17.8,0,0,0-.36,3.18,21.64,21.64,0,0,0,.16,3.22,15.51,15.51,0,0,0,.78,3.14,12.22,12.22,0,0,0,1.54,2.87l.75,1-.32-1.26a6.72,6.72,0,0,1-.19-1.86c0-.22,0-.45.06-.68C118.37,383.75,118.47,384,118.57,384.3Z" style="fill:#af6152"></path><path d="M147.26,313.07c-4.31-4.08-16.21-6.18-19.63-2.53-3.22,3.44,6.3,15.54,6.3,15.54S144.13,320.57,147.26,313.07Z" style="fill:#af6152"></path><path d="M143.07,317.16c-4.41,4.57-9.14,8.92-9.14,8.92s-9-11.53-6.37-14.35C129,309.87,136,309.39,143.07,317.16Z" style="fill:#ffa8a7"></path><path d="M134.86,323.1a5.44,5.44,0,0,0-1.46-2.66,5.56,5.56,0,0,0-3-1.81c1.84-1.65,5.31-1.67,5.31-1.67a3.28,3.28,0,0,0-2.69-3.52c1.95-1.07,5.92-.05,7.38,3a7.23,7.23,0,0,1-1.65,3.82C137.14,322.25,135.69,323.14,134.86,323.1Z" style="fill:#f28f8f"></path><path d="M140.75,318.14c-.85-2.21-3.35-4.09-5.47-3.76a4.82,4.82,0,0,1,1,3.25s-5.63-.59-7.21,2.22c0,0,3.75.23,5,3.38C139,325.31,140.75,318.14,140.75,318.14Z" style="fill:#af6152"></path><path d="M171.31,312.16c4.7-3.47,14.6-4.7,18,.69,1.94,3-9,14.36-9,14.36S172.8,319.78,171.31,312.16Z" style="fill:#af6152"></path><path d="M173.62,317.55c3.2,4.92,6.73,9.66,6.73,9.66s10.93-11.32,9-14.36C187.85,311.2,181.48,310.8,173.62,317.55Z" style="fill:#ffa8a7"></path><path d="M181,324a6.46,6.46,0,0,1,1.79-1.09c.65-.73,1.39-1.59,2.14-2.51a11,11,0,0,0-3.93-2.86,5.27,5.27,0,0,1,2.48-2.46c-1.58-1.26-5.28-.75-7.17,2A10.06,10.06,0,0,0,177,321c.77.93,1.48,1.75,2.08,2.4A4.51,4.51,0,0,0,181,324Z" style="fill:#f28f8f"></path><path d="M176.69,318.47c1.47-1.86,4.27-3,6-2.09a5.25,5.25,0,0,0-2,2.79s5.13.93,5.59,4a5.89,5.89,0,0,0-5.53,1.84C175.89,325.66,176.69,318.47,176.69,318.47Z" style="fill:#af6152"></path><path d="M158.63,309.43a25.24,25.24,0,0,1,15,3.89,44.66,44.66,0,0,1,8.43,8.5,41,41,0,0,1,6,10.7,6.47,6.47,0,0,1,.5,1.93,2.44,2.44,0,0,1-.62,1.84,1.56,1.56,0,0,1-1.84.29,3.12,3.12,0,0,1,.72,1.86,2.05,2.05,0,0,1-.87,1.74,1.55,1.55,0,0,1-1.87-.13,18.82,18.82,0,0,1-13.53,13.26c-.63.15-3.27.8-3.91.88a36.08,36.08,0,0,1-16.82-2.06c-2.7-1-10.32-4.51-13.4-9.06-.26.48-.95.44-1.44.19a3.24,3.24,0,0,1-1.23-1.78,7,7,0,0,1-.39-3,1.89,1.89,0,0,1-2.5-.74,4.75,4.75,0,0,1-.5-2.81,20.33,20.33,0,0,1,3.72-10.78C139.9,315.81,148.21,310.13,158.63,309.43Z" style="fill:#c8856a"></path><path d="M147.6,337.53l0,0a.46.46,0,0,0,.16-.61,8,8,0,0,0-7.9-4.58.43.43,0,0,0-.38.48.44.44,0,0,0,.45.42,7.18,7.18,0,0,1,7.1,4.12A.42.42,0,0,0,147.6,337.53Z" style="fill:#263238"></path><path d="M146.36,338.54a.42.42,0,0,0,.12-.08.46.46,0,0,0,0-.63,7.4,7.4,0,0,0-5.78-2,.45.45,0,0,0,.13.89,6.57,6.57,0,0,1,5,1.74A.4.4,0,0,0,146.36,338.54Z" style="fill:#263238"></path><path d="M146.45,340.39a.5.5,0,0,0,.19-.19.48.48,0,0,0-.2-.61,8.58,8.58,0,0,0-7.93.33.45.45,0,0,0-.17.6.42.42,0,0,0,.57.19h0a7.73,7.73,0,0,1,7.15-.32A.39.39,0,0,0,146.45,340.39Z" style="fill:#263238"></path><path d="M179,337.69h0a.47.47,0,0,1-.22-.59c1-2.41,3-5.31,7.3-5.48a.45.45,0,0,1,0,.9,7.17,7.17,0,0,0-6.56,4.93A.41.41,0,0,1,179,337.69Z" style="fill:#263238"></path><path d="M180.34,338.55a.33.33,0,0,1-.13-.07.46.46,0,0,1-.08-.62,7.42,7.42,0,0,1,5.51-2.69.45.45,0,0,1,.41.46.44.44,0,0,1-.44.44,6.59,6.59,0,0,0-4.81,2.32A.39.39,0,0,1,180.34,338.55Z" style="fill:#263238"></path><path d="M180.46,340.4a.41.41,0,0,1-.2-.17.47.47,0,0,1,.12-.63,8.59,8.59,0,0,1,7.92-.61.45.45,0,0,1,.23.58.42.42,0,0,1-.54.26h0a7.7,7.7,0,0,0-7.14.52A.4.4,0,0,1,180.46,340.4Z" style="fill:#263238"></path><path d="M169.76,343.37a.51.51,0,0,0-.64-.34,3.19,3.19,0,0,1-3-.45,4.73,4.73,0,0,1-1.62-3.15c0-.14,0-.29,0-.43a.52.52,0,0,0-.51-.49.52.52,0,0,0-.51.49,3.85,3.85,0,0,0,0,.48,4.3,4.3,0,0,1-2.68,4.19,4.25,4.25,0,0,1-4.65-.8.52.52,0,0,0-.73-.05.51.51,0,0,0,0,.72,4.58,4.58,0,0,0,3,1.45,5.92,5.92,0,0,0,2.84-.37,5,5,0,0,0,2.93-2.94,5.06,5.06,0,0,0,1.38,1.71,4.19,4.19,0,0,0,4,.62A.51.51,0,0,0,169.76,343.37Z" style="fill:#263238"></path><path d="M164.07,339.4c.89,0,3.17-2,3.34-3.42s-7.07-.91-7.15.23C160.15,337.82,163.17,339.41,164.07,339.4Z" style="fill:#37474f"></path><path d="M155.86,330.66a3.29,3.29,0,1,1-2.77-3.7A3.28,3.28,0,0,1,155.86,330.66Z" style="fill:#fff"></path><path d="M156.2,330.5a3.29,3.29,0,1,1-2.77-3.71A3.28,3.28,0,0,1,156.2,330.5Z" style="fill:#263238"></path><path d="M153.1,330.11a1.17,1.17,0,1,1-1.14-1.2A1.17,1.17,0,0,1,153.1,330.11Z" style="fill:#fff"></path><path d="M154.48,328.6a.4.4,0,1,1-.8,0,.4.4,0,0,1,.41-.39A.4.4,0,0,1,154.48,328.6Z" style="fill:#fff"></path><ellipse cx="171.93" cy="330.18" rx="3.26" ry="3.29" transform="translate(-179.82 452.07) rotate(-81.61)" style="fill:#fff"></ellipse><path d="M175.52,330.5a3.29,3.29,0,1,1-2.78-3.71A3.28,3.28,0,0,1,175.52,330.5Z" style="fill:#263238"></path><path d="M172.41,330.11a1.16,1.16,0,0,1-1.2,1.14,1.17,1.17,0,0,1-1.14-1.2,1.19,1.19,0,0,1,1.2-1.14A1.17,1.17,0,0,1,172.41,330.11Z" style="fill:#fff"></path><path d="M173.8,328.6a.41.41,0,0,1-.42.4.41.41,0,0,1,0-.81A.41.41,0,0,1,173.8,328.6Z" style="fill:#fff"></path><path d="M164.25,309.74a23.86,23.86,0,0,0-5.4-.32,9.82,9.82,0,0,1,.6.83,22.12,22.12,0,0,1,2.79,7.75,28.09,28.09,0,0,0,.78,4.38c.07.24.22.52.48.51s.32-.18.42-.34a10.67,10.67,0,0,0,1-5.49,24.63,24.63,0,0,0-.62-7.07C164.3,309.91,164.27,309.83,164.25,309.74Zm-13.71,1.36a11.57,11.57,0,0,1,3.93,4c.51.87.9,1.81,1.43,2.68.08.13.18.27.33.28s.37-.31.39-.56c.16-2,.06-5.51-1.19-7.68A30.26,30.26,0,0,0,150.54,311.1Zm17.37-.47a12,12,0,0,1,.51,1.57,14.3,14.3,0,0,1,.34,1.73c.1.8-.27,2.65.67,3,1.6.57,2.38-2.76,2.58-4.57A24.34,24.34,0,0,0,167.91,310.63Z" style="fill:#af6152"></path></g></g><g id="freepik--Hearts--inject-248"><g id="freepik--hearts--inject-248"><path d="M233.36,99.32c6.16-4.3,14.3-.27,16.84,9.15,1-9.7,8.43-15,15.19-11.69s7,21.54-13.19,36.88C229.81,121.7,227.19,103.63,233.36,99.32Z" style="fill:#92E3A9"></path><path d="M193.12,76.68C197,72.56,203.67,74.31,207,80.9c-.71-7.34,4-12.36,9.48-11s8.47,14.89-4.18,29.32C193.89,93.79,189.21,80.81,193.12,76.68Z" style="fill:#92E3A9"></path><path d="M193.12,76.68C197,72.56,203.67,74.31,207,80.9c-.71-7.34,4-12.36,9.48-11s8.47,14.89-4.18,29.32C193.89,93.79,189.21,80.81,193.12,76.68Z" style="fill:#fff;opacity:0.30000000000000004"></path><path d="M283.37,75.39c4.21-2,8.75,1.34,9.3,7.35,1.65-5.8,6.72-8.24,10.5-5.52s2,13.86-11.93,21.09C278.85,88.66,279.16,77.37,283.37,75.39Z" style="fill:#92E3A9"></path><path d="M283.37,75.39c4.21-2,8.75,1.34,9.3,7.35,1.65-5.8,6.72-8.24,10.5-5.52s2,13.86-11.93,21.09C278.85,88.66,279.16,77.37,283.37,75.39Z" style="fill:#fff;opacity:0.6000000000000001"></path></g></g></svg>
