<svg width="1286" height="810" viewBox="0 0 1286 810" fill="none" xmlns="http://www.w3.org/2000/svg">
<g clip-path="url(#clip0_261_590)">
<g filter="url(#filter0_d_261_590)">
<path d="M44.2365 11.9547C47.0301 20.3823 44.1779 28.8886 37.8679 30.9709C31.5579 33.0533 24.1735 27.9063 21.3799 19.4787C18.5863 11.051 21.4385 2.54477 27.7485 0.462409C34.0585 -1.61995 41.4429 3.52701 44.2365 11.9547ZM19.6022 32.7193C23.2944 39.0842 22.3958 46.4904 17.6095 49.2407C12.8233 51.9909 5.94681 49.0638 2.27412 42.6989C-1.39857 36.334 -0.539003 28.9278 4.24721 26.1776C9.03342 23.4273 15.9099 26.3544 19.5826 32.7193H19.6022ZM13.5071 72.5198C23.7437 44.7616 41.9313 37.7091 49.9995 37.7091C58.0677 37.7091 76.2553 44.7616 86.4919 72.5198C87.1952 74.4254 87.5078 76.4685 87.5078 78.5115V78.8258C87.5078 83.8942 83.4249 88 78.3847 88C76.1381 88 73.911 87.725 71.7426 87.1749L54.5513 82.853C51.5624 82.1065 48.4367 82.1065 45.4477 82.853L28.2564 87.1749C26.088 87.725 23.8609 88 21.6143 88C16.5742 88 12.4912 83.8942 12.4912 78.8258V78.5115C12.4912 76.4685 12.8038 74.4254 13.5071 72.5198ZM82.3895 49.2407C77.6033 46.4904 76.7046 39.0842 80.3969 32.7193C84.0891 26.3544 90.9461 23.4273 95.7323 26.1776C100.518 28.9278 101.417 36.334 97.7249 42.6989C94.0327 49.0638 87.1757 51.9909 82.3895 49.2407ZM60.5683 30.9709C54.2583 28.8886 51.4061 20.3823 54.1997 11.9547C56.9932 3.52701 64.3777 -1.61995 70.6877 0.462409C76.9977 2.54477 79.8499 11.051 77.0563 19.4787C74.2627 27.9063 66.8782 33.0533 60.5683 30.9709Z" fill="#F8F1F1"/>
</g>
<g filter="url(#filter1_d_261_590)">
<path d="M235.237 11.9547C238.03 20.3823 235.178 28.8886 228.868 30.9709C222.558 33.0533 215.173 27.9063 212.38 19.4787C209.586 11.051 212.439 2.54477 218.748 0.462409C225.058 -1.61995 232.443 3.52701 235.237 11.9547ZM210.602 32.7193C214.294 39.0842 213.396 46.4904 208.61 49.2407C203.823 51.9909 196.947 49.0638 193.274 42.6989C189.601 36.334 190.461 28.9278 195.247 26.1776C200.033 23.4273 206.91 26.3544 210.583 32.7193H210.602ZM204.507 72.5198C214.744 44.7616 232.931 37.7091 241 37.7091C249.068 37.7091 267.255 44.7616 277.492 72.5198C278.195 74.4254 278.508 76.4685 278.508 78.5115V78.8258C278.508 83.8942 274.425 88 269.385 88C267.138 88 264.911 87.725 262.743 87.1749L245.551 82.853C242.562 82.1065 239.437 82.1065 236.448 82.853L219.256 87.1749C217.088 87.725 214.861 88 212.614 88C207.574 88 203.491 83.8942 203.491 78.8258V78.5115C203.491 76.4685 203.804 74.4254 204.507 72.5198ZM273.389 49.2407C268.603 46.4904 267.705 39.0842 271.397 32.7193C275.089 26.3544 281.946 23.4273 286.732 26.1776C291.518 28.9278 292.417 36.334 288.725 42.6989C285.033 49.0638 278.176 51.9909 273.389 49.2407ZM251.568 30.9709C245.258 28.8886 242.406 20.3823 245.2 11.9547C247.993 3.52701 255.378 -1.61995 261.688 0.462409C267.998 2.54477 270.85 11.051 268.056 19.4787C265.263 27.9063 257.878 33.0533 251.568 30.9709Z" fill="#F8F1F1"/>
</g>
<g filter="url(#filter2_d_261_590)">
<path d="M426.237 11.9547C429.03 20.3823 426.178 28.8886 419.868 30.9709C413.558 33.0533 406.173 27.9063 403.38 19.4787C400.586 11.051 403.439 2.54477 409.748 0.462409C416.058 -1.61995 423.443 3.52701 426.237 11.9547ZM401.602 32.7193C405.294 39.0842 404.396 46.4904 399.61 49.2407C394.823 51.9909 387.947 49.0638 384.274 42.6989C380.601 36.334 381.461 28.9278 386.247 26.1776C391.033 23.4273 397.91 26.3544 401.583 32.7193H401.602ZM395.507 72.5198C405.744 44.7616 423.931 37.7091 432 37.7091C440.068 37.7091 458.255 44.7616 468.492 72.5198C469.195 74.4254 469.508 76.4685 469.508 78.5115V78.8258C469.508 83.8942 465.425 88 460.385 88C458.138 88 455.911 87.725 453.743 87.1749L436.551 82.853C433.562 82.1065 430.437 82.1065 427.448 82.853L410.256 87.1749C408.088 87.725 405.861 88 403.614 88C398.574 88 394.491 83.8942 394.491 78.8258V78.5115C394.491 76.4685 394.804 74.4254 395.507 72.5198ZM464.389 49.2407C459.603 46.4904 458.705 39.0842 462.397 32.7193C466.089 26.3544 472.946 23.4273 477.732 26.1776C482.518 28.9278 483.417 36.334 479.725 42.6989C476.033 49.0638 469.176 51.9909 464.389 49.2407ZM442.568 30.9709C436.258 28.8886 433.406 20.3823 436.2 11.9547C438.993 3.52701 446.378 -1.61995 452.688 0.462409C458.998 2.54477 461.85 11.051 459.056 19.4787C456.263 27.9063 448.878 33.0533 442.568 30.9709Z" fill="#F8F1F1"/>
</g>
<g filter="url(#filter3_d_261_590)">
<path d="M617.237 11.9547C620.03 20.3823 617.178 28.8886 610.868 30.9709C604.558 33.0533 597.173 27.9063 594.38 19.4787C591.586 11.051 594.439 2.54477 600.748 0.462409C607.058 -1.61995 614.443 3.52701 617.237 11.9547ZM592.602 32.7193C596.294 39.0842 595.396 46.4904 590.61 49.2407C585.823 51.9909 578.947 49.0638 575.274 42.6989C571.601 36.334 572.461 28.9278 577.247 26.1776C582.033 23.4273 588.91 26.3544 592.583 32.7193H592.602ZM586.507 72.5198C596.744 44.7616 614.931 37.7091 623 37.7091C631.068 37.7091 649.255 44.7616 659.492 72.5198C660.195 74.4254 660.508 76.4685 660.508 78.5115V78.8258C660.508 83.8942 656.425 88 651.385 88C649.138 88 646.911 87.725 644.743 87.1749L627.551 82.853C624.562 82.1065 621.437 82.1065 618.448 82.853L601.256 87.1749C599.088 87.725 596.861 88 594.614 88C589.574 88 585.491 83.8942 585.491 78.8258V78.5115C585.491 76.4685 585.804 74.4254 586.507 72.5198ZM655.389 49.2407C650.603 46.4904 649.705 39.0842 653.397 32.7193C657.089 26.3544 663.946 23.4273 668.732 26.1776C673.518 28.9278 674.417 36.334 670.725 42.6989C667.033 49.0638 660.176 51.9909 655.389 49.2407ZM633.568 30.9709C627.258 28.8886 624.406 20.3823 627.2 11.9547C629.993 3.52701 637.378 -1.61995 643.688 0.462409C649.998 2.54477 652.85 11.051 650.056 19.4787C647.263 27.9063 639.878 33.0533 633.568 30.9709Z" fill="#F8F1F1"/>
</g>
<g filter="url(#filter4_d_261_590)">
<path d="M808.237 11.9547C811.03 20.3823 808.178 28.8886 801.868 30.9709C795.558 33.0533 788.173 27.9063 785.38 19.4787C782.586 11.051 785.439 2.54477 791.748 0.462409C798.058 -1.61995 805.443 3.52701 808.237 11.9547ZM783.602 32.7193C787.294 39.0842 786.396 46.4904 781.61 49.2407C776.823 51.9909 769.947 49.0638 766.274 42.6989C762.601 36.334 763.461 28.9278 768.247 26.1776C773.033 23.4273 779.91 26.3544 783.583 32.7193H783.602ZM777.507 72.5198C787.744 44.7616 805.931 37.7091 814 37.7091C822.068 37.7091 840.255 44.7616 850.492 72.5198C851.195 74.4254 851.508 76.4685 851.508 78.5115V78.8258C851.508 83.8942 847.425 88 842.385 88C840.138 88 837.911 87.725 835.743 87.1749L818.551 82.853C815.562 82.1065 812.437 82.1065 809.448 82.853L792.256 87.1749C790.088 87.725 787.861 88 785.614 88C780.574 88 776.491 83.8942 776.491 78.8258V78.5115C776.491 76.4685 776.804 74.4254 777.507 72.5198ZM846.389 49.2407C841.603 46.4904 840.705 39.0842 844.397 32.7193C848.089 26.3544 854.946 23.4273 859.732 26.1776C864.518 28.9278 865.417 36.334 861.725 42.6989C858.033 49.0638 851.176 51.9909 846.389 49.2407ZM824.568 30.9709C818.258 28.8886 815.406 20.3823 818.2 11.9547C820.993 3.52701 828.378 -1.61995 834.688 0.462409C840.998 2.54477 843.85 11.051 841.056 19.4787C838.263 27.9063 830.878 33.0533 824.568 30.9709Z" fill="#F8F1F1"/>
</g>
<g filter="url(#filter5_d_261_590)">
<path d="M999.237 11.9547C1002.03 20.3823 999.178 28.8886 992.868 30.9709C986.558 33.0533 979.173 27.9063 976.38 19.4787C973.586 11.051 976.439 2.54477 982.748 0.462409C989.058 -1.61995 996.443 3.52701 999.237 11.9547ZM974.602 32.7193C978.294 39.0842 977.396 46.4904 972.61 49.2407C967.823 51.9909 960.947 49.0638 957.274 42.6989C953.601 36.334 954.461 28.9278 959.247 26.1776C964.033 23.4273 970.91 26.3544 974.583 32.7193H974.602ZM968.507 72.5198C978.744 44.7616 996.931 37.7091 1005 37.7091C1013.07 37.7091 1031.26 44.7616 1041.49 72.5198C1042.2 74.4254 1042.51 76.4685 1042.51 78.5115V78.8258C1042.51 83.8942 1038.42 88 1033.38 88C1031.14 88 1028.91 87.725 1026.74 87.1749L1009.55 82.853C1006.56 82.1065 1003.44 82.1065 1000.45 82.853L983.256 87.1749C981.088 87.725 978.861 88 976.614 88C971.574 88 967.491 83.8942 967.491 78.8258V78.5115C967.491 76.4685 967.804 74.4254 968.507 72.5198ZM1037.39 49.2407C1032.6 46.4904 1031.7 39.0842 1035.4 32.7193C1039.09 26.3544 1045.95 23.4273 1050.73 26.1776C1055.52 28.9278 1056.42 36.334 1052.72 42.6989C1049.03 49.0638 1042.18 51.9909 1037.39 49.2407ZM1015.57 30.9709C1009.26 28.8886 1006.41 20.3823 1009.2 11.9547C1011.99 3.52701 1019.38 -1.61995 1025.69 0.462409C1032 2.54477 1034.85 11.051 1032.06 19.4787C1029.26 27.9063 1021.88 33.0533 1015.57 30.9709Z" fill="#F8F1F1"/>
</g>
<g filter="url(#filter6_d_261_590)">
<path d="M1190.24 11.9547C1193.03 20.3823 1190.18 28.8886 1183.87 30.9709C1177.56 33.0533 1170.17 27.9063 1167.38 19.4787C1164.59 11.051 1167.44 2.54477 1173.75 0.462409C1180.06 -1.61995 1187.44 3.52701 1190.24 11.9547ZM1165.6 32.7193C1169.29 39.0842 1168.4 46.4904 1163.61 49.2407C1158.82 51.9909 1151.95 49.0638 1148.27 42.6989C1144.6 36.334 1145.46 28.9278 1150.25 26.1776C1155.03 23.4273 1161.91 26.3544 1165.58 32.7193H1165.6ZM1159.51 72.5198C1169.74 44.7616 1187.93 37.7091 1196 37.7091C1204.07 37.7091 1222.26 44.7616 1232.49 72.5198C1233.2 74.4254 1233.51 76.4685 1233.51 78.5115V78.8258C1233.51 83.8942 1229.42 88 1224.38 88C1222.14 88 1219.91 87.725 1217.74 87.1749L1200.55 82.853C1197.56 82.1065 1194.44 82.1065 1191.45 82.853L1174.26 87.1749C1172.09 87.725 1169.86 88 1167.61 88C1162.57 88 1158.49 83.8942 1158.49 78.8258V78.5115C1158.49 76.4685 1158.8 74.4254 1159.51 72.5198ZM1228.39 49.2407C1223.6 46.4904 1222.7 39.0842 1226.4 32.7193C1230.09 26.3544 1236.95 23.4273 1241.73 26.1776C1246.52 28.9278 1247.42 36.334 1243.72 42.6989C1240.03 49.0638 1233.18 51.9909 1228.39 49.2407ZM1206.57 30.9709C1200.26 28.8886 1197.41 20.3823 1200.2 11.9547C1202.99 3.52701 1210.38 -1.61995 1216.69 0.462409C1223 2.54477 1225.85 11.051 1223.06 19.4787C1220.26 27.9063 1212.88 33.0533 1206.57 30.9709Z" fill="#F8F1F1"/>
</g>
<g filter="url(#filter7_d_261_590)">
<path d="M44.2365 149.955C47.0301 158.382 44.1779 166.889 37.8679 168.971C31.5579 171.053 24.1735 165.906 21.3799 157.479C18.5863 149.051 21.4385 140.545 27.7485 138.462C34.0585 136.38 41.4429 141.527 44.2365 149.955ZM19.6022 170.719C23.2944 177.084 22.3958 184.49 17.6095 187.241C12.8233 189.991 5.94681 187.064 2.27412 180.699C-1.39857 174.334 -0.539003 166.928 4.24721 164.178C9.03342 161.427 15.9099 164.354 19.5826 170.719H19.6022ZM13.5071 210.52C23.7437 182.762 41.9313 175.709 49.9995 175.709C58.0677 175.709 76.2553 182.762 86.4919 210.52C87.1952 212.425 87.5078 214.468 87.5078 216.512V216.826C87.5078 221.894 83.4249 226 78.3847 226C76.1381 226 73.911 225.725 71.7426 225.175L54.5513 220.853C51.5624 220.107 48.4367 220.107 45.4477 220.853L28.2564 225.175C26.088 225.725 23.8609 226 21.6143 226C16.5742 226 12.4912 221.894 12.4912 216.826V216.512C12.4912 214.468 12.8038 212.425 13.5071 210.52ZM82.3895 187.241C77.6033 184.49 76.7046 177.084 80.3969 170.719C84.0891 164.354 90.9461 161.427 95.7323 164.178C100.518 166.928 101.417 174.334 97.7249 180.699C94.0327 187.064 87.1757 189.991 82.3895 187.241ZM60.5683 168.971C54.2583 166.889 51.4061 158.382 54.1997 149.955C56.9932 141.527 64.3777 136.38 70.6877 138.462C76.9977 140.545 79.8499 149.051 77.0563 157.479C74.2627 165.906 66.8782 171.053 60.5683 168.971Z" fill="#F8F1F1"/>
</g>
<g filter="url(#filter8_d_261_590)">
<path d="M235.237 149.955C238.03 158.382 235.178 166.889 228.868 168.971C222.558 171.053 215.173 165.906 212.38 157.479C209.586 149.051 212.439 140.545 218.748 138.462C225.058 136.38 232.443 141.527 235.237 149.955ZM210.602 170.719C214.294 177.084 213.396 184.49 208.61 187.241C203.823 189.991 196.947 187.064 193.274 180.699C189.601 174.334 190.461 166.928 195.247 164.178C200.033 161.427 206.91 164.354 210.583 170.719H210.602ZM204.507 210.52C214.744 182.762 232.931 175.709 241 175.709C249.068 175.709 267.255 182.762 277.492 210.52C278.195 212.425 278.508 214.468 278.508 216.512V216.826C278.508 221.894 274.425 226 269.385 226C267.138 226 264.911 225.725 262.743 225.175L245.551 220.853C242.562 220.107 239.437 220.107 236.448 220.853L219.256 225.175C217.088 225.725 214.861 226 212.614 226C207.574 226 203.491 221.894 203.491 216.826V216.512C203.491 214.468 203.804 212.425 204.507 210.52ZM273.389 187.241C268.603 184.49 267.705 177.084 271.397 170.719C275.089 164.354 281.946 161.427 286.732 164.178C291.518 166.928 292.417 174.334 288.725 180.699C285.033 187.064 278.176 189.991 273.389 187.241ZM251.568 168.971C245.258 166.889 242.406 158.382 245.2 149.955C247.993 141.527 255.378 136.38 261.688 138.462C267.998 140.545 270.85 149.051 268.056 157.479C265.263 165.906 257.878 171.053 251.568 168.971Z" fill="#F8F1F1"/>
</g>
<g filter="url(#filter9_d_261_590)">
<path d="M426.237 149.955C429.03 158.382 426.178 166.889 419.868 168.971C413.558 171.053 406.173 165.906 403.38 157.479C400.586 149.051 403.439 140.545 409.748 138.462C416.058 136.38 423.443 141.527 426.237 149.955ZM401.602 170.719C405.294 177.084 404.396 184.49 399.61 187.241C394.823 189.991 387.947 187.064 384.274 180.699C380.601 174.334 381.461 166.928 386.247 164.178C391.033 161.427 397.91 164.354 401.583 170.719H401.602ZM395.507 210.52C405.744 182.762 423.931 175.709 432 175.709C440.068 175.709 458.255 182.762 468.492 210.52C469.195 212.425 469.508 214.468 469.508 216.512V216.826C469.508 221.894 465.425 226 460.385 226C458.138 226 455.911 225.725 453.743 225.175L436.551 220.853C433.562 220.107 430.437 220.107 427.448 220.853L410.256 225.175C408.088 225.725 405.861 226 403.614 226C398.574 226 394.491 221.894 394.491 216.826V216.512C394.491 214.468 394.804 212.425 395.507 210.52ZM464.389 187.241C459.603 184.49 458.705 177.084 462.397 170.719C466.089 164.354 472.946 161.427 477.732 164.178C482.518 166.928 483.417 174.334 479.725 180.699C476.033 187.064 469.176 189.991 464.389 187.241ZM442.568 168.971C436.258 166.889 433.406 158.382 436.2 149.955C438.993 141.527 446.378 136.38 452.688 138.462C458.998 140.545 461.85 149.051 459.056 157.479C456.263 165.906 448.878 171.053 442.568 168.971Z" fill="#F8F1F1"/>
</g>
<g filter="url(#filter10_d_261_590)">
<path d="M617.237 149.955C620.03 158.382 617.178 166.889 610.868 168.971C604.558 171.053 597.173 165.906 594.38 157.479C591.586 149.051 594.439 140.545 600.748 138.462C607.058 136.38 614.443 141.527 617.237 149.955ZM592.602 170.719C596.294 177.084 595.396 184.49 590.61 187.241C585.823 189.991 578.947 187.064 575.274 180.699C571.601 174.334 572.461 166.928 577.247 164.178C582.033 161.427 588.91 164.354 592.583 170.719H592.602ZM586.507 210.52C596.744 182.762 614.931 175.709 623 175.709C631.068 175.709 649.255 182.762 659.492 210.52C660.195 212.425 660.508 214.468 660.508 216.512V216.826C660.508 221.894 656.425 226 651.385 226C649.138 226 646.911 225.725 644.743 225.175L627.551 220.853C624.562 220.107 621.437 220.107 618.448 220.853L601.256 225.175C599.088 225.725 596.861 226 594.614 226C589.574 226 585.491 221.894 585.491 216.826V216.512C585.491 214.468 585.804 212.425 586.507 210.52ZM655.389 187.241C650.603 184.49 649.705 177.084 653.397 170.719C657.089 164.354 663.946 161.427 668.732 164.178C673.518 166.928 674.417 174.334 670.725 180.699C667.033 187.064 660.176 189.991 655.389 187.241ZM633.568 168.971C627.258 166.889 624.406 158.382 627.2 149.955C629.993 141.527 637.378 136.38 643.688 138.462C649.998 140.545 652.85 149.051 650.056 157.479C647.263 165.906 639.878 171.053 633.568 168.971Z" fill="#F8F1F1"/>
</g>
<g filter="url(#filter11_d_261_590)">
<path d="M808.237 149.955C811.03 158.382 808.178 166.889 801.868 168.971C795.558 171.053 788.173 165.906 785.38 157.479C782.586 149.051 785.439 140.545 791.748 138.462C798.058 136.38 805.443 141.527 808.237 149.955ZM783.602 170.719C787.294 177.084 786.396 184.49 781.61 187.241C776.823 189.991 769.947 187.064 766.274 180.699C762.601 174.334 763.461 166.928 768.247 164.178C773.033 161.427 779.91 164.354 783.583 170.719H783.602ZM777.507 210.52C787.744 182.762 805.931 175.709 814 175.709C822.068 175.709 840.255 182.762 850.492 210.52C851.195 212.425 851.508 214.468 851.508 216.512V216.826C851.508 221.894 847.425 226 842.385 226C840.138 226 837.911 225.725 835.743 225.175L818.551 220.853C815.562 220.107 812.437 220.107 809.448 220.853L792.256 225.175C790.088 225.725 787.861 226 785.614 226C780.574 226 776.491 221.894 776.491 216.826V216.512C776.491 214.468 776.804 212.425 777.507 210.52ZM846.389 187.241C841.603 184.49 840.705 177.084 844.397 170.719C848.089 164.354 854.946 161.427 859.732 164.178C864.518 166.928 865.417 174.334 861.725 180.699C858.033 187.064 851.176 189.991 846.389 187.241ZM824.568 168.971C818.258 166.889 815.406 158.382 818.2 149.955C820.993 141.527 828.378 136.38 834.688 138.462C840.998 140.545 843.85 149.051 841.056 157.479C838.263 165.906 830.878 171.053 824.568 168.971Z" fill="#F8F1F1"/>
</g>
<g filter="url(#filter12_d_261_590)">
<path d="M999.237 149.955C1002.03 158.382 999.178 166.889 992.868 168.971C986.558 171.053 979.173 165.906 976.38 157.479C973.586 149.051 976.439 140.545 982.748 138.462C989.058 136.38 996.443 141.527 999.237 149.955ZM974.602 170.719C978.294 177.084 977.396 184.49 972.61 187.241C967.823 189.991 960.947 187.064 957.274 180.699C953.601 174.334 954.461 166.928 959.247 164.178C964.033 161.427 970.91 164.354 974.583 170.719H974.602ZM968.507 210.52C978.744 182.762 996.931 175.709 1005 175.709C1013.07 175.709 1031.26 182.762 1041.49 210.52C1042.2 212.425 1042.51 214.468 1042.51 216.512V216.826C1042.51 221.894 1038.42 226 1033.38 226C1031.14 226 1028.91 225.725 1026.74 225.175L1009.55 220.853C1006.56 220.107 1003.44 220.107 1000.45 220.853L983.256 225.175C981.088 225.725 978.861 226 976.614 226C971.574 226 967.491 221.894 967.491 216.826V216.512C967.491 214.468 967.804 212.425 968.507 210.52ZM1037.39 187.241C1032.6 184.49 1031.7 177.084 1035.4 170.719C1039.09 164.354 1045.95 161.427 1050.73 164.178C1055.52 166.928 1056.42 174.334 1052.72 180.699C1049.03 187.064 1042.18 189.991 1037.39 187.241ZM1015.57 168.971C1009.26 166.889 1006.41 158.382 1009.2 149.955C1011.99 141.527 1019.38 136.38 1025.69 138.462C1032 140.545 1034.85 149.051 1032.06 157.479C1029.26 165.906 1021.88 171.053 1015.57 168.971Z" fill="#F8F1F1"/>
</g>
<g filter="url(#filter13_d_261_590)">
<path d="M1190.24 149.955C1193.03 158.382 1190.18 166.889 1183.87 168.971C1177.56 171.053 1170.17 165.906 1167.38 157.479C1164.59 149.051 1167.44 140.545 1173.75 138.462C1180.06 136.38 1187.44 141.527 1190.24 149.955ZM1165.6 170.719C1169.29 177.084 1168.4 184.49 1163.61 187.241C1158.82 189.991 1151.95 187.064 1148.27 180.699C1144.6 174.334 1145.46 166.928 1150.25 164.178C1155.03 161.427 1161.91 164.354 1165.58 170.719H1165.6ZM1159.51 210.52C1169.74 182.762 1187.93 175.709 1196 175.709C1204.07 175.709 1222.26 182.762 1232.49 210.52C1233.2 212.425 1233.51 214.468 1233.51 216.512V216.826C1233.51 221.894 1229.42 226 1224.38 226C1222.14 226 1219.91 225.725 1217.74 225.175L1200.55 220.853C1197.56 220.107 1194.44 220.107 1191.45 220.853L1174.26 225.175C1172.09 225.725 1169.86 226 1167.61 226C1162.57 226 1158.49 221.894 1158.49 216.826V216.512C1158.49 214.468 1158.8 212.425 1159.51 210.52ZM1228.39 187.241C1223.6 184.49 1222.7 177.084 1226.4 170.719C1230.09 164.354 1236.95 161.427 1241.73 164.178C1246.52 166.928 1247.42 174.334 1243.72 180.699C1240.03 187.064 1233.18 189.991 1228.39 187.241ZM1206.57 168.971C1200.26 166.889 1197.41 158.382 1200.2 149.955C1202.99 141.527 1210.38 136.38 1216.69 138.462C1223 140.545 1225.85 149.051 1223.06 157.479C1220.26 165.906 1212.88 171.053 1206.57 168.971Z" fill="#F8F1F1"/>
</g>
<g filter="url(#filter14_d_261_590)">
<path d="M44.2365 287.955C47.0301 296.382 44.1779 304.889 37.8679 306.971C31.5579 309.053 24.1735 303.906 21.3799 295.479C18.5863 287.051 21.4385 278.545 27.7485 276.462C34.0585 274.38 41.4429 279.527 44.2365 287.955ZM19.6022 308.719C23.2944 315.084 22.3958 322.49 17.6095 325.241C12.8233 327.991 5.94681 325.064 2.27412 318.699C-1.39857 312.334 -0.539003 304.928 4.24721 302.178C9.03342 299.427 15.9099 302.354 19.5826 308.719H19.6022ZM13.5071 348.52C23.7437 320.762 41.9313 313.709 49.9995 313.709C58.0677 313.709 76.2553 320.762 86.4919 348.52C87.1952 350.425 87.5078 352.468 87.5078 354.512V354.826C87.5078 359.894 83.4249 364 78.3847 364C76.1381 364 73.911 363.725 71.7426 363.175L54.5513 358.853C51.5624 358.107 48.4367 358.107 45.4477 358.853L28.2564 363.175C26.088 363.725 23.8609 364 21.6143 364C16.5742 364 12.4912 359.894 12.4912 354.826V354.512C12.4912 352.468 12.8038 350.425 13.5071 348.52ZM82.3895 325.241C77.6033 322.49 76.7046 315.084 80.3969 308.719C84.0891 302.354 90.9461 299.427 95.7323 302.178C100.518 304.928 101.417 312.334 97.7249 318.699C94.0327 325.064 87.1757 327.991 82.3895 325.241ZM60.5683 306.971C54.2583 304.889 51.4061 296.382 54.1997 287.955C56.9932 279.527 64.3777 274.38 70.6877 276.462C76.9977 278.545 79.8499 287.051 77.0563 295.479C74.2627 303.906 66.8782 309.053 60.5683 306.971Z" fill="#F8F1F1"/>
</g>
<g filter="url(#filter15_d_261_590)">
<path d="M235.237 287.955C238.03 296.382 235.178 304.889 228.868 306.971C222.558 309.053 215.173 303.906 212.38 295.479C209.586 287.051 212.439 278.545 218.748 276.462C225.058 274.38 232.443 279.527 235.237 287.955ZM210.602 308.719C214.294 315.084 213.396 322.49 208.61 325.241C203.823 327.991 196.947 325.064 193.274 318.699C189.601 312.334 190.461 304.928 195.247 302.178C200.033 299.427 206.91 302.354 210.583 308.719H210.602ZM204.507 348.52C214.744 320.762 232.931 313.709 241 313.709C249.068 313.709 267.255 320.762 277.492 348.52C278.195 350.425 278.508 352.468 278.508 354.512V354.826C278.508 359.894 274.425 364 269.385 364C267.138 364 264.911 363.725 262.743 363.175L245.551 358.853C242.562 358.107 239.437 358.107 236.448 358.853L219.256 363.175C217.088 363.725 214.861 364 212.614 364C207.574 364 203.491 359.894 203.491 354.826V354.512C203.491 352.468 203.804 350.425 204.507 348.52ZM273.389 325.241C268.603 322.49 267.705 315.084 271.397 308.719C275.089 302.354 281.946 299.427 286.732 302.178C291.518 304.928 292.417 312.334 288.725 318.699C285.033 325.064 278.176 327.991 273.389 325.241ZM251.568 306.971C245.258 304.889 242.406 296.382 245.2 287.955C247.993 279.527 255.378 274.38 261.688 276.462C267.998 278.545 270.85 287.051 268.056 295.479C265.263 303.906 257.878 309.053 251.568 306.971Z" fill="#F8F1F1"/>
</g>
<g filter="url(#filter16_d_261_590)">
<path d="M426.237 287.955C429.03 296.382 426.178 304.889 419.868 306.971C413.558 309.053 406.173 303.906 403.38 295.479C400.586 287.051 403.439 278.545 409.748 276.462C416.058 274.38 423.443 279.527 426.237 287.955ZM401.602 308.719C405.294 315.084 404.396 322.49 399.61 325.241C394.823 327.991 387.947 325.064 384.274 318.699C380.601 312.334 381.461 304.928 386.247 302.178C391.033 299.427 397.91 302.354 401.583 308.719H401.602ZM395.507 348.52C405.744 320.762 423.931 313.709 432 313.709C440.068 313.709 458.255 320.762 468.492 348.52C469.195 350.425 469.508 352.468 469.508 354.512V354.826C469.508 359.894 465.425 364 460.385 364C458.138 364 455.911 363.725 453.743 363.175L436.551 358.853C433.562 358.107 430.437 358.107 427.448 358.853L410.256 363.175C408.088 363.725 405.861 364 403.614 364C398.574 364 394.491 359.894 394.491 354.826V354.512C394.491 352.468 394.804 350.425 395.507 348.52ZM464.389 325.241C459.603 322.49 458.705 315.084 462.397 308.719C466.089 302.354 472.946 299.427 477.732 302.178C482.518 304.928 483.417 312.334 479.725 318.699C476.033 325.064 469.176 327.991 464.389 325.241ZM442.568 306.971C436.258 304.889 433.406 296.382 436.2 287.955C438.993 279.527 446.378 274.38 452.688 276.462C458.998 278.545 461.85 287.051 459.056 295.479C456.263 303.906 448.878 309.053 442.568 306.971Z" fill="#F8F1F1"/>
</g>
<g filter="url(#filter17_d_261_590)">
<path d="M617.237 287.955C620.03 296.382 617.178 304.889 610.868 306.971C604.558 309.053 597.173 303.906 594.38 295.479C591.586 287.051 594.439 278.545 600.748 276.462C607.058 274.38 614.443 279.527 617.237 287.955ZM592.602 308.719C596.294 315.084 595.396 322.49 590.61 325.241C585.823 327.991 578.947 325.064 575.274 318.699C571.601 312.334 572.461 304.928 577.247 302.178C582.033 299.427 588.91 302.354 592.583 308.719H592.602ZM586.507 348.52C596.744 320.762 614.931 313.709 623 313.709C631.068 313.709 649.255 320.762 659.492 348.52C660.195 350.425 660.508 352.468 660.508 354.512V354.826C660.508 359.894 656.425 364 651.385 364C649.138 364 646.911 363.725 644.743 363.175L627.551 358.853C624.562 358.107 621.437 358.107 618.448 358.853L601.256 363.175C599.088 363.725 596.861 364 594.614 364C589.574 364 585.491 359.894 585.491 354.826V354.512C585.491 352.468 585.804 350.425 586.507 348.52ZM655.389 325.241C650.603 322.49 649.705 315.084 653.397 308.719C657.089 302.354 663.946 299.427 668.732 302.178C673.518 304.928 674.417 312.334 670.725 318.699C667.033 325.064 660.176 327.991 655.389 325.241ZM633.568 306.971C627.258 304.889 624.406 296.382 627.2 287.955C629.993 279.527 637.378 274.38 643.688 276.462C649.998 278.545 652.85 287.051 650.056 295.479C647.263 303.906 639.878 309.053 633.568 306.971Z" fill="#F8F1F1"/>
</g>
<g filter="url(#filter18_d_261_590)">
<path d="M808.237 287.955C811.03 296.382 808.178 304.889 801.868 306.971C795.558 309.053 788.173 303.906 785.38 295.479C782.586 287.051 785.439 278.545 791.748 276.462C798.058 274.38 805.443 279.527 808.237 287.955ZM783.602 308.719C787.294 315.084 786.396 322.49 781.61 325.241C776.823 327.991 769.947 325.064 766.274 318.699C762.601 312.334 763.461 304.928 768.247 302.178C773.033 299.427 779.91 302.354 783.583 308.719H783.602ZM777.507 348.52C787.744 320.762 805.931 313.709 814 313.709C822.068 313.709 840.255 320.762 850.492 348.52C851.195 350.425 851.508 352.468 851.508 354.512V354.826C851.508 359.894 847.425 364 842.385 364C840.138 364 837.911 363.725 835.743 363.175L818.551 358.853C815.562 358.107 812.437 358.107 809.448 358.853L792.256 363.175C790.088 363.725 787.861 364 785.614 364C780.574 364 776.491 359.894 776.491 354.826V354.512C776.491 352.468 776.804 350.425 777.507 348.52ZM846.389 325.241C841.603 322.49 840.705 315.084 844.397 308.719C848.089 302.354 854.946 299.427 859.732 302.178C864.518 304.928 865.417 312.334 861.725 318.699C858.033 325.064 851.176 327.991 846.389 325.241ZM824.568 306.971C818.258 304.889 815.406 296.382 818.2 287.955C820.993 279.527 828.378 274.38 834.688 276.462C840.998 278.545 843.85 287.051 841.056 295.479C838.263 303.906 830.878 309.053 824.568 306.971Z" fill="#F8F1F1"/>
</g>
<g filter="url(#filter19_d_261_590)">
<path d="M999.237 287.955C1002.03 296.382 999.178 304.889 992.868 306.971C986.558 309.053 979.173 303.906 976.38 295.479C973.586 287.051 976.439 278.545 982.748 276.462C989.058 274.38 996.443 279.527 999.237 287.955ZM974.602 308.719C978.294 315.084 977.396 322.49 972.61 325.241C967.823 327.991 960.947 325.064 957.274 318.699C953.601 312.334 954.461 304.928 959.247 302.178C964.033 299.427 970.91 302.354 974.583 308.719H974.602ZM968.507 348.52C978.744 320.762 996.931 313.709 1005 313.709C1013.07 313.709 1031.26 320.762 1041.49 348.52C1042.2 350.425 1042.51 352.468 1042.51 354.512V354.826C1042.51 359.894 1038.42 364 1033.38 364C1031.14 364 1028.91 363.725 1026.74 363.175L1009.55 358.853C1006.56 358.107 1003.44 358.107 1000.45 358.853L983.256 363.175C981.088 363.725 978.861 364 976.614 364C971.574 364 967.491 359.894 967.491 354.826V354.512C967.491 352.468 967.804 350.425 968.507 348.52ZM1037.39 325.241C1032.6 322.49 1031.7 315.084 1035.4 308.719C1039.09 302.354 1045.95 299.427 1050.73 302.178C1055.52 304.928 1056.42 312.334 1052.72 318.699C1049.03 325.064 1042.18 327.991 1037.39 325.241ZM1015.57 306.971C1009.26 304.889 1006.41 296.382 1009.2 287.955C1011.99 279.527 1019.38 274.38 1025.69 276.462C1032 278.545 1034.85 287.051 1032.06 295.479C1029.26 303.906 1021.88 309.053 1015.57 306.971Z" fill="#F8F1F1"/>
</g>
<g filter="url(#filter20_d_261_590)">
<path d="M1190.24 287.955C1193.03 296.382 1190.18 304.889 1183.87 306.971C1177.56 309.053 1170.17 303.906 1167.38 295.479C1164.59 287.051 1167.44 278.545 1173.75 276.462C1180.06 274.38 1187.44 279.527 1190.24 287.955ZM1165.6 308.719C1169.29 315.084 1168.4 322.49 1163.61 325.241C1158.82 327.991 1151.95 325.064 1148.27 318.699C1144.6 312.334 1145.46 304.928 1150.25 302.178C1155.03 299.427 1161.91 302.354 1165.58 308.719H1165.6ZM1159.51 348.52C1169.74 320.762 1187.93 313.709 1196 313.709C1204.07 313.709 1222.26 320.762 1232.49 348.52C1233.2 350.425 1233.51 352.468 1233.51 354.512V354.826C1233.51 359.894 1229.42 364 1224.38 364C1222.14 364 1219.91 363.725 1217.74 363.175L1200.55 358.853C1197.56 358.107 1194.44 358.107 1191.45 358.853L1174.26 363.175C1172.09 363.725 1169.86 364 1167.61 364C1162.57 364 1158.49 359.894 1158.49 354.826V354.512C1158.49 352.468 1158.8 350.425 1159.51 348.52ZM1228.39 325.241C1223.6 322.49 1222.7 315.084 1226.4 308.719C1230.09 302.354 1236.95 299.427 1241.73 302.178C1246.52 304.928 1247.42 312.334 1243.72 318.699C1240.03 325.064 1233.18 327.991 1228.39 325.241ZM1206.57 306.971C1200.26 304.889 1197.41 296.382 1200.2 287.955C1202.99 279.527 1210.38 274.38 1216.69 276.462C1223 278.545 1225.85 287.051 1223.06 295.479C1220.26 303.906 1212.88 309.053 1206.57 306.971Z" fill="#F8F1F1"/>
</g>
<g filter="url(#filter21_d_261_590)">
<path d="M44.2365 425.955C47.0301 434.382 44.1779 442.889 37.8679 444.971C31.5579 447.053 24.1735 441.906 21.3799 433.479C18.5863 425.051 21.4385 416.545 27.7485 414.462C34.0585 412.38 41.4429 417.527 44.2365 425.955ZM19.6022 446.719C23.2944 453.084 22.3958 460.49 17.6095 463.241C12.8233 465.991 5.94681 463.064 2.27412 456.699C-1.39857 450.334 -0.539003 442.928 4.24721 440.178C9.03342 437.427 15.9099 440.354 19.5826 446.719H19.6022ZM13.5071 486.52C23.7437 458.762 41.9313 451.709 49.9995 451.709C58.0677 451.709 76.2553 458.762 86.4919 486.52C87.1952 488.425 87.5078 490.468 87.5078 492.512V492.826C87.5078 497.894 83.4249 502 78.3847 502C76.1381 502 73.911 501.725 71.7426 501.175L54.5513 496.853C51.5624 496.107 48.4367 496.107 45.4477 496.853L28.2564 501.175C26.088 501.725 23.8609 502 21.6143 502C16.5742 502 12.4912 497.894 12.4912 492.826V492.512C12.4912 490.468 12.8038 488.425 13.5071 486.52ZM82.3895 463.241C77.6033 460.49 76.7046 453.084 80.3969 446.719C84.0891 440.354 90.9461 437.427 95.7323 440.178C100.518 442.928 101.417 450.334 97.7249 456.699C94.0327 463.064 87.1757 465.991 82.3895 463.241ZM60.5683 444.971C54.2583 442.889 51.4061 434.382 54.1997 425.955C56.9932 417.527 64.3777 412.38 70.6877 414.462C76.9977 416.545 79.8499 425.051 77.0563 433.479C74.2627 441.906 66.8782 447.053 60.5683 444.971Z" fill="#F8F1F1"/>
</g>
<g filter="url(#filter22_d_261_590)">
<path d="M235.237 425.955C238.03 434.382 235.178 442.889 228.868 444.971C222.558 447.053 215.173 441.906 212.38 433.479C209.586 425.051 212.439 416.545 218.748 414.462C225.058 412.38 232.443 417.527 235.237 425.955ZM210.602 446.719C214.294 453.084 213.396 460.49 208.61 463.241C203.823 465.991 196.947 463.064 193.274 456.699C189.601 450.334 190.461 442.928 195.247 440.178C200.033 437.427 206.91 440.354 210.583 446.719H210.602ZM204.507 486.52C214.744 458.762 232.931 451.709 241 451.709C249.068 451.709 267.255 458.762 277.492 486.52C278.195 488.425 278.508 490.468 278.508 492.512V492.826C278.508 497.894 274.425 502 269.385 502C267.138 502 264.911 501.725 262.743 501.175L245.551 496.853C242.562 496.107 239.437 496.107 236.448 496.853L219.256 501.175C217.088 501.725 214.861 502 212.614 502C207.574 502 203.491 497.894 203.491 492.826V492.512C203.491 490.468 203.804 488.425 204.507 486.52ZM273.389 463.241C268.603 460.49 267.705 453.084 271.397 446.719C275.089 440.354 281.946 437.427 286.732 440.178C291.518 442.928 292.417 450.334 288.725 456.699C285.033 463.064 278.176 465.991 273.389 463.241ZM251.568 444.971C245.258 442.889 242.406 434.382 245.2 425.955C247.993 417.527 255.378 412.38 261.688 414.462C267.998 416.545 270.85 425.051 268.056 433.479C265.263 441.906 257.878 447.053 251.568 444.971Z" fill="#F8F1F1"/>
</g>
<g filter="url(#filter23_d_261_590)">
<path d="M426.237 425.955C429.03 434.382 426.178 442.889 419.868 444.971C413.558 447.053 406.173 441.906 403.38 433.479C400.586 425.051 403.439 416.545 409.748 414.462C416.058 412.38 423.443 417.527 426.237 425.955ZM401.602 446.719C405.294 453.084 404.396 460.49 399.61 463.241C394.823 465.991 387.947 463.064 384.274 456.699C380.601 450.334 381.461 442.928 386.247 440.178C391.033 437.427 397.91 440.354 401.583 446.719H401.602ZM395.507 486.52C405.744 458.762 423.931 451.709 432 451.709C440.068 451.709 458.255 458.762 468.492 486.52C469.195 488.425 469.508 490.468 469.508 492.512V492.826C469.508 497.894 465.425 502 460.385 502C458.138 502 455.911 501.725 453.743 501.175L436.551 496.853C433.562 496.107 430.437 496.107 427.448 496.853L410.256 501.175C408.088 501.725 405.861 502 403.614 502C398.574 502 394.491 497.894 394.491 492.826V492.512C394.491 490.468 394.804 488.425 395.507 486.52ZM464.389 463.241C459.603 460.49 458.705 453.084 462.397 446.719C466.089 440.354 472.946 437.427 477.732 440.178C482.518 442.928 483.417 450.334 479.725 456.699C476.033 463.064 469.176 465.991 464.389 463.241ZM442.568 444.971C436.258 442.889 433.406 434.382 436.2 425.955C438.993 417.527 446.378 412.38 452.688 414.462C458.998 416.545 461.85 425.051 459.056 433.479C456.263 441.906 448.878 447.053 442.568 444.971Z" fill="#F8F1F1"/>
</g>
<g filter="url(#filter24_d_261_590)">
<path d="M617.237 425.955C620.03 434.382 617.178 442.889 610.868 444.971C604.558 447.053 597.173 441.906 594.38 433.479C591.586 425.051 594.439 416.545 600.748 414.462C607.058 412.38 614.443 417.527 617.237 425.955ZM592.602 446.719C596.294 453.084 595.396 460.49 590.61 463.241C585.823 465.991 578.947 463.064 575.274 456.699C571.601 450.334 572.461 442.928 577.247 440.178C582.033 437.427 588.91 440.354 592.583 446.719H592.602ZM586.507 486.52C596.744 458.762 614.931 451.709 623 451.709C631.068 451.709 649.255 458.762 659.492 486.52C660.195 488.425 660.508 490.468 660.508 492.512V492.826C660.508 497.894 656.425 502 651.385 502C649.138 502 646.911 501.725 644.743 501.175L627.551 496.853C624.562 496.107 621.437 496.107 618.448 496.853L601.256 501.175C599.088 501.725 596.861 502 594.614 502C589.574 502 585.491 497.894 585.491 492.826V492.512C585.491 490.468 585.804 488.425 586.507 486.52ZM655.389 463.241C650.603 460.49 649.705 453.084 653.397 446.719C657.089 440.354 663.946 437.427 668.732 440.178C673.518 442.928 674.417 450.334 670.725 456.699C667.033 463.064 660.176 465.991 655.389 463.241ZM633.568 444.971C627.258 442.889 624.406 434.382 627.2 425.955C629.993 417.527 637.378 412.38 643.688 414.462C649.998 416.545 652.85 425.051 650.056 433.479C647.263 441.906 639.878 447.053 633.568 444.971Z" fill="#F8F1F1"/>
</g>
<g filter="url(#filter25_d_261_590)">
<path d="M808.237 425.955C811.03 434.382 808.178 442.889 801.868 444.971C795.558 447.053 788.173 441.906 785.38 433.479C782.586 425.051 785.439 416.545 791.748 414.462C798.058 412.38 805.443 417.527 808.237 425.955ZM783.602 446.719C787.294 453.084 786.396 460.49 781.61 463.241C776.823 465.991 769.947 463.064 766.274 456.699C762.601 450.334 763.461 442.928 768.247 440.178C773.033 437.427 779.91 440.354 783.583 446.719H783.602ZM777.507 486.52C787.744 458.762 805.931 451.709 814 451.709C822.068 451.709 840.255 458.762 850.492 486.52C851.195 488.425 851.508 490.468 851.508 492.512V492.826C851.508 497.894 847.425 502 842.385 502C840.138 502 837.911 501.725 835.743 501.175L818.551 496.853C815.562 496.107 812.437 496.107 809.448 496.853L792.256 501.175C790.088 501.725 787.861 502 785.614 502C780.574 502 776.491 497.894 776.491 492.826V492.512C776.491 490.468 776.804 488.425 777.507 486.52ZM846.389 463.241C841.603 460.49 840.705 453.084 844.397 446.719C848.089 440.354 854.946 437.427 859.732 440.178C864.518 442.928 865.417 450.334 861.725 456.699C858.033 463.064 851.176 465.991 846.389 463.241ZM824.568 444.971C818.258 442.889 815.406 434.382 818.2 425.955C820.993 417.527 828.378 412.38 834.688 414.462C840.998 416.545 843.85 425.051 841.056 433.479C838.263 441.906 830.878 447.053 824.568 444.971Z" fill="#F8F1F1"/>
</g>
<g filter="url(#filter26_d_261_590)">
<path d="M999.237 425.955C1002.03 434.382 999.178 442.889 992.868 444.971C986.558 447.053 979.173 441.906 976.38 433.479C973.586 425.051 976.439 416.545 982.748 414.462C989.058 412.38 996.443 417.527 999.237 425.955ZM974.602 446.719C978.294 453.084 977.396 460.49 972.61 463.241C967.823 465.991 960.947 463.064 957.274 456.699C953.601 450.334 954.461 442.928 959.247 440.178C964.033 437.427 970.91 440.354 974.583 446.719H974.602ZM968.507 486.52C978.744 458.762 996.931 451.709 1005 451.709C1013.07 451.709 1031.26 458.762 1041.49 486.52C1042.2 488.425 1042.51 490.468 1042.51 492.512V492.826C1042.51 497.894 1038.42 502 1033.38 502C1031.14 502 1028.91 501.725 1026.74 501.175L1009.55 496.853C1006.56 496.107 1003.44 496.107 1000.45 496.853L983.256 501.175C981.088 501.725 978.861 502 976.614 502C971.574 502 967.491 497.894 967.491 492.826V492.512C967.491 490.468 967.804 488.425 968.507 486.52ZM1037.39 463.241C1032.6 460.49 1031.7 453.084 1035.4 446.719C1039.09 440.354 1045.95 437.427 1050.73 440.178C1055.52 442.928 1056.42 450.334 1052.72 456.699C1049.03 463.064 1042.18 465.991 1037.39 463.241ZM1015.57 444.971C1009.26 442.889 1006.41 434.382 1009.2 425.955C1011.99 417.527 1019.38 412.38 1025.69 414.462C1032 416.545 1034.85 425.051 1032.06 433.479C1029.26 441.906 1021.88 447.053 1015.57 444.971Z" fill="#F8F1F1"/>
</g>
<g filter="url(#filter27_d_261_590)">
<path d="M1190.24 425.955C1193.03 434.382 1190.18 442.889 1183.87 444.971C1177.56 447.053 1170.17 441.906 1167.38 433.479C1164.59 425.051 1167.44 416.545 1173.75 414.462C1180.06 412.38 1187.44 417.527 1190.24 425.955ZM1165.6 446.719C1169.29 453.084 1168.4 460.49 1163.61 463.241C1158.82 465.991 1151.95 463.064 1148.27 456.699C1144.6 450.334 1145.46 442.928 1150.25 440.178C1155.03 437.427 1161.91 440.354 1165.58 446.719H1165.6ZM1159.51 486.52C1169.74 458.762 1187.93 451.709 1196 451.709C1204.07 451.709 1222.26 458.762 1232.49 486.52C1233.2 488.425 1233.51 490.468 1233.51 492.512V492.826C1233.51 497.894 1229.42 502 1224.38 502C1222.14 502 1219.91 501.725 1217.74 501.175L1200.55 496.853C1197.56 496.107 1194.44 496.107 1191.45 496.853L1174.26 501.175C1172.09 501.725 1169.86 502 1167.61 502C1162.57 502 1158.49 497.894 1158.49 492.826V492.512C1158.49 490.468 1158.8 488.425 1159.51 486.52ZM1228.39 463.241C1223.6 460.49 1222.7 453.084 1226.4 446.719C1230.09 440.354 1236.95 437.427 1241.73 440.178C1246.52 442.928 1247.42 450.334 1243.72 456.699C1240.03 463.064 1233.18 465.991 1228.39 463.241ZM1206.57 444.971C1200.26 442.889 1197.41 434.382 1200.2 425.955C1202.99 417.527 1210.38 412.38 1216.69 414.462C1223 416.545 1225.85 425.051 1223.06 433.479C1220.26 441.906 1212.88 447.053 1206.57 444.971Z" fill="#F8F1F1"/>
</g>
<g filter="url(#filter28_d_261_590)">
<path d="M44.2365 563.955C47.0301 572.382 44.1779 580.889 37.8679 582.971C31.5579 585.053 24.1735 579.906 21.3799 571.479C18.5863 563.051 21.4385 554.545 27.7485 552.462C34.0585 550.38 41.4429 555.527 44.2365 563.955ZM19.6022 584.719C23.2944 591.084 22.3958 598.49 17.6095 601.241C12.8233 603.991 5.94681 601.064 2.27412 594.699C-1.39857 588.334 -0.539003 580.928 4.24721 578.178C9.03342 575.427 15.9099 578.354 19.5826 584.719H19.6022ZM13.5071 624.52C23.7437 596.762 41.9313 589.709 49.9995 589.709C58.0677 589.709 76.2553 596.762 86.4919 624.52C87.1952 626.425 87.5078 628.468 87.5078 630.512V630.826C87.5078 635.894 83.4249 640 78.3847 640C76.1381 640 73.911 639.725 71.7426 639.175L54.5513 634.853C51.5624 634.107 48.4367 634.107 45.4477 634.853L28.2564 639.175C26.088 639.725 23.8609 640 21.6143 640C16.5742 640 12.4912 635.894 12.4912 630.826V630.512C12.4912 628.468 12.8038 626.425 13.5071 624.52ZM82.3895 601.241C77.6033 598.49 76.7046 591.084 80.3969 584.719C84.0891 578.354 90.9461 575.427 95.7323 578.178C100.518 580.928 101.417 588.334 97.7249 594.699C94.0327 601.064 87.1757 603.991 82.3895 601.241ZM60.5683 582.971C54.2583 580.889 51.4061 572.382 54.1997 563.955C56.9932 555.527 64.3777 550.38 70.6877 552.462C76.9977 554.545 79.8499 563.051 77.0563 571.479C74.2627 579.906 66.8782 585.053 60.5683 582.971Z" fill="#F8F1F1"/>
</g>
<g filter="url(#filter29_d_261_590)">
<path d="M235.237 563.955C238.03 572.382 235.178 580.889 228.868 582.971C222.558 585.053 215.173 579.906 212.38 571.479C209.586 563.051 212.439 554.545 218.748 552.462C225.058 550.38 232.443 555.527 235.237 563.955ZM210.602 584.719C214.294 591.084 213.396 598.49 208.61 601.241C203.823 603.991 196.947 601.064 193.274 594.699C189.601 588.334 190.461 580.928 195.247 578.178C200.033 575.427 206.91 578.354 210.583 584.719H210.602ZM204.507 624.52C214.744 596.762 232.931 589.709 241 589.709C249.068 589.709 267.255 596.762 277.492 624.52C278.195 626.425 278.508 628.468 278.508 630.512V630.826C278.508 635.894 274.425 640 269.385 640C267.138 640 264.911 639.725 262.743 639.175L245.551 634.853C242.562 634.107 239.437 634.107 236.448 634.853L219.256 639.175C217.088 639.725 214.861 640 212.614 640C207.574 640 203.491 635.894 203.491 630.826V630.512C203.491 628.468 203.804 626.425 204.507 624.52ZM273.389 601.241C268.603 598.49 267.705 591.084 271.397 584.719C275.089 578.354 281.946 575.427 286.732 578.178C291.518 580.928 292.417 588.334 288.725 594.699C285.033 601.064 278.176 603.991 273.389 601.241ZM251.568 582.971C245.258 580.889 242.406 572.382 245.2 563.955C247.993 555.527 255.378 550.38 261.688 552.462C267.998 554.545 270.85 563.051 268.056 571.479C265.263 579.906 257.878 585.053 251.568 582.971Z" fill="#F8F1F1"/>
</g>
<g filter="url(#filter30_d_261_590)">
<path d="M426.237 563.955C429.03 572.382 426.178 580.889 419.868 582.971C413.558 585.053 406.173 579.906 403.38 571.479C400.586 563.051 403.439 554.545 409.748 552.462C416.058 550.38 423.443 555.527 426.237 563.955ZM401.602 584.719C405.294 591.084 404.396 598.49 399.61 601.241C394.823 603.991 387.947 601.064 384.274 594.699C380.601 588.334 381.461 580.928 386.247 578.178C391.033 575.427 397.91 578.354 401.583 584.719H401.602ZM395.507 624.52C405.744 596.762 423.931 589.709 432 589.709C440.068 589.709 458.255 596.762 468.492 624.52C469.195 626.425 469.508 628.468 469.508 630.512V630.826C469.508 635.894 465.425 640 460.385 640C458.138 640 455.911 639.725 453.743 639.175L436.551 634.853C433.562 634.107 430.437 634.107 427.448 634.853L410.256 639.175C408.088 639.725 405.861 640 403.614 640C398.574 640 394.491 635.894 394.491 630.826V630.512C394.491 628.468 394.804 626.425 395.507 624.52ZM464.389 601.241C459.603 598.49 458.705 591.084 462.397 584.719C466.089 578.354 472.946 575.427 477.732 578.178C482.518 580.928 483.417 588.334 479.725 594.699C476.033 601.064 469.176 603.991 464.389 601.241ZM442.568 582.971C436.258 580.889 433.406 572.382 436.2 563.955C438.993 555.527 446.378 550.38 452.688 552.462C458.998 554.545 461.85 563.051 459.056 571.479C456.263 579.906 448.878 585.053 442.568 582.971Z" fill="#F8F1F1"/>
</g>
<g filter="url(#filter31_d_261_590)">
<path d="M617.237 563.955C620.03 572.382 617.178 580.889 610.868 582.971C604.558 585.053 597.173 579.906 594.38 571.479C591.586 563.051 594.439 554.545 600.748 552.462C607.058 550.38 614.443 555.527 617.237 563.955ZM592.602 584.719C596.294 591.084 595.396 598.49 590.61 601.241C585.823 603.991 578.947 601.064 575.274 594.699C571.601 588.334 572.461 580.928 577.247 578.178C582.033 575.427 588.91 578.354 592.583 584.719H592.602ZM586.507 624.52C596.744 596.762 614.931 589.709 623 589.709C631.068 589.709 649.255 596.762 659.492 624.52C660.195 626.425 660.508 628.468 660.508 630.512V630.826C660.508 635.894 656.425 640 651.385 640C649.138 640 646.911 639.725 644.743 639.175L627.551 634.853C624.562 634.107 621.437 634.107 618.448 634.853L601.256 639.175C599.088 639.725 596.861 640 594.614 640C589.574 640 585.491 635.894 585.491 630.826V630.512C585.491 628.468 585.804 626.425 586.507 624.52ZM655.389 601.241C650.603 598.49 649.705 591.084 653.397 584.719C657.089 578.354 663.946 575.427 668.732 578.178C673.518 580.928 674.417 588.334 670.725 594.699C667.033 601.064 660.176 603.991 655.389 601.241ZM633.568 582.971C627.258 580.889 624.406 572.382 627.2 563.955C629.993 555.527 637.378 550.38 643.688 552.462C649.998 554.545 652.85 563.051 650.056 571.479C647.263 579.906 639.878 585.053 633.568 582.971Z" fill="#F8F1F1"/>
</g>
<g filter="url(#filter32_d_261_590)">
<path d="M808.237 563.955C811.03 572.382 808.178 580.889 801.868 582.971C795.558 585.053 788.173 579.906 785.38 571.479C782.586 563.051 785.439 554.545 791.748 552.462C798.058 550.38 805.443 555.527 808.237 563.955ZM783.602 584.719C787.294 591.084 786.396 598.49 781.61 601.241C776.823 603.991 769.947 601.064 766.274 594.699C762.601 588.334 763.461 580.928 768.247 578.178C773.033 575.427 779.91 578.354 783.583 584.719H783.602ZM777.507 624.52C787.744 596.762 805.931 589.709 814 589.709C822.068 589.709 840.255 596.762 850.492 624.52C851.195 626.425 851.508 628.468 851.508 630.512V630.826C851.508 635.894 847.425 640 842.385 640C840.138 640 837.911 639.725 835.743 639.175L818.551 634.853C815.562 634.107 812.437 634.107 809.448 634.853L792.256 639.175C790.088 639.725 787.861 640 785.614 640C780.574 640 776.491 635.894 776.491 630.826V630.512C776.491 628.468 776.804 626.425 777.507 624.52ZM846.389 601.241C841.603 598.49 840.705 591.084 844.397 584.719C848.089 578.354 854.946 575.427 859.732 578.178C864.518 580.928 865.417 588.334 861.725 594.699C858.033 601.064 851.176 603.991 846.389 601.241ZM824.568 582.971C818.258 580.889 815.406 572.382 818.2 563.955C820.993 555.527 828.378 550.38 834.688 552.462C840.998 554.545 843.85 563.051 841.056 571.479C838.263 579.906 830.878 585.053 824.568 582.971Z" fill="#F8F1F1"/>
</g>
<g filter="url(#filter33_d_261_590)">
<path d="M999.237 563.955C1002.03 572.382 999.178 580.889 992.868 582.971C986.558 585.053 979.173 579.906 976.38 571.479C973.586 563.051 976.439 554.545 982.748 552.462C989.058 550.38 996.443 555.527 999.237 563.955ZM974.602 584.719C978.294 591.084 977.396 598.49 972.61 601.241C967.823 603.991 960.947 601.064 957.274 594.699C953.601 588.334 954.461 580.928 959.247 578.178C964.033 575.427 970.91 578.354 974.583 584.719H974.602ZM968.507 624.52C978.744 596.762 996.931 589.709 1005 589.709C1013.07 589.709 1031.26 596.762 1041.49 624.52C1042.2 626.425 1042.51 628.468 1042.51 630.512V630.826C1042.51 635.894 1038.42 640 1033.38 640C1031.14 640 1028.91 639.725 1026.74 639.175L1009.55 634.853C1006.56 634.107 1003.44 634.107 1000.45 634.853L983.256 639.175C981.088 639.725 978.861 640 976.614 640C971.574 640 967.491 635.894 967.491 630.826V630.512C967.491 628.468 967.804 626.425 968.507 624.52ZM1037.39 601.241C1032.6 598.49 1031.7 591.084 1035.4 584.719C1039.09 578.354 1045.95 575.427 1050.73 578.178C1055.52 580.928 1056.42 588.334 1052.72 594.699C1049.03 601.064 1042.18 603.991 1037.39 601.241ZM1015.57 582.971C1009.26 580.889 1006.41 572.382 1009.2 563.955C1011.99 555.527 1019.38 550.38 1025.69 552.462C1032 554.545 1034.85 563.051 1032.06 571.479C1029.26 579.906 1021.88 585.053 1015.57 582.971Z" fill="#F8F1F1"/>
</g>
<g filter="url(#filter34_d_261_590)">
<path d="M1190.24 563.955C1193.03 572.382 1190.18 580.889 1183.87 582.971C1177.56 585.053 1170.17 579.906 1167.38 571.479C1164.59 563.051 1167.44 554.545 1173.75 552.462C1180.06 550.38 1187.44 555.527 1190.24 563.955ZM1165.6 584.719C1169.29 591.084 1168.4 598.49 1163.61 601.241C1158.82 603.991 1151.95 601.064 1148.27 594.699C1144.6 588.334 1145.46 580.928 1150.25 578.178C1155.03 575.427 1161.91 578.354 1165.58 584.719H1165.6ZM1159.51 624.52C1169.74 596.762 1187.93 589.709 1196 589.709C1204.07 589.709 1222.26 596.762 1232.49 624.52C1233.2 626.425 1233.51 628.468 1233.51 630.512V630.826C1233.51 635.894 1229.42 640 1224.38 640C1222.14 640 1219.91 639.725 1217.74 639.175L1200.55 634.853C1197.56 634.107 1194.44 634.107 1191.45 634.853L1174.26 639.175C1172.09 639.725 1169.86 640 1167.61 640C1162.57 640 1158.49 635.894 1158.49 630.826V630.512C1158.49 628.468 1158.8 626.425 1159.51 624.52ZM1228.39 601.241C1223.6 598.49 1222.7 591.084 1226.4 584.719C1230.09 578.354 1236.95 575.427 1241.73 578.178C1246.52 580.928 1247.42 588.334 1243.72 594.699C1240.03 601.064 1233.18 603.991 1228.39 601.241ZM1206.57 582.971C1200.26 580.889 1197.41 572.382 1200.2 563.955C1202.99 555.527 1210.38 550.38 1216.69 552.462C1223 554.545 1225.85 563.051 1223.06 571.479C1220.26 579.906 1212.88 585.053 1206.57 582.971Z" fill="#F8F1F1"/>
</g>
<g filter="url(#filter35_d_261_590)">
<path d="M44.2365 701.955C47.0301 710.382 44.1779 718.889 37.8679 720.971C31.5579 723.053 24.1735 717.906 21.3799 709.479C18.5863 701.051 21.4385 692.545 27.7485 690.462C34.0585 688.38 41.4429 693.527 44.2365 701.955ZM19.6022 722.719C23.2944 729.084 22.3958 736.49 17.6095 739.241C12.8233 741.991 5.94681 739.064 2.27412 732.699C-1.39857 726.334 -0.539003 718.928 4.24721 716.178C9.03342 713.427 15.9099 716.354 19.5826 722.719H19.6022ZM13.5071 762.52C23.7437 734.762 41.9313 727.709 49.9995 727.709C58.0677 727.709 76.2553 734.762 86.4919 762.52C87.1952 764.425 87.5078 766.468 87.5078 768.512V768.826C87.5078 773.894 83.4249 778 78.3847 778C76.1381 778 73.911 777.725 71.7426 777.175L54.5513 772.853C51.5624 772.107 48.4367 772.107 45.4477 772.853L28.2564 777.175C26.088 777.725 23.8609 778 21.6143 778C16.5742 778 12.4912 773.894 12.4912 768.826V768.512C12.4912 766.468 12.8038 764.425 13.5071 762.52ZM82.3895 739.241C77.6033 736.49 76.7046 729.084 80.3969 722.719C84.0891 716.354 90.9461 713.427 95.7323 716.178C100.518 718.928 101.417 726.334 97.7249 732.699C94.0327 739.064 87.1757 741.991 82.3895 739.241ZM60.5683 720.971C54.2583 718.889 51.4061 710.382 54.1997 701.955C56.9932 693.527 64.3777 688.38 70.6877 690.462C76.9977 692.545 79.8499 701.051 77.0563 709.479C74.2627 717.906 66.8782 723.053 60.5683 720.971Z" fill="#F8F1F1"/>
</g>
<g filter="url(#filter36_d_261_590)">
<path d="M235.237 701.955C238.03 710.382 235.178 718.889 228.868 720.971C222.558 723.053 215.173 717.906 212.38 709.479C209.586 701.051 212.439 692.545 218.748 690.462C225.058 688.38 232.443 693.527 235.237 701.955ZM210.602 722.719C214.294 729.084 213.396 736.49 208.61 739.241C203.823 741.991 196.947 739.064 193.274 732.699C189.601 726.334 190.461 718.928 195.247 716.178C200.033 713.427 206.91 716.354 210.583 722.719H210.602ZM204.507 762.52C214.744 734.762 232.931 727.709 241 727.709C249.068 727.709 267.255 734.762 277.492 762.52C278.195 764.425 278.508 766.468 278.508 768.512V768.826C278.508 773.894 274.425 778 269.385 778C267.138 778 264.911 777.725 262.743 777.175L245.551 772.853C242.562 772.107 239.437 772.107 236.448 772.853L219.256 777.175C217.088 777.725 214.861 778 212.614 778C207.574 778 203.491 773.894 203.491 768.826V768.512C203.491 766.468 203.804 764.425 204.507 762.52ZM273.389 739.241C268.603 736.49 267.705 729.084 271.397 722.719C275.089 716.354 281.946 713.427 286.732 716.178C291.518 718.928 292.417 726.334 288.725 732.699C285.033 739.064 278.176 741.991 273.389 739.241ZM251.568 720.971C245.258 718.889 242.406 710.382 245.2 701.955C247.993 693.527 255.378 688.38 261.688 690.462C267.998 692.545 270.85 701.051 268.056 709.479C265.263 717.906 257.878 723.053 251.568 720.971Z" fill="#F8F1F1"/>
</g>
<g filter="url(#filter37_d_261_590)">
<path d="M426.237 701.955C429.03 710.382 426.178 718.889 419.868 720.971C413.558 723.053 406.173 717.906 403.38 709.479C400.586 701.051 403.439 692.545 409.748 690.462C416.058 688.38 423.443 693.527 426.237 701.955ZM401.602 722.719C405.294 729.084 404.396 736.49 399.61 739.241C394.823 741.991 387.947 739.064 384.274 732.699C380.601 726.334 381.461 718.928 386.247 716.178C391.033 713.427 397.91 716.354 401.583 722.719H401.602ZM395.507 762.52C405.744 734.762 423.931 727.709 432 727.709C440.068 727.709 458.255 734.762 468.492 762.52C469.195 764.425 469.508 766.468 469.508 768.512V768.826C469.508 773.894 465.425 778 460.385 778C458.138 778 455.911 777.725 453.743 777.175L436.551 772.853C433.562 772.107 430.437 772.107 427.448 772.853L410.256 777.175C408.088 777.725 405.861 778 403.614 778C398.574 778 394.491 773.894 394.491 768.826V768.512C394.491 766.468 394.804 764.425 395.507 762.52ZM464.389 739.241C459.603 736.49 458.705 729.084 462.397 722.719C466.089 716.354 472.946 713.427 477.732 716.178C482.518 718.928 483.417 726.334 479.725 732.699C476.033 739.064 469.176 741.991 464.389 739.241ZM442.568 720.971C436.258 718.889 433.406 710.382 436.2 701.955C438.993 693.527 446.378 688.38 452.688 690.462C458.998 692.545 461.85 701.051 459.056 709.479C456.263 717.906 448.878 723.053 442.568 720.971Z" fill="#F8F1F1"/>
</g>
<g filter="url(#filter38_d_261_590)">
<path d="M617.237 701.955C620.03 710.382 617.178 718.889 610.868 720.971C604.558 723.053 597.173 717.906 594.38 709.479C591.586 701.051 594.439 692.545 600.748 690.462C607.058 688.38 614.443 693.527 617.237 701.955ZM592.602 722.719C596.294 729.084 595.396 736.49 590.61 739.241C585.823 741.991 578.947 739.064 575.274 732.699C571.601 726.334 572.461 718.928 577.247 716.178C582.033 713.427 588.91 716.354 592.583 722.719H592.602ZM586.507 762.52C596.744 734.762 614.931 727.709 623 727.709C631.068 727.709 649.255 734.762 659.492 762.52C660.195 764.425 660.508 766.468 660.508 768.512V768.826C660.508 773.894 656.425 778 651.385 778C649.138 778 646.911 777.725 644.743 777.175L627.551 772.853C624.562 772.107 621.437 772.107 618.448 772.853L601.256 777.175C599.088 777.725 596.861 778 594.614 778C589.574 778 585.491 773.894 585.491 768.826V768.512C585.491 766.468 585.804 764.425 586.507 762.52ZM655.389 739.241C650.603 736.49 649.705 729.084 653.397 722.719C657.089 716.354 663.946 713.427 668.732 716.178C673.518 718.928 674.417 726.334 670.725 732.699C667.033 739.064 660.176 741.991 655.389 739.241ZM633.568 720.971C627.258 718.889 624.406 710.382 627.2 701.955C629.993 693.527 637.378 688.38 643.688 690.462C649.998 692.545 652.85 701.051 650.056 709.479C647.263 717.906 639.878 723.053 633.568 720.971Z" fill="#F8F1F1"/>
</g>
<g filter="url(#filter39_d_261_590)">
<path d="M808.237 701.955C811.03 710.382 808.178 718.889 801.868 720.971C795.558 723.053 788.173 717.906 785.38 709.479C782.586 701.051 785.439 692.545 791.748 690.462C798.058 688.38 805.443 693.527 808.237 701.955ZM783.602 722.719C787.294 729.084 786.396 736.49 781.61 739.241C776.823 741.991 769.947 739.064 766.274 732.699C762.601 726.334 763.461 718.928 768.247 716.178C773.033 713.427 779.91 716.354 783.583 722.719H783.602ZM777.507 762.52C787.744 734.762 805.931 727.709 814 727.709C822.068 727.709 840.255 734.762 850.492 762.52C851.195 764.425 851.508 766.468 851.508 768.512V768.826C851.508 773.894 847.425 778 842.385 778C840.138 778 837.911 777.725 835.743 777.175L818.551 772.853C815.562 772.107 812.437 772.107 809.448 772.853L792.256 777.175C790.088 777.725 787.861 778 785.614 778C780.574 778 776.491 773.894 776.491 768.826V768.512C776.491 766.468 776.804 764.425 777.507 762.52ZM846.389 739.241C841.603 736.49 840.705 729.084 844.397 722.719C848.089 716.354 854.946 713.427 859.732 716.178C864.518 718.928 865.417 726.334 861.725 732.699C858.033 739.064 851.176 741.991 846.389 739.241ZM824.568 720.971C818.258 718.889 815.406 710.382 818.2 701.955C820.993 693.527 828.378 688.38 834.688 690.462C840.998 692.545 843.85 701.051 841.056 709.479C838.263 717.906 830.878 723.053 824.568 720.971Z" fill="#F8F1F1"/>
</g>
<g filter="url(#filter40_d_261_590)">
<path d="M999.237 701.955C1002.03 710.382 999.178 718.889 992.868 720.971C986.558 723.053 979.173 717.906 976.38 709.479C973.586 701.051 976.439 692.545 982.748 690.462C989.058 688.38 996.443 693.527 999.237 701.955ZM974.602 722.719C978.294 729.084 977.396 736.49 972.61 739.241C967.823 741.991 960.947 739.064 957.274 732.699C953.601 726.334 954.461 718.928 959.247 716.178C964.033 713.427 970.91 716.354 974.583 722.719H974.602ZM968.507 762.52C978.744 734.762 996.931 727.709 1005 727.709C1013.07 727.709 1031.26 734.762 1041.49 762.52C1042.2 764.425 1042.51 766.468 1042.51 768.512V768.826C1042.51 773.894 1038.42 778 1033.38 778C1031.14 778 1028.91 777.725 1026.74 777.175L1009.55 772.853C1006.56 772.107 1003.44 772.107 1000.45 772.853L983.256 777.175C981.088 777.725 978.861 778 976.614 778C971.574 778 967.491 773.894 967.491 768.826V768.512C967.491 766.468 967.804 764.425 968.507 762.52ZM1037.39 739.241C1032.6 736.49 1031.7 729.084 1035.4 722.719C1039.09 716.354 1045.95 713.427 1050.73 716.178C1055.52 718.928 1056.42 726.334 1052.72 732.699C1049.03 739.064 1042.18 741.991 1037.39 739.241ZM1015.57 720.971C1009.26 718.889 1006.41 710.382 1009.2 701.955C1011.99 693.527 1019.38 688.38 1025.69 690.462C1032 692.545 1034.85 701.051 1032.06 709.479C1029.26 717.906 1021.88 723.053 1015.57 720.971Z" fill="#F8F1F1"/>
</g>
<g filter="url(#filter41_d_261_590)">
<path d="M1190.24 701.955C1193.03 710.382 1190.18 718.889 1183.87 720.971C1177.56 723.053 1170.17 717.906 1167.38 709.479C1164.59 701.051 1167.44 692.545 1173.75 690.462C1180.06 688.38 1187.44 693.527 1190.24 701.955ZM1165.6 722.719C1169.29 729.084 1168.4 736.49 1163.61 739.241C1158.82 741.991 1151.95 739.064 1148.27 732.699C1144.6 726.334 1145.46 718.928 1150.25 716.178C1155.03 713.427 1161.91 716.354 1165.58 722.719H1165.6ZM1159.51 762.52C1169.74 734.762 1187.93 727.709 1196 727.709C1204.07 727.709 1222.26 734.762 1232.49 762.52C1233.2 764.425 1233.51 766.468 1233.51 768.512V768.826C1233.51 773.894 1229.42 778 1224.38 778C1222.14 778 1219.91 777.725 1217.74 777.175L1200.55 772.853C1197.56 772.107 1194.44 772.107 1191.45 772.853L1174.26 777.175C1172.09 777.725 1169.86 778 1167.61 778C1162.57 778 1158.49 773.894 1158.49 768.826V768.512C1158.49 766.468 1158.8 764.425 1159.51 762.52ZM1228.39 739.241C1223.6 736.49 1222.7 729.084 1226.4 722.719C1230.09 716.354 1236.95 713.427 1241.73 716.178C1246.52 718.928 1247.42 726.334 1243.72 732.699C1240.03 739.064 1233.18 741.991 1228.39 739.241ZM1206.57 720.971C1200.26 718.889 1197.41 710.382 1200.2 701.955C1202.99 693.527 1210.38 688.38 1216.69 690.462C1223 692.545 1225.85 701.051 1223.06 709.479C1220.26 717.906 1212.88 723.053 1206.57 720.971Z" fill="#F8F1F1"/>
</g>
</g>
<defs>
<filter id="filter0_d_261_590" x="-4" y="0" width="108" height="96" filterUnits="userSpaceOnUse" color-interpolation-filters="sRGB">
<feFlood flood-opacity="0" result="BackgroundImageFix"/>
<feColorMatrix in="SourceAlpha" type="matrix" values="0 0 0 0 0 0 0 0 0 0 0 0 0 0 0 0 0 0 127 0" result="hardAlpha"/>
<feOffset dy="4"/>
<feGaussianBlur stdDeviation="2"/>
<feComposite in2="hardAlpha" operator="out"/>
<feColorMatrix type="matrix" values="0 0 0 0 0 0 0 0 0 0 0 0 0 0 0 0 0 0 0.25 0"/>
<feBlend mode="normal" in2="BackgroundImageFix" result="effect1_dropShadow_261_590"/>
<feBlend mode="normal" in="SourceGraphic" in2="effect1_dropShadow_261_590" result="shape"/>
</filter>
<filter id="filter1_d_261_590" x="187" y="0" width="108" height="96" filterUnits="userSpaceOnUse" color-interpolation-filters="sRGB">
<feFlood flood-opacity="0" result="BackgroundImageFix"/>
<feColorMatrix in="SourceAlpha" type="matrix" values="0 0 0 0 0 0 0 0 0 0 0 0 0 0 0 0 0 0 127 0" result="hardAlpha"/>
<feOffset dy="4"/>
<feGaussianBlur stdDeviation="2"/>
<feComposite in2="hardAlpha" operator="out"/>
<feColorMatrix type="matrix" values="0 0 0 0 0 0 0 0 0 0 0 0 0 0 0 0 0 0 0.25 0"/>
<feBlend mode="normal" in2="BackgroundImageFix" result="effect1_dropShadow_261_590"/>
<feBlend mode="normal" in="SourceGraphic" in2="effect1_dropShadow_261_590" result="shape"/>
</filter>
<filter id="filter2_d_261_590" x="378" y="0" width="108" height="96" filterUnits="userSpaceOnUse" color-interpolation-filters="sRGB">
<feFlood flood-opacity="0" result="BackgroundImageFix"/>
<feColorMatrix in="SourceAlpha" type="matrix" values="0 0 0 0 0 0 0 0 0 0 0 0 0 0 0 0 0 0 127 0" result="hardAlpha"/>
<feOffset dy="4"/>
<feGaussianBlur stdDeviation="2"/>
<feComposite in2="hardAlpha" operator="out"/>
<feColorMatrix type="matrix" values="0 0 0 0 0 0 0 0 0 0 0 0 0 0 0 0 0 0 0.25 0"/>
<feBlend mode="normal" in2="BackgroundImageFix" result="effect1_dropShadow_261_590"/>
<feBlend mode="normal" in="SourceGraphic" in2="effect1_dropShadow_261_590" result="shape"/>
</filter>
<filter id="filter3_d_261_590" x="569" y="0" width="108" height="96" filterUnits="userSpaceOnUse" color-interpolation-filters="sRGB">
<feFlood flood-opacity="0" result="BackgroundImageFix"/>
<feColorMatrix in="SourceAlpha" type="matrix" values="0 0 0 0 0 0 0 0 0 0 0 0 0 0 0 0 0 0 127 0" result="hardAlpha"/>
<feOffset dy="4"/>
<feGaussianBlur stdDeviation="2"/>
<feComposite in2="hardAlpha" operator="out"/>
<feColorMatrix type="matrix" values="0 0 0 0 0 0 0 0 0 0 0 0 0 0 0 0 0 0 0.25 0"/>
<feBlend mode="normal" in2="BackgroundImageFix" result="effect1_dropShadow_261_590"/>
<feBlend mode="normal" in="SourceGraphic" in2="effect1_dropShadow_261_590" result="shape"/>
</filter>
<filter id="filter4_d_261_590" x="760" y="0" width="108" height="96" filterUnits="userSpaceOnUse" color-interpolation-filters="sRGB">
<feFlood flood-opacity="0" result="BackgroundImageFix"/>
<feColorMatrix in="SourceAlpha" type="matrix" values="0 0 0 0 0 0 0 0 0 0 0 0 0 0 0 0 0 0 127 0" result="hardAlpha"/>
<feOffset dy="4"/>
<feGaussianBlur stdDeviation="2"/>
<feComposite in2="hardAlpha" operator="out"/>
<feColorMatrix type="matrix" values="0 0 0 0 0 0 0 0 0 0 0 0 0 0 0 0 0 0 0.25 0"/>
<feBlend mode="normal" in2="BackgroundImageFix" result="effect1_dropShadow_261_590"/>
<feBlend mode="normal" in="SourceGraphic" in2="effect1_dropShadow_261_590" result="shape"/>
</filter>
<filter id="filter5_d_261_590" x="951" y="0" width="108" height="96" filterUnits="userSpaceOnUse" color-interpolation-filters="sRGB">
<feFlood flood-opacity="0" result="BackgroundImageFix"/>
<feColorMatrix in="SourceAlpha" type="matrix" values="0 0 0 0 0 0 0 0 0 0 0 0 0 0 0 0 0 0 127 0" result="hardAlpha"/>
<feOffset dy="4"/>
<feGaussianBlur stdDeviation="2"/>
<feComposite in2="hardAlpha" operator="out"/>
<feColorMatrix type="matrix" values="0 0 0 0 0 0 0 0 0 0 0 0 0 0 0 0 0 0 0.25 0"/>
<feBlend mode="normal" in2="BackgroundImageFix" result="effect1_dropShadow_261_590"/>
<feBlend mode="normal" in="SourceGraphic" in2="effect1_dropShadow_261_590" result="shape"/>
</filter>
<filter id="filter6_d_261_590" x="1142" y="0" width="108" height="96" filterUnits="userSpaceOnUse" color-interpolation-filters="sRGB">
<feFlood flood-opacity="0" result="BackgroundImageFix"/>
<feColorMatrix in="SourceAlpha" type="matrix" values="0 0 0 0 0 0 0 0 0 0 0 0 0 0 0 0 0 0 127 0" result="hardAlpha"/>
<feOffset dy="4"/>
<feGaussianBlur stdDeviation="2"/>
<feComposite in2="hardAlpha" operator="out"/>
<feColorMatrix type="matrix" values="0 0 0 0 0 0 0 0 0 0 0 0 0 0 0 0 0 0 0.25 0"/>
<feBlend mode="normal" in2="BackgroundImageFix" result="effect1_dropShadow_261_590"/>
<feBlend mode="normal" in="SourceGraphic" in2="effect1_dropShadow_261_590" result="shape"/>
</filter>
<filter id="filter7_d_261_590" x="-4" y="138" width="108" height="96" filterUnits="userSpaceOnUse" color-interpolation-filters="sRGB">
<feFlood flood-opacity="0" result="BackgroundImageFix"/>
<feColorMatrix in="SourceAlpha" type="matrix" values="0 0 0 0 0 0 0 0 0 0 0 0 0 0 0 0 0 0 127 0" result="hardAlpha"/>
<feOffset dy="4"/>
<feGaussianBlur stdDeviation="2"/>
<feComposite in2="hardAlpha" operator="out"/>
<feColorMatrix type="matrix" values="0 0 0 0 0 0 0 0 0 0 0 0 0 0 0 0 0 0 0.25 0"/>
<feBlend mode="normal" in2="BackgroundImageFix" result="effect1_dropShadow_261_590"/>
<feBlend mode="normal" in="SourceGraphic" in2="effect1_dropShadow_261_590" result="shape"/>
</filter>
<filter id="filter8_d_261_590" x="187" y="138" width="108" height="96" filterUnits="userSpaceOnUse" color-interpolation-filters="sRGB">
<feFlood flood-opacity="0" result="BackgroundImageFix"/>
<feColorMatrix in="SourceAlpha" type="matrix" values="0 0 0 0 0 0 0 0 0 0 0 0 0 0 0 0 0 0 127 0" result="hardAlpha"/>
<feOffset dy="4"/>
<feGaussianBlur stdDeviation="2"/>
<feComposite in2="hardAlpha" operator="out"/>
<feColorMatrix type="matrix" values="0 0 0 0 0 0 0 0 0 0 0 0 0 0 0 0 0 0 0.25 0"/>
<feBlend mode="normal" in2="BackgroundImageFix" result="effect1_dropShadow_261_590"/>
<feBlend mode="normal" in="SourceGraphic" in2="effect1_dropShadow_261_590" result="shape"/>
</filter>
<filter id="filter9_d_261_590" x="378" y="138" width="108" height="96" filterUnits="userSpaceOnUse" color-interpolation-filters="sRGB">
<feFlood flood-opacity="0" result="BackgroundImageFix"/>
<feColorMatrix in="SourceAlpha" type="matrix" values="0 0 0 0 0 0 0 0 0 0 0 0 0 0 0 0 0 0 127 0" result="hardAlpha"/>
<feOffset dy="4"/>
<feGaussianBlur stdDeviation="2"/>
<feComposite in2="hardAlpha" operator="out"/>
<feColorMatrix type="matrix" values="0 0 0 0 0 0 0 0 0 0 0 0 0 0 0 0 0 0 0.25 0"/>
<feBlend mode="normal" in2="BackgroundImageFix" result="effect1_dropShadow_261_590"/>
<feBlend mode="normal" in="SourceGraphic" in2="effect1_dropShadow_261_590" result="shape"/>
</filter>
<filter id="filter10_d_261_590" x="569" y="138" width="108" height="96" filterUnits="userSpaceOnUse" color-interpolation-filters="sRGB">
<feFlood flood-opacity="0" result="BackgroundImageFix"/>
<feColorMatrix in="SourceAlpha" type="matrix" values="0 0 0 0 0 0 0 0 0 0 0 0 0 0 0 0 0 0 127 0" result="hardAlpha"/>
<feOffset dy="4"/>
<feGaussianBlur stdDeviation="2"/>
<feComposite in2="hardAlpha" operator="out"/>
<feColorMatrix type="matrix" values="0 0 0 0 0 0 0 0 0 0 0 0 0 0 0 0 0 0 0.25 0"/>
<feBlend mode="normal" in2="BackgroundImageFix" result="effect1_dropShadow_261_590"/>
<feBlend mode="normal" in="SourceGraphic" in2="effect1_dropShadow_261_590" result="shape"/>
</filter>
<filter id="filter11_d_261_590" x="760" y="138" width="108" height="96" filterUnits="userSpaceOnUse" color-interpolation-filters="sRGB">
<feFlood flood-opacity="0" result="BackgroundImageFix"/>
<feColorMatrix in="SourceAlpha" type="matrix" values="0 0 0 0 0 0 0 0 0 0 0 0 0 0 0 0 0 0 127 0" result="hardAlpha"/>
<feOffset dy="4"/>
<feGaussianBlur stdDeviation="2"/>
<feComposite in2="hardAlpha" operator="out"/>
<feColorMatrix type="matrix" values="0 0 0 0 0 0 0 0 0 0 0 0 0 0 0 0 0 0 0.25 0"/>
<feBlend mode="normal" in2="BackgroundImageFix" result="effect1_dropShadow_261_590"/>
<feBlend mode="normal" in="SourceGraphic" in2="effect1_dropShadow_261_590" result="shape"/>
</filter>
<filter id="filter12_d_261_590" x="951" y="138" width="108" height="96" filterUnits="userSpaceOnUse" color-interpolation-filters="sRGB">
<feFlood flood-opacity="0" result="BackgroundImageFix"/>
<feColorMatrix in="SourceAlpha" type="matrix" values="0 0 0 0 0 0 0 0 0 0 0 0 0 0 0 0 0 0 127 0" result="hardAlpha"/>
<feOffset dy="4"/>
<feGaussianBlur stdDeviation="2"/>
<feComposite in2="hardAlpha" operator="out"/>
<feColorMatrix type="matrix" values="0 0 0 0 0 0 0 0 0 0 0 0 0 0 0 0 0 0 0.25 0"/>
<feBlend mode="normal" in2="BackgroundImageFix" result="effect1_dropShadow_261_590"/>
<feBlend mode="normal" in="SourceGraphic" in2="effect1_dropShadow_261_590" result="shape"/>
</filter>
<filter id="filter13_d_261_590" x="1142" y="138" width="108" height="96" filterUnits="userSpaceOnUse" color-interpolation-filters="sRGB">
<feFlood flood-opacity="0" result="BackgroundImageFix"/>
<feColorMatrix in="SourceAlpha" type="matrix" values="0 0 0 0 0 0 0 0 0 0 0 0 0 0 0 0 0 0 127 0" result="hardAlpha"/>
<feOffset dy="4"/>
<feGaussianBlur stdDeviation="2"/>
<feComposite in2="hardAlpha" operator="out"/>
<feColorMatrix type="matrix" values="0 0 0 0 0 0 0 0 0 0 0 0 0 0 0 0 0 0 0.25 0"/>
<feBlend mode="normal" in2="BackgroundImageFix" result="effect1_dropShadow_261_590"/>
<feBlend mode="normal" in="SourceGraphic" in2="effect1_dropShadow_261_590" result="shape"/>
</filter>
<filter id="filter14_d_261_590" x="-4" y="276" width="108" height="96" filterUnits="userSpaceOnUse" color-interpolation-filters="sRGB">
<feFlood flood-opacity="0" result="BackgroundImageFix"/>
<feColorMatrix in="SourceAlpha" type="matrix" values="0 0 0 0 0 0 0 0 0 0 0 0 0 0 0 0 0 0 127 0" result="hardAlpha"/>
<feOffset dy="4"/>
<feGaussianBlur stdDeviation="2"/>
<feComposite in2="hardAlpha" operator="out"/>
<feColorMatrix type="matrix" values="0 0 0 0 0 0 0 0 0 0 0 0 0 0 0 0 0 0 0.25 0"/>
<feBlend mode="normal" in2="BackgroundImageFix" result="effect1_dropShadow_261_590"/>
<feBlend mode="normal" in="SourceGraphic" in2="effect1_dropShadow_261_590" result="shape"/>
</filter>
<filter id="filter15_d_261_590" x="187" y="276" width="108" height="96" filterUnits="userSpaceOnUse" color-interpolation-filters="sRGB">
<feFlood flood-opacity="0" result="BackgroundImageFix"/>
<feColorMatrix in="SourceAlpha" type="matrix" values="0 0 0 0 0 0 0 0 0 0 0 0 0 0 0 0 0 0 127 0" result="hardAlpha"/>
<feOffset dy="4"/>
<feGaussianBlur stdDeviation="2"/>
<feComposite in2="hardAlpha" operator="out"/>
<feColorMatrix type="matrix" values="0 0 0 0 0 0 0 0 0 0 0 0 0 0 0 0 0 0 0.25 0"/>
<feBlend mode="normal" in2="BackgroundImageFix" result="effect1_dropShadow_261_590"/>
<feBlend mode="normal" in="SourceGraphic" in2="effect1_dropShadow_261_590" result="shape"/>
</filter>
<filter id="filter16_d_261_590" x="378" y="276" width="108" height="96" filterUnits="userSpaceOnUse" color-interpolation-filters="sRGB">
<feFlood flood-opacity="0" result="BackgroundImageFix"/>
<feColorMatrix in="SourceAlpha" type="matrix" values="0 0 0 0 0 0 0 0 0 0 0 0 0 0 0 0 0 0 127 0" result="hardAlpha"/>
<feOffset dy="4"/>
<feGaussianBlur stdDeviation="2"/>
<feComposite in2="hardAlpha" operator="out"/>
<feColorMatrix type="matrix" values="0 0 0 0 0 0 0 0 0 0 0 0 0 0 0 0 0 0 0.25 0"/>
<feBlend mode="normal" in2="BackgroundImageFix" result="effect1_dropShadow_261_590"/>
<feBlend mode="normal" in="SourceGraphic" in2="effect1_dropShadow_261_590" result="shape"/>
</filter>
<filter id="filter17_d_261_590" x="569" y="276" width="108" height="96" filterUnits="userSpaceOnUse" color-interpolation-filters="sRGB">
<feFlood flood-opacity="0" result="BackgroundImageFix"/>
<feColorMatrix in="SourceAlpha" type="matrix" values="0 0 0 0 0 0 0 0 0 0 0 0 0 0 0 0 0 0 127 0" result="hardAlpha"/>
<feOffset dy="4"/>
<feGaussianBlur stdDeviation="2"/>
<feComposite in2="hardAlpha" operator="out"/>
<feColorMatrix type="matrix" values="0 0 0 0 0 0 0 0 0 0 0 0 0 0 0 0 0 0 0.25 0"/>
<feBlend mode="normal" in2="BackgroundImageFix" result="effect1_dropShadow_261_590"/>
<feBlend mode="normal" in="SourceGraphic" in2="effect1_dropShadow_261_590" result="shape"/>
</filter>
<filter id="filter18_d_261_590" x="760" y="276" width="108" height="96" filterUnits="userSpaceOnUse" color-interpolation-filters="sRGB">
<feFlood flood-opacity="0" result="BackgroundImageFix"/>
<feColorMatrix in="SourceAlpha" type="matrix" values="0 0 0 0 0 0 0 0 0 0 0 0 0 0 0 0 0 0 127 0" result="hardAlpha"/>
<feOffset dy="4"/>
<feGaussianBlur stdDeviation="2"/>
<feComposite in2="hardAlpha" operator="out"/>
<feColorMatrix type="matrix" values="0 0 0 0 0 0 0 0 0 0 0 0 0 0 0 0 0 0 0.25 0"/>
<feBlend mode="normal" in2="BackgroundImageFix" result="effect1_dropShadow_261_590"/>
<feBlend mode="normal" in="SourceGraphic" in2="effect1_dropShadow_261_590" result="shape"/>
</filter>
<filter id="filter19_d_261_590" x="951" y="276" width="108" height="96" filterUnits="userSpaceOnUse" color-interpolation-filters="sRGB">
<feFlood flood-opacity="0" result="BackgroundImageFix"/>
<feColorMatrix in="SourceAlpha" type="matrix" values="0 0 0 0 0 0 0 0 0 0 0 0 0 0 0 0 0 0 127 0" result="hardAlpha"/>
<feOffset dy="4"/>
<feGaussianBlur stdDeviation="2"/>
<feComposite in2="hardAlpha" operator="out"/>
<feColorMatrix type="matrix" values="0 0 0 0 0 0 0 0 0 0 0 0 0 0 0 0 0 0 0.25 0"/>
<feBlend mode="normal" in2="BackgroundImageFix" result="effect1_dropShadow_261_590"/>
<feBlend mode="normal" in="SourceGraphic" in2="effect1_dropShadow_261_590" result="shape"/>
</filter>
<filter id="filter20_d_261_590" x="1142" y="276" width="108" height="96" filterUnits="userSpaceOnUse" color-interpolation-filters="sRGB">
<feFlood flood-opacity="0" result="BackgroundImageFix"/>
<feColorMatrix in="SourceAlpha" type="matrix" values="0 0 0 0 0 0 0 0 0 0 0 0 0 0 0 0 0 0 127 0" result="hardAlpha"/>
<feOffset dy="4"/>
<feGaussianBlur stdDeviation="2"/>
<feComposite in2="hardAlpha" operator="out"/>
<feColorMatrix type="matrix" values="0 0 0 0 0 0 0 0 0 0 0 0 0 0 0 0 0 0 0.25 0"/>
<feBlend mode="normal" in2="BackgroundImageFix" result="effect1_dropShadow_261_590"/>
<feBlend mode="normal" in="SourceGraphic" in2="effect1_dropShadow_261_590" result="shape"/>
</filter>
<filter id="filter21_d_261_590" x="-4" y="414" width="108" height="96" filterUnits="userSpaceOnUse" color-interpolation-filters="sRGB">
<feFlood flood-opacity="0" result="BackgroundImageFix"/>
<feColorMatrix in="SourceAlpha" type="matrix" values="0 0 0 0 0 0 0 0 0 0 0 0 0 0 0 0 0 0 127 0" result="hardAlpha"/>
<feOffset dy="4"/>
<feGaussianBlur stdDeviation="2"/>
<feComposite in2="hardAlpha" operator="out"/>
<feColorMatrix type="matrix" values="0 0 0 0 0 0 0 0 0 0 0 0 0 0 0 0 0 0 0.25 0"/>
<feBlend mode="normal" in2="BackgroundImageFix" result="effect1_dropShadow_261_590"/>
<feBlend mode="normal" in="SourceGraphic" in2="effect1_dropShadow_261_590" result="shape"/>
</filter>
<filter id="filter22_d_261_590" x="187" y="414" width="108" height="96" filterUnits="userSpaceOnUse" color-interpolation-filters="sRGB">
<feFlood flood-opacity="0" result="BackgroundImageFix"/>
<feColorMatrix in="SourceAlpha" type="matrix" values="0 0 0 0 0 0 0 0 0 0 0 0 0 0 0 0 0 0 127 0" result="hardAlpha"/>
<feOffset dy="4"/>
<feGaussianBlur stdDeviation="2"/>
<feComposite in2="hardAlpha" operator="out"/>
<feColorMatrix type="matrix" values="0 0 0 0 0 0 0 0 0 0 0 0 0 0 0 0 0 0 0.25 0"/>
<feBlend mode="normal" in2="BackgroundImageFix" result="effect1_dropShadow_261_590"/>
<feBlend mode="normal" in="SourceGraphic" in2="effect1_dropShadow_261_590" result="shape"/>
</filter>
<filter id="filter23_d_261_590" x="378" y="414" width="108" height="96" filterUnits="userSpaceOnUse" color-interpolation-filters="sRGB">
<feFlood flood-opacity="0" result="BackgroundImageFix"/>
<feColorMatrix in="SourceAlpha" type="matrix" values="0 0 0 0 0 0 0 0 0 0 0 0 0 0 0 0 0 0 127 0" result="hardAlpha"/>
<feOffset dy="4"/>
<feGaussianBlur stdDeviation="2"/>
<feComposite in2="hardAlpha" operator="out"/>
<feColorMatrix type="matrix" values="0 0 0 0 0 0 0 0 0 0 0 0 0 0 0 0 0 0 0.25 0"/>
<feBlend mode="normal" in2="BackgroundImageFix" result="effect1_dropShadow_261_590"/>
<feBlend mode="normal" in="SourceGraphic" in2="effect1_dropShadow_261_590" result="shape"/>
</filter>
<filter id="filter24_d_261_590" x="569" y="414" width="108" height="96" filterUnits="userSpaceOnUse" color-interpolation-filters="sRGB">
<feFlood flood-opacity="0" result="BackgroundImageFix"/>
<feColorMatrix in="SourceAlpha" type="matrix" values="0 0 0 0 0 0 0 0 0 0 0 0 0 0 0 0 0 0 127 0" result="hardAlpha"/>
<feOffset dy="4"/>
<feGaussianBlur stdDeviation="2"/>
<feComposite in2="hardAlpha" operator="out"/>
<feColorMatrix type="matrix" values="0 0 0 0 0 0 0 0 0 0 0 0 0 0 0 0 0 0 0.25 0"/>
<feBlend mode="normal" in2="BackgroundImageFix" result="effect1_dropShadow_261_590"/>
<feBlend mode="normal" in="SourceGraphic" in2="effect1_dropShadow_261_590" result="shape"/>
</filter>
<filter id="filter25_d_261_590" x="760" y="414" width="108" height="96" filterUnits="userSpaceOnUse" color-interpolation-filters="sRGB">
<feFlood flood-opacity="0" result="BackgroundImageFix"/>
<feColorMatrix in="SourceAlpha" type="matrix" values="0 0 0 0 0 0 0 0 0 0 0 0 0 0 0 0 0 0 127 0" result="hardAlpha"/>
<feOffset dy="4"/>
<feGaussianBlur stdDeviation="2"/>
<feComposite in2="hardAlpha" operator="out"/>
<feColorMatrix type="matrix" values="0 0 0 0 0 0 0 0 0 0 0 0 0 0 0 0 0 0 0.25 0"/>
<feBlend mode="normal" in2="BackgroundImageFix" result="effect1_dropShadow_261_590"/>
<feBlend mode="normal" in="SourceGraphic" in2="effect1_dropShadow_261_590" result="shape"/>
</filter>
<filter id="filter26_d_261_590" x="951" y="414" width="108" height="96" filterUnits="userSpaceOnUse" color-interpolation-filters="sRGB">
<feFlood flood-opacity="0" result="BackgroundImageFix"/>
<feColorMatrix in="SourceAlpha" type="matrix" values="0 0 0 0 0 0 0 0 0 0 0 0 0 0 0 0 0 0 127 0" result="hardAlpha"/>
<feOffset dy="4"/>
<feGaussianBlur stdDeviation="2"/>
<feComposite in2="hardAlpha" operator="out"/>
<feColorMatrix type="matrix" values="0 0 0 0 0 0 0 0 0 0 0 0 0 0 0 0 0 0 0.25 0"/>
<feBlend mode="normal" in2="BackgroundImageFix" result="effect1_dropShadow_261_590"/>
<feBlend mode="normal" in="SourceGraphic" in2="effect1_dropShadow_261_590" result="shape"/>
</filter>
<filter id="filter27_d_261_590" x="1142" y="414" width="108" height="96" filterUnits="userSpaceOnUse" color-interpolation-filters="sRGB">
<feFlood flood-opacity="0" result="BackgroundImageFix"/>
<feColorMatrix in="SourceAlpha" type="matrix" values="0 0 0 0 0 0 0 0 0 0 0 0 0 0 0 0 0 0 127 0" result="hardAlpha"/>
<feOffset dy="4"/>
<feGaussianBlur stdDeviation="2"/>
<feComposite in2="hardAlpha" operator="out"/>
<feColorMatrix type="matrix" values="0 0 0 0 0 0 0 0 0 0 0 0 0 0 0 0 0 0 0.25 0"/>
<feBlend mode="normal" in2="BackgroundImageFix" result="effect1_dropShadow_261_590"/>
<feBlend mode="normal" in="SourceGraphic" in2="effect1_dropShadow_261_590" result="shape"/>
</filter>
<filter id="filter28_d_261_590" x="-4" y="552" width="108" height="96" filterUnits="userSpaceOnUse" color-interpolation-filters="sRGB">
<feFlood flood-opacity="0" result="BackgroundImageFix"/>
<feColorMatrix in="SourceAlpha" type="matrix" values="0 0 0 0 0 0 0 0 0 0 0 0 0 0 0 0 0 0 127 0" result="hardAlpha"/>
<feOffset dy="4"/>
<feGaussianBlur stdDeviation="2"/>
<feComposite in2="hardAlpha" operator="out"/>
<feColorMatrix type="matrix" values="0 0 0 0 0 0 0 0 0 0 0 0 0 0 0 0 0 0 0.25 0"/>
<feBlend mode="normal" in2="BackgroundImageFix" result="effect1_dropShadow_261_590"/>
<feBlend mode="normal" in="SourceGraphic" in2="effect1_dropShadow_261_590" result="shape"/>
</filter>
<filter id="filter29_d_261_590" x="187" y="552" width="108" height="96" filterUnits="userSpaceOnUse" color-interpolation-filters="sRGB">
<feFlood flood-opacity="0" result="BackgroundImageFix"/>
<feColorMatrix in="SourceAlpha" type="matrix" values="0 0 0 0 0 0 0 0 0 0 0 0 0 0 0 0 0 0 127 0" result="hardAlpha"/>
<feOffset dy="4"/>
<feGaussianBlur stdDeviation="2"/>
<feComposite in2="hardAlpha" operator="out"/>
<feColorMatrix type="matrix" values="0 0 0 0 0 0 0 0 0 0 0 0 0 0 0 0 0 0 0.25 0"/>
<feBlend mode="normal" in2="BackgroundImageFix" result="effect1_dropShadow_261_590"/>
<feBlend mode="normal" in="SourceGraphic" in2="effect1_dropShadow_261_590" result="shape"/>
</filter>
<filter id="filter30_d_261_590" x="378" y="552" width="108" height="96" filterUnits="userSpaceOnUse" color-interpolation-filters="sRGB">
<feFlood flood-opacity="0" result="BackgroundImageFix"/>
<feColorMatrix in="SourceAlpha" type="matrix" values="0 0 0 0 0 0 0 0 0 0 0 0 0 0 0 0 0 0 127 0" result="hardAlpha"/>
<feOffset dy="4"/>
<feGaussianBlur stdDeviation="2"/>
<feComposite in2="hardAlpha" operator="out"/>
<feColorMatrix type="matrix" values="0 0 0 0 0 0 0 0 0 0 0 0 0 0 0 0 0 0 0.25 0"/>
<feBlend mode="normal" in2="BackgroundImageFix" result="effect1_dropShadow_261_590"/>
<feBlend mode="normal" in="SourceGraphic" in2="effect1_dropShadow_261_590" result="shape"/>
</filter>
<filter id="filter31_d_261_590" x="569" y="552" width="108" height="96" filterUnits="userSpaceOnUse" color-interpolation-filters="sRGB">
<feFlood flood-opacity="0" result="BackgroundImageFix"/>
<feColorMatrix in="SourceAlpha" type="matrix" values="0 0 0 0 0 0 0 0 0 0 0 0 0 0 0 0 0 0 127 0" result="hardAlpha"/>
<feOffset dy="4"/>
<feGaussianBlur stdDeviation="2"/>
<feComposite in2="hardAlpha" operator="out"/>
<feColorMatrix type="matrix" values="0 0 0 0 0 0 0 0 0 0 0 0 0 0 0 0 0 0 0.25 0"/>
<feBlend mode="normal" in2="BackgroundImageFix" result="effect1_dropShadow_261_590"/>
<feBlend mode="normal" in="SourceGraphic" in2="effect1_dropShadow_261_590" result="shape"/>
</filter>
<filter id="filter32_d_261_590" x="760" y="552" width="108" height="96" filterUnits="userSpaceOnUse" color-interpolation-filters="sRGB">
<feFlood flood-opacity="0" result="BackgroundImageFix"/>
<feColorMatrix in="SourceAlpha" type="matrix" values="0 0 0 0 0 0 0 0 0 0 0 0 0 0 0 0 0 0 127 0" result="hardAlpha"/>
<feOffset dy="4"/>
<feGaussianBlur stdDeviation="2"/>
<feComposite in2="hardAlpha" operator="out"/>
<feColorMatrix type="matrix" values="0 0 0 0 0 0 0 0 0 0 0 0 0 0 0 0 0 0 0.25 0"/>
<feBlend mode="normal" in2="BackgroundImageFix" result="effect1_dropShadow_261_590"/>
<feBlend mode="normal" in="SourceGraphic" in2="effect1_dropShadow_261_590" result="shape"/>
</filter>
<filter id="filter33_d_261_590" x="951" y="552" width="108" height="96" filterUnits="userSpaceOnUse" color-interpolation-filters="sRGB">
<feFlood flood-opacity="0" result="BackgroundImageFix"/>
<feColorMatrix in="SourceAlpha" type="matrix" values="0 0 0 0 0 0 0 0 0 0 0 0 0 0 0 0 0 0 127 0" result="hardAlpha"/>
<feOffset dy="4"/>
<feGaussianBlur stdDeviation="2"/>
<feComposite in2="hardAlpha" operator="out"/>
<feColorMatrix type="matrix" values="0 0 0 0 0 0 0 0 0 0 0 0 0 0 0 0 0 0 0.25 0"/>
<feBlend mode="normal" in2="BackgroundImageFix" result="effect1_dropShadow_261_590"/>
<feBlend mode="normal" in="SourceGraphic" in2="effect1_dropShadow_261_590" result="shape"/>
</filter>
<filter id="filter34_d_261_590" x="1142" y="552" width="108" height="96" filterUnits="userSpaceOnUse" color-interpolation-filters="sRGB">
<feFlood flood-opacity="0" result="BackgroundImageFix"/>
<feColorMatrix in="SourceAlpha" type="matrix" values="0 0 0 0 0 0 0 0 0 0 0 0 0 0 0 0 0 0 127 0" result="hardAlpha"/>
<feOffset dy="4"/>
<feGaussianBlur stdDeviation="2"/>
<feComposite in2="hardAlpha" operator="out"/>
<feColorMatrix type="matrix" values="0 0 0 0 0 0 0 0 0 0 0 0 0 0 0 0 0 0 0.25 0"/>
<feBlend mode="normal" in2="BackgroundImageFix" result="effect1_dropShadow_261_590"/>
<feBlend mode="normal" in="SourceGraphic" in2="effect1_dropShadow_261_590" result="shape"/>
</filter>
<filter id="filter35_d_261_590" x="-4" y="690" width="108" height="96" filterUnits="userSpaceOnUse" color-interpolation-filters="sRGB">
<feFlood flood-opacity="0" result="BackgroundImageFix"/>
<feColorMatrix in="SourceAlpha" type="matrix" values="0 0 0 0 0 0 0 0 0 0 0 0 0 0 0 0 0 0 127 0" result="hardAlpha"/>
<feOffset dy="4"/>
<feGaussianBlur stdDeviation="2"/>
<feComposite in2="hardAlpha" operator="out"/>
<feColorMatrix type="matrix" values="0 0 0 0 0 0 0 0 0 0 0 0 0 0 0 0 0 0 0.25 0"/>
<feBlend mode="normal" in2="BackgroundImageFix" result="effect1_dropShadow_261_590"/>
<feBlend mode="normal" in="SourceGraphic" in2="effect1_dropShadow_261_590" result="shape"/>
</filter>
<filter id="filter36_d_261_590" x="187" y="690" width="108" height="96" filterUnits="userSpaceOnUse" color-interpolation-filters="sRGB">
<feFlood flood-opacity="0" result="BackgroundImageFix"/>
<feColorMatrix in="SourceAlpha" type="matrix" values="0 0 0 0 0 0 0 0 0 0 0 0 0 0 0 0 0 0 127 0" result="hardAlpha"/>
<feOffset dy="4"/>
<feGaussianBlur stdDeviation="2"/>
<feComposite in2="hardAlpha" operator="out"/>
<feColorMatrix type="matrix" values="0 0 0 0 0 0 0 0 0 0 0 0 0 0 0 0 0 0 0.25 0"/>
<feBlend mode="normal" in2="BackgroundImageFix" result="effect1_dropShadow_261_590"/>
<feBlend mode="normal" in="SourceGraphic" in2="effect1_dropShadow_261_590" result="shape"/>
</filter>
<filter id="filter37_d_261_590" x="378" y="690" width="108" height="96" filterUnits="userSpaceOnUse" color-interpolation-filters="sRGB">
<feFlood flood-opacity="0" result="BackgroundImageFix"/>
<feColorMatrix in="SourceAlpha" type="matrix" values="0 0 0 0 0 0 0 0 0 0 0 0 0 0 0 0 0 0 127 0" result="hardAlpha"/>
<feOffset dy="4"/>
<feGaussianBlur stdDeviation="2"/>
<feComposite in2="hardAlpha" operator="out"/>
<feColorMatrix type="matrix" values="0 0 0 0 0 0 0 0 0 0 0 0 0 0 0 0 0 0 0.25 0"/>
<feBlend mode="normal" in2="BackgroundImageFix" result="effect1_dropShadow_261_590"/>
<feBlend mode="normal" in="SourceGraphic" in2="effect1_dropShadow_261_590" result="shape"/>
</filter>
<filter id="filter38_d_261_590" x="569" y="690" width="108" height="96" filterUnits="userSpaceOnUse" color-interpolation-filters="sRGB">
<feFlood flood-opacity="0" result="BackgroundImageFix"/>
<feColorMatrix in="SourceAlpha" type="matrix" values="0 0 0 0 0 0 0 0 0 0 0 0 0 0 0 0 0 0 127 0" result="hardAlpha"/>
<feOffset dy="4"/>
<feGaussianBlur stdDeviation="2"/>
<feComposite in2="hardAlpha" operator="out"/>
<feColorMatrix type="matrix" values="0 0 0 0 0 0 0 0 0 0 0 0 0 0 0 0 0 0 0.25 0"/>
<feBlend mode="normal" in2="BackgroundImageFix" result="effect1_dropShadow_261_590"/>
<feBlend mode="normal" in="SourceGraphic" in2="effect1_dropShadow_261_590" result="shape"/>
</filter>
<filter id="filter39_d_261_590" x="760" y="690" width="108" height="96" filterUnits="userSpaceOnUse" color-interpolation-filters="sRGB">
<feFlood flood-opacity="0" result="BackgroundImageFix"/>
<feColorMatrix in="SourceAlpha" type="matrix" values="0 0 0 0 0 0 0 0 0 0 0 0 0 0 0 0 0 0 127 0" result="hardAlpha"/>
<feOffset dy="4"/>
<feGaussianBlur stdDeviation="2"/>
<feComposite in2="hardAlpha" operator="out"/>
<feColorMatrix type="matrix" values="0 0 0 0 0 0 0 0 0 0 0 0 0 0 0 0 0 0 0.25 0"/>
<feBlend mode="normal" in2="BackgroundImageFix" result="effect1_dropShadow_261_590"/>
<feBlend mode="normal" in="SourceGraphic" in2="effect1_dropShadow_261_590" result="shape"/>
</filter>
<filter id="filter40_d_261_590" x="951" y="690" width="108" height="96" filterUnits="userSpaceOnUse" color-interpolation-filters="sRGB">
<feFlood flood-opacity="0" result="BackgroundImageFix"/>
<feColorMatrix in="SourceAlpha" type="matrix" values="0 0 0 0 0 0 0 0 0 0 0 0 0 0 0 0 0 0 127 0" result="hardAlpha"/>
<feOffset dy="4"/>
<feGaussianBlur stdDeviation="2"/>
<feComposite in2="hardAlpha" operator="out"/>
<feColorMatrix type="matrix" values="0 0 0 0 0 0 0 0 0 0 0 0 0 0 0 0 0 0 0.25 0"/>
<feBlend mode="normal" in2="BackgroundImageFix" result="effect1_dropShadow_261_590"/>
<feBlend mode="normal" in="SourceGraphic" in2="effect1_dropShadow_261_590" result="shape"/>
</filter>
<filter id="filter41_d_261_590" x="1142" y="690" width="108" height="96" filterUnits="userSpaceOnUse" color-interpolation-filters="sRGB">
<feFlood flood-opacity="0" result="BackgroundImageFix"/>
<feColorMatrix in="SourceAlpha" type="matrix" values="0 0 0 0 0 0 0 0 0 0 0 0 0 0 0 0 0 0 127 0" result="hardAlpha"/>
<feOffset dy="4"/>
<feGaussianBlur stdDeviation="2"/>
<feComposite in2="hardAlpha" operator="out"/>
<feColorMatrix type="matrix" values="0 0 0 0 0 0 0 0 0 0 0 0 0 0 0 0 0 0 0.25 0"/>
<feBlend mode="normal" in2="BackgroundImageFix" result="effect1_dropShadow_261_590"/>
<feBlend mode="normal" in="SourceGraphic" in2="effect1_dropShadow_261_590" result="shape"/>
</filter>
<clipPath id="clip0_261_590">
<rect width="1286" height="810" fill="white"/>
</clipPath>
</defs>
</svg>
