<svg width="1392" height="171" viewBox="0 0 1392 171" fill="none" xmlns="http://www.w3.org/2000/svg">
<path d="M1285.37 -69.7334C1278.17 -67.2 1274.57 -61.2 1275.8 -53.8667C1276.14 -51.3334 1278.17 -45.0667 1280.3 -39.8667C1285.59 -26.8 1286.04 -22.2667 1283.23 -9.4667C1279.85 5.59997 1280.08 9.99997 1284.35 14.9333C1287.39 18.6666 1288.18 18.9333 1293.02 18.1333C1300 17.0666 1308.55 10.6666 1318.67 -0.80003C1328.24 -11.7334 1331.5 -18.8 1331.5 -29.3334C1331.5 -42.6667 1324.75 -53.8667 1312.49 -61.2C1303.37 -66.6667 1289.19 -71.0667 1285.37 -69.7334Z" fill="#00FFFF" fill-opacity="0.4"/>
<path d="M738.856 -60.8C735.142 -58.8 731.767 -52.8 731.767 -47.8666C731.767 -46.2666 733.342 -41.3333 735.368 -36.8C742.906 -19.4666 743.244 -18.4 743.131 -10.8C743.131 -6.66662 742.569 -1.19995 741.894 1.33338C740.431 7.33338 740.431 16.8 742.006 20.2667C742.681 21.7334 744.819 23.7334 746.957 24.6667C754.158 28.2667 763.16 22.6667 776.325 6.26671C790.39 -10.9333 792.978 -22 786.564 -37.0666C785.214 -40.2666 782.514 -44.6666 780.376 -46.8C770.136 -57.4666 747.295 -65.2 738.856 -60.8Z" fill="#00FFFF" fill-opacity="0.4"/>
<path d="M217.886 -60C214.285 -58.2667 211.472 -52.4 211.585 -46.9334C211.697 -44.4 213.61 -37.4667 215.973 -31.6C221.149 -18.5334 222.049 -9.86671 219.124 0.133291C214.51 16.5333 217.548 26.6666 227.113 26.6666C239.49 26.6666 263.457 2.39996 267.17 -13.7334C270.546 -28.5334 262.219 -45.2 247.366 -53.4667C235.439 -60.1334 223.624 -62.8 217.886 -60Z" fill="#00FFFF" fill-opacity="0.4"/>
<path d="M1360.98 -32.8C1355.02 -30.5333 1351.98 -27.3333 1349.84 -21.6C1348.49 -17.7333 1348.49 -16.6666 1350.18 -12.5333C1356.59 3.46669 1383.15 5.33335 1390.57 -9.59998C1397.55 -23.6 1377.52 -39.2 1360.98 -32.8Z" fill="#00FFFF" fill-opacity="0.4"/>
<path d="M820.658 -31.8667C813.119 -29.0667 807.156 -21.7333 807.156 -14.8C807.156 -11.2 812.219 -4.39999 817.395 -1.33333C822.234 1.60001 832.023 2.13334 838.887 7.15256e-06C844.062 -1.73333 849.463 -7.99999 850.476 -13.3333C852.727 -25.7333 834.836 -36.9333 820.658 -31.8667Z" fill="#00FFFF" fill-opacity="0.4"/>
<path d="M299.126 -25.4667C290.349 -22.8 285.061 -16.5334 285.061 -8.80004C285.061 -1.73337 294.287 6.79996 303.852 8.5333C315.441 10.5333 327.818 2.66663 327.818 -6.80004C327.818 -13.2 324.33 -19.2 318.592 -22.4C313.078 -25.6 304.077 -27.0667 299.126 -25.4667Z" fill="#00FFFF" fill-opacity="0.4"/>
<path d="M1328.35 0.933332C1322.95 4 1320.81 9.73333 1322.39 16.1333C1324.75 25.4667 1333.86 32 1344.78 32C1355.36 32 1362.33 24.6667 1360.31 15.6C1357.61 2.8 1339.49 -5.6 1328.35 0.933332Z" fill="#00FFFF" fill-opacity="0.4"/>
<path d="M789.715 4.00002C785.552 6.00002 781.951 11.8667 781.951 16.4C781.951 26.6667 792.303 35.3334 804.455 35.2C815.707 35.0667 823.134 27.4667 821.108 18.1334C819.983 12.8 814.02 6.13336 808.619 4.26669C803.555 2.40002 793.091 2.26669 789.715 4.00002Z" fill="#00FFFF" fill-opacity="0.4"/>
<path d="M265.257 8.53337C255.243 13.7334 255.918 28.2667 266.495 36C272.121 40.1334 285.286 41.3334 290.462 38.1334C295.075 35.3334 297.775 29.0667 296.875 23.8667C294.625 11.6 276.284 2.80003 265.257 8.53337Z" fill="#00FFFF" fill-opacity="0.4"/>
<path d="M519.891 14.0001C508.301 18.8001 503.125 32.8 510.101 40.6667C516.853 48.4 531.48 46.4 540.144 36.6667C544.308 32 544.983 30.4001 544.983 25.8667C544.983 20 542.282 15.3334 537.444 13.2001C533.506 11.4667 524.954 11.8667 519.891 14.0001Z" fill="#00FFFF" fill-opacity="0.4"/>
<path d="M475.558 30.2666C472.182 31.0666 467.681 36.6666 467.006 41.0666C466.669 43.0666 467.456 50.3999 468.694 57.3333C471.507 72.8 471.057 77.2 465.206 90.5333C460.03 102.4 459.467 108.533 462.843 113.733C467.344 120.533 477.583 119.333 493.224 110C510.552 99.6 518.991 86.9333 517.64 72.9333C516.515 62.2666 511.677 52.3999 503.913 44.9333C493.786 35.3333 481.634 28.9333 475.558 30.2666Z" fill="#00FFFF" fill-opacity="0.4"/>
<path d="M1070.45 33.2C1058.41 37.6 1050.76 50 1055.15 58C1058.3 63.7333 1062.01 65.6 1069.67 65.6C1085.64 65.6 1098.13 49.6 1090.82 38.4C1087.33 33.2 1077.54 30.6666 1070.45 33.2Z" fill="#00FFFF" fill-opacity="0.4"/>
<path d="M13.3236 38.9334C4.9971 42.4001 -1.52909 52.4001 -0.0663233 59.3334C0.946361 64.2667 6.45986 69.0667 12.4234 70.1334C24.2381 72.2667 38.6407 61.7334 38.6407 50.9334C38.6407 45.3334 35.8277 40.6667 31.1018 38.5334C27.5012 36.9334 17.5994 37.2001 13.3236 38.9334Z" fill="#00FFFF" fill-opacity="0.4"/>
<path d="M551.959 44.1334C545.658 45.6 539.694 50 536.994 55.2C534.406 60.2667 534.406 61.7334 536.656 67.4667C541.832 80.5334 565.462 80.9334 574.576 68.1334C584.253 54.5334 570.3 39.7334 551.959 44.1334Z" fill="#00FFFF" fill-opacity="0.4"/>
<path d="M1018.81 54.1333C1014.31 58.5333 1013.41 64.5333 1015.77 75.3333C1018.92 90.1333 1018.24 98.3999 1013.07 110.667C1006.65 125.733 1006.99 133.867 1014.19 137.333C1019.71 140 1028.03 138.133 1039.4 131.333C1057.74 120.533 1065.28 110.267 1065.16 95.8666C1065.05 87.0666 1062.24 78.6666 1056.95 71.4666C1049.64 61.5999 1033.1 50.6666 1025.45 50.6666C1023.64 50.6666 1020.72 52.1333 1018.81 54.1333Z" fill="#00FFFF" fill-opacity="0.4"/>
<path d="M-34.385 55.2C-40.3486 59.0666 -41.1363 64.8 -38.3232 82.4C-36.1854 96.2666 -36.6354 99.3333 -42.9366 113.733C-45.7496 120 -48 126.933 -48 129.067C-48 134.533 -44.1743 139.733 -39.3359 140.8C-26.9587 143.6 1.62153 125.733 7.92268 111.467C9.04788 108.933 9.83552 104.133 9.83552 99.2C9.83552 83.2 0.383804 68.5333 -16.7193 58.1333C-25.0458 53.0666 -29.8842 52.2666 -34.385 55.2Z" fill="#00FFFF" fill-opacity="0.4"/>
<path d="M1096.22 65.8667C1084.74 70.6667 1079.68 81.6 1085.19 89.8667C1089.92 97.0667 1099.03 99.8667 1109.5 97.3334C1118.05 95.2 1125.59 86.9334 1125.59 79.7334C1125.59 67.7334 1109.61 60.1334 1096.22 65.8667Z" fill="#00FFFF" fill-opacity="0.4"/>
<path d="M40.4411 71.2001C34.815 73.7334 28.7389 80.8001 27.9513 86.0001C27.0511 91.3334 30.4267 97.6001 35.7152 100.533C47.7549 107.2 63.5078 102.8 69.3588 91.0667C72.2844 85.0667 70.484 78.5334 64.4079 73.7334C58.8944 69.4667 47.1923 68.2667 40.4411 71.2001Z" fill="#00FFFF" fill-opacity="0.4"/>
<path d="M539.807 87.2C527.092 94 529.793 110.4 544.983 118.533C551.172 121.867 561.636 122.267 566.924 119.2C572.1 116.4 574.801 109.467 573.113 103.467C571.763 98.4 566.362 92 560.736 88.6667C555.56 85.4667 544.308 84.6667 539.807 87.2Z" fill="#00FFFF" fill-opacity="0.4"/>
<path d="M1089.02 107.333C1083.17 109.733 1079.46 114.933 1079.46 120.4C1079.46 134.533 1099.48 146.667 1112.65 140.667C1118.72 138 1121.09 134.4 1121.09 127.867C1121.09 120.933 1117.04 114.667 1109.84 110.4C1102.07 105.867 1094.87 104.8 1089.02 107.333Z" fill="#00FFFF" fill-opacity="0.4"/>
<path d="M506.163 110.533C503.35 112 500.312 116 499.975 118.667C499.074 126.267 500.087 129.6 505.376 135.733C513.364 145.2 524.729 148.133 532.268 142.667C547.233 131.867 523.154 102.267 506.163 110.533Z" fill="#00FFFF" fill-opacity="0.4"/>
<path d="M31.3269 113.067C21.4251 118.533 20.525 128 29.0765 138C36.3904 146.8 48.6551 150.4 56.9816 146.133C69.4714 139.867 67.1084 122.933 52.5933 115.067C44.3793 110.667 36.953 109.867 31.3269 113.067Z" fill="#00FFFF" fill-opacity="0.4"/>
<path d="M1054.03 131.2C1046.82 135.067 1045.25 141.6 1049.07 150.8C1053.69 161.467 1067.64 168.933 1076.42 165.467C1082.16 163.2 1085.42 157.867 1084.63 152.133C1082.72 137.733 1064.72 125.467 1054.03 131.2Z" fill="#00FFFF" fill-opacity="0.4"/>
<path d="M-2.99175 135.6C-8.73029 139.067 -10.5306 143.733 -8.84281 150.4C-6.14232 161.067 2.52175 168.933 12.9862 170.267C26.8262 171.867 32.3397 157.6 22.6629 144.667C15.6866 135.2 4.20956 131.2 -2.99175 135.6Z" fill="#00FFFF" fill-opacity="0.4"/>
</svg>
