<svg width="50" height="50" viewBox="0 0 50 50" fill="none" xmlns="http://www.w3.org/2000/svg">
<circle cx="25" cy="25" r="24.5" stroke="#00FF87"/>
<path d="M8.33331 21.6667C8.33331 18.8889 8.95137 16.3403 10.1875 14.0208C11.4236 11.7014 13.0833 9.77778 15.1666 8.25L17.125 10.9167C15.4583 12.1389 14.1319 13.6806 13.1458 15.5417C12.1597 17.4028 11.6666 19.4444 11.6666 21.6667H8.33331ZM38.3333 21.6667C38.3333 19.4444 37.8403 17.4028 36.8541 15.5417C35.868 13.6806 34.5416 12.1389 32.875 10.9167L34.8333 8.25C36.9166 9.77778 38.5764 11.7014 39.8125 14.0208C41.0486 16.3403 41.6666 18.8889 41.6666 21.6667H38.3333ZM11.6666 36.6667V33.3333H15V21.6667C15 19.3611 15.6944 17.3125 17.0833 15.5208C18.4722 13.7292 20.2778 12.5556 22.5 12V10.8333C22.5 10.1389 22.743 9.54861 23.2291 9.0625C23.7153 8.57639 24.3055 8.33333 25 8.33333C25.6944 8.33333 26.2847 8.57639 26.7708 9.0625C27.2569 9.54861 27.5 10.1389 27.5 10.8333V12C29.7222 12.5556 31.5278 13.7292 32.9166 15.5208C34.3055 17.3125 35 19.3611 35 21.6667V33.3333H38.3333V36.6667H11.6666ZM25 41.6667C24.0833 41.6667 23.2986 41.3403 22.6458 40.6875C21.993 40.0347 21.6666 39.25 21.6666 38.3333H28.3333C28.3333 39.25 28.0069 40.0347 27.3541 40.6875C26.7014 41.3403 25.9166 41.6667 25 41.6667ZM18.3333 33.3333H31.6666V21.6667C31.6666 19.8333 31.0139 18.2639 29.7083 16.9583C28.4028 15.6528 26.8333 15 25 15C23.1666 15 21.5972 15.6528 20.2916 16.9583C18.9861 18.2639 18.3333 19.8333 18.3333 21.6667V33.3333Z" fill="#009FFF"/>
</svg>
