<svg width="43" height="43" viewBox="0 0 43 43" fill="none" xmlns="http://www.w3.org/2000/svg">
<path d="M15.48 43C13.545 43 11.9325 42.355 10.6425 41.065C9.3525 39.775 8.7075 38.1663 8.7075 36.2388C8.7075 35.9446 8.73438 35.5556 8.78813 35.0719C8.84188 34.5881 8.83292 34.3104 8.76125 34.2388C8.68958 34.1671 8.41187 34.1581 7.92812 34.2119C7.44438 34.2656 7.0554 34.2925 6.76121 34.2925C4.83374 34.2925 3.225 33.6475 1.935 32.3575C0.645 31.0675 0 29.455 0 27.52C0 25.585 0.645 23.9725 1.935 22.6825C3.225 21.3925 4.8375 20.7475 6.7725 20.7475C8.0625 20.7475 9.16438 20.9804 10.0781 21.4463C10.9919 21.9121 11.6817 22.36 12.1475 22.79L22.79 12.1475C22.3958 11.6817 21.9569 10.9919 21.4731 10.0781C20.9894 9.16438 20.7475 8.0625 20.7475 6.7725C20.7475 4.8375 21.3925 3.225 22.6825 1.935C23.9725 0.645 25.585 0 27.52 0C29.455 0 31.0675 0.645 32.3575 1.935C33.6475 3.225 34.2925 4.83374 34.2925 6.76121C34.2925 7.0554 34.2656 7.44438 34.2119 7.92812C34.1581 8.41187 34.1671 8.68958 34.2388 8.76125C34.3104 8.83292 34.5881 8.84188 35.0719 8.78813C35.5556 8.73438 35.9446 8.7075 36.2388 8.7075C38.1663 8.7075 39.775 9.3525 41.065 10.6425C42.355 11.9325 43 13.545 43 15.48C43 17.415 42.355 19.0275 41.065 20.3175C39.775 21.6075 38.1625 22.2525 36.2275 22.2525C34.9375 22.2525 33.8356 22.0106 32.9219 21.5269C32.0081 21.0431 31.3183 20.6042 30.8525 20.21L20.21 30.8525C20.64 31.3183 21.0879 32.0081 21.5538 32.9219C22.0196 33.8356 22.2525 34.9375 22.2525 36.2275C22.2525 38.1625 21.6075 39.775 20.3175 41.065C19.0275 42.355 17.415 43 15.48 43ZM15.48 39.7213C16.5048 39.7213 17.3523 39.3988 18.0224 38.7537C18.6925 38.1087 19.0275 37.2667 19.0275 36.2275C19.0275 35.4033 18.8483 34.6867 18.49 34.0775C18.1317 33.4683 17.8092 33.0025 17.5225 32.68C16.985 32.035 16.761 31.3452 16.8506 30.6106C16.9402 29.876 17.2896 29.2042 17.8988 28.595L28.5413 17.9525C29.1354 17.3394 29.8214 16.9889 30.5993 16.9011C31.3773 16.8137 32.0708 17.0208 32.68 17.5225C33.0025 17.8092 33.4683 18.1317 34.0775 18.49C34.6867 18.8483 35.4033 19.0275 36.2275 19.0275C37.2523 19.0275 38.0998 18.6925 38.7699 18.0224C39.44 17.3523 39.775 16.5048 39.775 15.48C39.775 14.4552 39.44 13.6077 38.7699 12.9376C38.0998 12.2675 37.2523 11.9325 36.2275 11.9325C35.2958 11.9325 34.4538 11.8967 33.7013 11.825C32.9487 11.7533 32.3575 11.5025 31.9275 11.0725C31.4975 10.6425 31.2467 10.0513 31.175 9.29875C31.1033 8.54625 31.0675 7.70417 31.0675 6.7725C31.0675 5.74767 30.7325 4.90021 30.0624 4.23013C29.3923 3.56004 28.5448 3.225 27.52 3.225C26.4952 3.225 25.6477 3.56004 24.9776 4.23013C24.3075 4.90021 23.9725 5.74767 23.9725 6.7725C23.9725 7.59667 24.1517 8.31333 24.51 8.9225C24.8683 9.53167 25.1908 9.9975 25.4775 10.32C26.015 10.965 26.239 11.6548 26.1494 12.3894C26.0598 13.124 25.7104 13.7958 25.1012 14.405L14.4587 25.0475C13.8646 25.6606 13.1786 26.0111 12.4007 26.0989C11.6227 26.1863 10.9292 25.9792 10.32 25.4775C9.9975 25.1908 9.53167 24.8683 8.9225 24.51C8.31333 24.1517 7.59667 23.9725 6.7725 23.9725C5.73333 23.9725 4.89125 24.3075 4.24625 24.9776C3.60125 25.6477 3.27875 26.4952 3.27875 27.52C3.27875 28.5448 3.60125 29.3923 4.24625 30.0624C4.89125 30.7325 5.73333 31.0675 6.7725 31.0675C7.70417 31.0675 8.54625 31.1033 9.29875 31.175C10.0513 31.2467 10.6425 31.4975 11.0725 31.9275C11.5025 32.3575 11.7533 32.9487 11.825 33.7013C11.8967 34.4538 11.9325 35.2958 11.9325 36.2275C11.9325 37.2667 12.2675 38.1087 12.9376 38.7537C13.6077 39.3988 14.4552 39.7213 15.48 39.7213Z" fill="#009FFF"/>
</svg>
