<svg width="49" height="43" viewBox="0 0 49 43" fill="none" xmlns="http://www.w3.org/2000/svg">
<path d="M24.5 43C23.7833 43 23.0965 42.8706 22.4396 42.6118C21.7826 42.353 21.1953 41.9648 20.6778 41.4472L4.67219 25.3819C3.27868 23.9884 2.25345 22.3958 1.5965 20.6042C0.939556 18.8125 0.611084 16.9412 0.611084 14.9903C0.611084 10.8894 1.94488 7.36574 4.61247 4.41944C7.28007 1.47315 10.6046 0 14.5861 0C16.4972 0 18.2988 0.378241 19.9909 1.13472C21.6831 1.8912 23.1861 2.9463 24.5 4.3C25.774 2.9463 27.2571 1.8912 28.9493 1.13472C30.6414 0.378241 32.443 0 34.3541 0C38.3356 0 41.6701 1.47315 44.3576 4.41944C47.0451 7.36574 48.3889 10.8694 48.3889 14.9306C48.3889 16.8815 48.0504 18.7528 47.3736 20.5444C46.6967 22.3361 45.6815 23.9287 44.3278 25.3222L28.2625 41.4472C27.7449 41.9648 27.1676 42.353 26.5305 42.6118C25.8935 42.8706 25.2166 43 24.5 43ZM26.9062 12.5417C27.2132 12.5417 27.4861 12.6213 27.725 12.7806C27.9639 12.9398 28.1828 13.1389 28.3819 13.3778L32.6222 19.7083H43.8577C44.1739 18.9347 44.4108 18.1498 44.5684 17.3535C44.7265 16.5572 44.8055 15.7495 44.8055 14.9306C44.8055 11.8648 43.8112 9.20718 41.8224 6.95764C39.834 4.7081 37.3484 3.58333 34.3655 3.58333C32.9644 3.58333 31.6169 3.87199 30.3229 4.44931C29.0289 5.02662 27.9041 5.83287 26.9486 6.86806L25.3361 8.6C25.2166 8.71944 25.0972 8.81898 24.9778 8.89861C24.8583 8.97824 24.699 9.01806 24.5 9.01806C24.3009 9.01806 24.1289 8.98063 23.984 8.90578C23.8394 8.83053 23.7128 8.7286 23.6041 8.6L21.9916 6.86806C21.0253 5.84004 19.8978 5.03558 18.609 4.45468C17.3206 3.87378 15.9796 3.58333 14.5861 3.58333C11.6171 3.58333 9.1428 4.70691 7.16321 6.95406C5.18401 9.2012 4.19442 11.86 4.19442 14.9306C4.19442 15.7555 4.27405 16.5689 4.43331 17.3708C4.59257 18.1727 4.82449 18.9519 5.12907 19.7083H17.3333C17.6351 19.7083 17.9216 19.7802 18.1927 19.9239C18.4642 20.0677 18.6755 20.2546 18.8264 20.4847L21.5736 24.6653L25.1569 13.7958C25.2795 13.4375 25.5021 13.1389 25.8246 12.9C26.1467 12.6611 26.5072 12.5417 26.9062 12.5417ZM27.4264 18.3347L23.7833 29.2042C23.6651 29.5625 23.4431 29.8611 23.1174 30.1C22.7917 30.3389 22.4364 30.4583 22.0514 30.4583C21.7328 30.4583 21.4541 30.3787 21.2153 30.2194C20.9764 30.0602 20.7773 29.8611 20.618 29.6222L16.3778 23.2917H7.65831L23.2458 38.8792C23.4449 39.0782 23.64 39.2176 23.8311 39.2972C24.0222 39.3769 24.2452 39.4167 24.5 39.4167C24.7548 39.4167 24.9778 39.3769 25.1689 39.2972C25.36 39.2176 25.5551 39.0782 25.7541 38.8792L41.2819 23.2917H31.6666C31.3481 23.2917 31.0694 23.212 30.8305 23.0528C30.5916 22.8935 30.3727 22.6944 30.1736 22.4556L27.4264 18.3347Z" fill="#009FFF"/>
</svg>
