<svg width="35" height="43" viewBox="0 0 35 43" fill="none" xmlns="http://www.w3.org/2000/svg">
<path d="M17.5 21.5C18.6825 21.5 19.6948 21.079 20.5369 20.2369C21.379 19.3948 21.8 18.3825 21.8 17.2C21.8 16.0175 21.379 15.0052 20.5369 14.1631C19.6948 13.321 18.6825 12.9 17.5 12.9C16.3175 12.9 15.3053 13.321 14.4632 14.1631C13.6211 15.0052 13.2 16.0175 13.2 17.2C13.2 18.3825 13.6211 19.3948 14.4632 20.2369C15.3053 21.079 16.3175 21.5 17.5 21.5ZM17.5 37.3025C21.8717 33.2892 25.1146 29.6431 27.2288 26.3644C29.343 23.0856 30.4 20.1742 30.4 17.63C30.4 13.7242 29.1548 10.526 26.6644 8.03563C24.174 5.54521 21.1192 4.3 17.5 4.3C13.8809 4.3 10.8261 5.54521 8.33567 8.03563C5.84526 10.526 4.60005 13.7242 4.60005 17.63C4.60005 20.1742 5.65713 23.0856 7.7713 26.3644C9.88547 29.6431 13.1284 33.2892 17.5 37.3025ZM17.5 43C11.7309 38.0908 7.42192 33.531 4.57317 29.3206C1.72442 25.1102 0.300049 21.2133 0.300049 17.63C0.300049 12.255 2.02901 7.97292 5.48692 4.78375C8.94484 1.59458 12.9492 0 17.5 0C22.0509 0 26.0553 1.59458 29.5132 4.78375C32.9711 7.97292 34.7001 12.255 34.7001 17.63C34.7001 21.2133 33.2757 25.1102 30.4269 29.3206C27.5782 33.531 23.2692 38.0908 17.5 43Z" fill="#009FFF"/>
</svg>
