<svg width="35" height="43" viewBox="0 0 35 43" fill="none" xmlns="http://www.w3.org/2000/svg">
<path d="M0.5 36.375V33.1875H4.75V17.0375C4.75 14.0625 5.62656 11.3974 7.37969 9.04219C9.13281 6.68698 11.4438 5.20833 14.3125 4.60625V3.4375C14.3125 2.55208 14.6224 1.79948 15.2422 1.17969C15.862 0.559896 16.6146 0.25 17.5 0.25C18.3854 0.25 19.138 0.559896 19.7578 1.17969C20.3776 1.79948 20.6875 2.55208 20.6875 3.4375V4.60625C23.5563 5.20833 25.8672 6.68698 27.6203 9.04219C29.3734 11.3974 30.25 14.0625 30.25 17.0375V33.1875H34.5V36.375H0.5ZM17.5 42.75C16.3313 42.75 15.3307 42.3339 14.4984 41.5016C13.6661 40.6693 13.25 39.6688 13.25 38.5H21.75C21.75 39.6688 21.3339 40.6693 20.5016 41.5016C19.6693 42.3339 18.6688 42.75 17.5 42.75ZM7.9375 33.1875H27.0625V17.0375C27.0625 14.3813 26.1328 12.1234 24.2734 10.2641C22.4141 8.40469 20.1562 7.475 17.5 7.475C14.8438 7.475 12.5859 8.40469 10.7266 10.2641C8.86719 12.1234 7.9375 14.3813 7.9375 17.0375V33.1875Z" fill="#009FFF"/>
</svg>
