<svg width="46" height="43" viewBox="0 0 46 43" fill="none" xmlns="http://www.w3.org/2000/svg">
<path d="M5.08418 19.8026C3.65613 19.8026 2.45175 19.3096 1.47105 18.3237C0.490351 17.3377 0 16.1307 0 14.7026C0 13.2746 0.492991 12.0702 1.47897 11.0895C2.46496 10.1088 3.67197 9.61842 5.10003 9.61842C6.52808 9.61842 7.73246 10.1114 8.71316 11.0974C9.69386 12.0834 10.1842 13.2904 10.1842 14.7184C10.1842 16.1465 9.69122 17.3509 8.70524 18.3316C7.71925 19.3123 6.51224 19.8026 5.08418 19.8026ZM15.5513 10.1842C14.1232 10.1842 12.9189 9.69122 11.9382 8.70524C10.9575 7.71925 10.4671 6.51224 10.4671 5.08418C10.4671 3.65613 10.9601 2.45175 11.9461 1.47105C12.9321 0.490351 14.1391 0 15.5671 0C16.9952 0 18.1996 0.492992 19.1803 1.47897C20.161 2.46496 20.6513 3.67197 20.6513 5.10003C20.6513 6.52808 20.1583 7.73246 19.1723 8.71316C18.1864 9.69386 16.9793 10.1842 15.5513 10.1842ZM29.696 10.1842C28.268 10.1842 27.0636 9.69122 26.0829 8.70524C25.1022 7.71925 24.6118 6.51224 24.6118 5.08418C24.6118 3.65613 25.1048 2.45175 26.0908 1.47105C27.0768 0.490351 28.2838 0 29.7119 0C31.1399 0 32.3443 0.492992 33.325 1.47897C34.3057 2.46496 34.7961 3.67197 34.7961 5.10003C34.7961 6.52808 34.3031 7.73246 33.3171 8.71316C32.3311 9.69386 31.1241 10.1842 29.696 10.1842ZM40.1631 19.8026C38.7351 19.8026 37.5307 19.3096 36.55 18.3237C35.5693 17.3377 35.0789 16.1307 35.0789 14.7026C35.0789 13.2746 35.5719 12.0702 36.5579 11.0895C37.5439 10.1088 38.7509 9.61842 40.179 9.61842C41.607 9.61842 42.8114 10.1114 43.7921 11.0974C44.7728 12.0834 45.2632 13.2904 45.2632 14.7184C45.2632 16.1465 44.7702 17.3509 43.7842 18.3316C42.7982 19.3123 41.5912 19.8026 40.1631 19.8026ZM10.5237 43C8.93947 43 7.63816 42.4054 6.61974 41.2161C5.60132 40.0272 5.09211 38.6227 5.09211 37.0026C5.09211 35.4184 5.57303 34.0134 6.53487 32.7875C7.49671 31.5616 8.52456 30.3829 9.61842 29.2513C10.4482 28.4215 11.2215 27.5445 11.9382 26.6204C12.6548 25.6963 13.3338 24.7439 13.975 23.7632C15.0689 22.1035 16.2947 20.557 17.6526 19.1237C19.0105 17.6904 20.6702 16.9737 22.6316 16.9737C24.593 16.9737 26.2621 17.6904 27.6388 19.1237C29.0156 20.557 30.2509 22.1224 31.3447 23.8197C31.986 24.8004 32.6555 25.7434 33.3533 26.6487C34.0511 27.5539 34.8149 28.4215 35.6447 29.2513C36.7386 30.3829 37.7664 31.5616 38.7283 32.7875C39.6901 34.0134 40.1711 35.4184 40.1711 37.0026C40.1711 38.6227 39.6618 40.0272 38.6434 41.2161C37.625 42.4054 36.3237 43 34.7395 43C32.7026 43 30.6847 42.8303 28.6855 42.4908C26.6864 42.1513 24.6684 41.9816 22.6316 41.9816C20.5947 41.9816 18.5768 42.1513 16.5776 42.4908C14.5785 42.8303 12.5605 43 10.5237 43Z" fill="#009FFF"/>
</svg>
